<?xml version="1.0" encoding="utf-8"?>
<!-- Generator: Adobe Illustrator 24.0.1, SVG Export Plug-In . SVG Version: 6.00 Build 0)  -->
<svg version="1.1" id="Layer_1" xmlns="http://www.w3.org/2000/svg" xmlns:xlink="http://www.w3.org/1999/xlink" x="0px" y="0px"
	 viewBox="0 0 100 100" style="enable-background:new 0 0 100 100;" xml:space="preserve">
<style type="text/css">
	.st0{fill:#1B5690;}
	.st1{fill:#F28E29;}
	.st2{fill:#E30613;}
	.st3{fill:#2FAC66;}
	.st4{fill:#F9B233;}
	.st5{fill:url(#SVGID_1_);stroke:#432918;stroke-width:0.25;stroke-miterlimit:10;}
	.st6{fill:url(#SVGID_2_);}
	.st7{fill:#F5AEBF;}
	.st8{fill:#FFFFFF;}
	.st9{fill:url(#SVGID_3_);stroke:#432918;stroke-width:0.25;stroke-miterlimit:10;}
	.st10{fill:url(#SVGID_4_);}
	.st11{fill:url(#SVGID_5_);}
	.st12{fill:url(#SVGID_6_);stroke:#432918;stroke-width:0.25;stroke-miterlimit:10;}
	.st13{fill:url(#SVGID_7_);}
	.st14{fill:url(#SVGID_8_);}
	.st15{fill:url(#SVGID_9_);stroke:#432918;stroke-width:0.25;stroke-miterlimit:10;}
	.st16{fill:url(#SVGID_10_);}
	.st17{fill:url(#SVGID_11_);}
	.st18{fill:url(#SVGID_12_);}
	.st19{fill:#B3DCDA;}
	.st20{fill:url(#SVGID_13_);stroke:#432918;stroke-width:0.25;stroke-miterlimit:10;}
	.st21{fill:url(#SVGID_14_);}
	.st22{fill:url(#SVGID_15_);}
	.st23{fill:none;stroke:#F28E29;stroke-miterlimit:10;}
	.st24{fill:none;stroke:#1B5690;stroke-miterlimit:10;}
	.st25{fill:url(#SVGID_16_);stroke:#432918;stroke-width:0.25;stroke-miterlimit:10;}
	.st26{fill:url(#SVGID_17_);}
	.st27{fill:url(#SVGID_18_);}
</style>
<g>
	<linearGradient id="SVGID_1_" gradientUnits="userSpaceOnUse" x1="100" y1="13.2871" x2="145" y2="13.2871">
		<stop  offset="0" style="stop-color:#FFEF26"/>
		<stop  offset="5.948725e-02" style="stop-color:#FFE000"/>
		<stop  offset="0.1303" style="stop-color:#FFD300"/>
		<stop  offset="0.2032" style="stop-color:#FECB00"/>
		<stop  offset="0.2809" style="stop-color:#FDC800"/>
		<stop  offset="0.6685" style="stop-color:#F18F34"/>
		<stop  offset="0.8876" style="stop-color:#E95F32"/>
		<stop  offset="1" style="stop-color:#E3312D"/>
	</linearGradient>
	<circle class="st5" cx="122.5" cy="13.3" r="22.5"/>
</g>
<g>
	
		<radialGradient id="SVGID_2_" cx="-83.5461" cy="-891.501" r="102.1702" gradientTransform="matrix(0.2202 0 0 -0.2202 140.8986 -137.9938)" gradientUnits="userSpaceOnUse">
		<stop  offset="0" style="stop-color:#F0859D"/>
		<stop  offset="0.9788" style="stop-color:#E83C5F"/>
	</radialGradient>
	<circle class="st6" cx="122.5" cy="58.3" r="22.5"/>
</g>
<g>
	
		<radialGradient id="SVGID_3_" cx="-104.5327" cy="229.4429" r="2.8254" gradientTransform="matrix(7.9635 0 0 -7.9635 954.9446 1934.507)" gradientUnits="userSpaceOnUse">
		<stop  offset="2.060000e-02" style="stop-color:#87CBC5"/>
		<stop  offset="1" style="stop-color:#37B39A"/>
	</radialGradient>
	<circle style="fill:url(#SVGID_3_);" cx="122.5" cy="107.3" r="22.5"/>
</g>
<g>
	<path class="st24" d="M91.8,45.3H33.4c-2,0-3.6-1.6-3.6-3.6v-8.1c0-2,1.6-3.6,3.6-3.6h58.4c2,0,3.6,1.6,3.6,3.6v8.1
		C95.4,43.6,93.8,45.3,91.8,45.3z"/>
	<path class="st23" d="M13.3,28.8c-0.6,0-1.2,0.1-1.8,0.2c-0.3,0.1-0.6,0.1-0.8,0.2c-0.5,0.2-1.1,0.4-1.6,0.7
		c-0.7,0.4-1.4,0.9-2,1.5c-0.6,0.6-1.1,1.3-1.5,2c-0.1,0.3-0.3,0.5-0.4,0.8c-0.2,0.5-0.4,1.1-0.5,1.6c-0.1,0.6-0.2,1.2-0.2,1.8
		c0,0.6,0.1,1.2,0.2,1.8c0.1,0.5,0.3,1,0.4,1.4c0.1,0.3,0.3,0.7,0.4,1c0.3,0.5,0.6,1,1,1.5c0.7,0.8,1.6,1.6,2.5,2.1
		c0.3,0.2,0.6,0.3,1,0.4c0.5,0.2,0.9,0.3,1.4,0.4c0.6,0.1,1.2,0.2,1.8,0.2c4.8,0,8.8-3.9,8.8-8.8C22.1,32.8,18.1,28.8,13.3,28.8z"/>
	<circle class="st23" cx="13.3" cy="62.4" r="8.8"/>
	<path class="st24" d="M91.8,70.1H33.4c-2,0-3.6-1.6-3.6-3.6v-8.1c0-2,1.6-3.6,3.6-3.6h58.4c2,0,3.6,1.6,3.6,3.6v8.1
		C95.4,68.5,93.8,70.1,91.8,70.1z"/>
	<circle class="st23" cx="13.3" cy="87.2" r="8.8"/>
	<path class="st24" d="M91.8,94.9H33.4c-2,0-3.6-1.6-3.6-3.6v-8.1c0-2,1.6-3.6,3.6-3.6h58.4c2,0,3.6,1.6,3.6,3.6v8.1
		C95.4,93.3,93.8,94.9,91.8,94.9z"/>
	<circle class="st23" cx="13.3" cy="12.8" r="8.8"/>
	<path class="st24" d="M91.8,20.4H33.4c-2,0-3.6-1.6-3.6-3.6V8.7c0-2,1.6-3.6,3.6-3.6h58.4c2,0,3.6,1.6,3.6,3.6v8.1
		C95.4,18.8,93.8,20.4,91.8,20.4z"/>
</g>
</svg>
