<?xml version="1.0" encoding="utf-8"?>
<!-- Generator: Adobe Illustrator 24.0.1, SVG Export Plug-In . SVG Version: 6.00 Build 0)  -->
<svg version="1.1" id="Layer_1" xmlns="http://www.w3.org/2000/svg" xmlns:xlink="http://www.w3.org/1999/xlink" x="0px" y="0px"
	 viewBox="0 0 100 100" style="enable-background:new 0 0 100 100;" xml:space="preserve">
<style type="text/css">
	.st0{fill:#F4F5FB;}
	.st1{fill:none;stroke:#1B5690;stroke-miterlimit:10;}
	.st2{fill:none;stroke:#F28E29;stroke-miterlimit:10;}
</style>
<g>
	<rect class="st0" width="100" height="100"/>
	<g>
		<path class="st1" d="M81.6,46.4H37.4c-1.5,0-2.7-1.2-2.7-2.7v-6.1c0-1.5,1.2-2.7,2.7-2.7h44.1c1.5,0,2.7,1.2,2.7,2.7v6.1
			C84.3,45.2,83.1,46.4,81.6,46.4z"/>
		<path class="st2" d="M22.3,34c-0.5,0-0.9,0.1-1.4,0.2c-0.2,0.1-0.5,0.1-0.6,0.2c-0.4,0.2-0.8,0.3-1.2,0.5
			c-0.5,0.3-1.1,0.7-1.5,1.1s-0.8,1-1.1,1.5c-0.1,0.2-0.2,0.4-0.3,0.6c-0.2,0.4-0.3,0.8-0.4,1.2c-0.1,0.5-0.2,0.9-0.2,1.4
			s0.1,0.9,0.2,1.4c0.1,0.4,0.2,0.8,0.3,1.1c0.1,0.2,0.2,0.5,0.3,0.8c0.2,0.4,0.5,0.8,0.8,1.1c0.5,0.6,1.2,1.2,1.9,1.6
			c0.2,0.2,0.5,0.2,0.8,0.3c0.4,0.2,0.7,0.2,1.1,0.3c0.5,0.1,0.9,0.2,1.4,0.2c3.6,0,6.6-2.9,6.6-6.6C28.9,37,25.9,34,22.3,34z"/>
		<circle class="st2" cx="22.3" cy="59.4" r="6.6"/>
		<path class="st1" d="M81.6,65.2H37.4c-1.5,0-2.7-1.2-2.7-2.7v-6.1c0-1.5,1.2-2.7,2.7-2.7h44.1c1.5,0,2.7,1.2,2.7,2.7v6.1
			C84.3,64,83.1,65.2,81.6,65.2z"/>
		<circle class="st2" cx="22.3" cy="78.1" r="6.6"/>
		<path class="st1" d="M81.6,83.9H37.4c-1.5,0-2.7-1.2-2.7-2.7v-6.1c0-1.5,1.2-2.7,2.7-2.7h44.1c1.5,0,2.7,1.2,2.7,2.7v6.1
			C84.3,82.7,83.1,83.9,81.6,83.9z"/>
		<circle class="st2" cx="22.3" cy="21.9" r="6.6"/>
		<path class="st1" d="M81.6,27.6H37.4c-1.5,0-2.7-1.2-2.7-2.7v-6.1c0-1.5,1.2-2.7,2.7-2.7h44.1c1.5,0,2.7,1.2,2.7,2.7v6.1
			C84.3,26.4,83.1,27.6,81.6,27.6z"/>
	</g>
</g>
</svg>
