<?xml version="1.0" encoding="utf-8"?>
<!-- Generator: Adobe Illustrator 24.0.1, SVG Export Plug-In . SVG Version: 6.00 Build 0)  -->
<svg version="1.1" id="Layer_1" xmlns="http://www.w3.org/2000/svg" xmlns:xlink="http://www.w3.org/1999/xlink" x="0px" y="0px"
	 viewBox="0 0 100 100" style="enable-background:new 0 0 100 100;" xml:space="preserve">
<style type="text/css">
	.st0{fill:#F3F5FB;}
	.st1{fill:#1B5690;}
	.st2{fill:#F28E29;}
	.st3{fill:#E30613;}
	.st4{fill:#F9B233;}
	.st5{fill:url(#SVGID_1_);stroke:#432918;stroke-width:0.25;stroke-miterlimit:10;}
	.st6{fill:url(#SVGID_2_);}
	.st7{fill:#F5AEBF;}
	.st8{fill:#FFFFFF;}
	.st9{fill:url(#SVGID_3_);stroke:#432918;stroke-width:0.25;stroke-miterlimit:10;}
	.st10{fill:url(#SVGID_4_);}
	.st11{fill:url(#SVGID_5_);}
	.st12{fill:url(#SVGID_6_);stroke:#432918;stroke-width:0.25;stroke-miterlimit:10;}
	.st13{fill:url(#SVGID_7_);}
	.st14{fill:url(#SVGID_8_);}
	.st15{fill:url(#SVGID_9_);stroke:#432918;stroke-width:0.25;stroke-miterlimit:10;}
	.st16{fill:url(#SVGID_10_);}
	.st17{fill:url(#SVGID_11_);}
	.st18{fill:url(#SVGID_12_);}
	.st19{fill:#B3DCDA;}
	.st20{fill:url(#SVGID_13_);stroke:#432918;stroke-width:0.25;stroke-miterlimit:10;}
	.st21{fill:url(#SVGID_14_);}
	.st22{fill:url(#SVGID_15_);}
	.st23{fill:none;stroke:#F28E29;stroke-miterlimit:10;}
	.st24{fill:none;stroke:#1B5690;stroke-miterlimit:10;}
	.st25{fill:#020203;}
	.st26{fill:#F9B259;}
	.st27{fill:#1F2D53;}
	.st28{fill:#1E5792;}
	.st29{fill:#F18E29;}
	.st30{fill:url(#SVGID_16_);}
	.st31{fill:url(#SVGID_17_);}
	.st32{fill:url(#SVGID_18_);stroke:#432918;stroke-width:0.25;stroke-miterlimit:10;}
</style>
<rect class="st0" width="100" height="100"/>
<g>
	<path class="st2" d="M32.2,19.5c-0.4,0.1-0.8,0.2-1.1,0.5c-0.3-0.3-0.7-0.4-1.1-0.5l-2.4-0.3l-1.1-2.2c-0.7-1.4-2.8-1.4-3.5,0
		L22,19.1l-2.4,0.3c-2,0.3-2.2,2.1-1.1,3.3l1.7,1.7l-0.4,2.4c-0.2,2.3,1,2.5,2.8,2l2.2-1.1l2.2,1.1c1.3,0.7,3.1-0.4,2.8-2l-0.4-2.4
		l1.7-1.7l1.7,1.7l-0.4,2.4c-0.3,1.7,1.6,2.7,2.8,2l2.2-1.1l2.2,1.1c1.8,0.8,3-0.2,2.8-2L42,24.4l1.7-1.7l1.7,1.7L45,26.8
		c-0.3,1.7,1.6,2.7,2.8,2l2.2-1.1l2.2,1.1c1.8,0.8,3.2-0.1,2.8-2l-0.4-2.4l1.7-1.7l1.7,1.7l-0.4,2.4c-0.3,1.7,1.6,2.7,2.8,2l2.2-1.1
		l2.2,1.1c1.9,0.7,3-0.1,2.8-2l-0.4-2.4l1.7-1.7l1.7,1.7l-0.4,2.4c-0.3,1.7,1.6,2.7,2.8,2l2.2-1.1l2.2,1.1c1.8,0.8,3.1-0.1,2.8-2
		l-0.4-2.4l1.7-1.7c1.3-1.3,0.9-3-1.1-3.3L78,19.1l-1.1-2.2c-0.9-1.7-2.6-1.8-3.5,0l-1.1,2.2l-2.4,0.3c-0.4,0.1-0.8,0.2-1.1,0.5
		c-0.3-0.3-0.7-0.4-1.1-0.5l-2.4-0.3l-1.1-2.2c-0.7-1.6-2.6-1.8-3.5,0l-1.1,2.2l-2.4,0.3c-0.4,0.1-0.8,0.2-1.1,0.5
		c-0.3-0.3-0.7-0.4-1.1-0.5l-2.4-0.3l-1.1-2.2c-0.8-1.7-2.6-1.8-3.5,0l-1.1,2.2l-2.4,0.3c-0.4,0.1-0.8,0.2-1.1,0.5
		c-0.3-0.3-0.7-0.4-1.1-0.5l-2.4-0.3l-1.1-2.2c-0.8-1.7-2.6-1.8-3.5,0l-1.1,2.2L32.2,19.5z M27.6,22.9c-0.5,0.4-0.7,1.1-0.6,1.7
		l0.3,1.8l-1.6-0.9c-0.3-0.1-0.6-0.2-0.9-0.2c-0.3,0-0.6,0.1-0.9,0.2l-1.6,0.9l0.3-1.8c0.1-0.6-0.1-1.3-0.6-1.7l-1.3-1.3l1.8-0.3
		c0.6-0.1,1.2-0.5,1.5-1.1l0.8-1.7l0.8,1.7c0.3,0.6,0.8,1,1.5,1.1l1.8,0.3L27.6,22.9z M72.9,21.4c0.6-0.1,1.2-0.5,1.5-1.1l0.8-1.7
		l0.8,1.7c0.3,0.6,0.8,1,1.5,1.1l1.8,0.3L78,22.9c-0.5,0.4-0.7,1.1-0.6,1.7l0.3,1.8l-1.6-0.9c-0.6-0.3-1.2-0.3-1.8,0l-1.6,0.9
		l0.3-1.8c0.1-0.6-0.1-1.3-0.6-1.7l-1.3-1.3L72.9,21.4z M60.3,21.4c0.6-0.1,1.2-0.5,1.5-1.1l0.8-1.7l0.8,1.7c0.3,0.6,0.8,1,1.5,1.1
		l1.8,0.3l-1.3,1.3c-0.5,0.4-0.7,1.1-0.6,1.7l0.3,1.8l-1.6-0.9c-0.6-0.3-1.2-0.3-1.8,0L60,26.4l0.3-1.8c0.1-0.6-0.1-1.3-0.6-1.7
		l-1.3-1.3L60.3,21.4z M47.7,21.4c0.6-0.1,1.2-0.5,1.5-1.1l0.8-1.7l0.8,1.7c0.3,0.6,0.8,1,1.5,1.1l1.8,0.3l-1.3,1.3
		c-0.5,0.4-0.7,1.1-0.6,1.7l0.3,1.8l-1.6-0.9c-0.6-0.3-1.2-0.3-1.8,0l-1.6,0.9l0.3-1.8c0.1-0.6-0.1-1.3-0.6-1.7l-1.3-1.3L47.7,21.4z
		 M36.6,20.3l0.8-1.7l0.8,1.7c0.3,0.6,0.8,1,1.5,1.1l1.8,0.3l-1.3,1.3c-0.5,0.4-0.7,1.1-0.6,1.7l0.3,1.8l-1.6-0.9
		c-0.3-0.1-0.6-0.2-0.9-0.2s-0.6,0.1-0.9,0.2l-1.6,0.9l0.3-1.8c0.1-0.6-0.1-1.3-0.6-1.7l-1.3-1.3l1.8-0.3
		C35.8,21.3,36.3,20.9,36.6,20.3L36.6,20.3z"/>
	<g>
		<path class="st1" d="M49,42.5c0.2,0.3,0.6,0.5,1,0.5s0.8-0.2,1-0.5l5.2-7.9H68c0.6,0,1.2-0.5,1.2-1.2s-0.5-1.2-1.2-1.2H55.5
			c-0.4,0-0.8,0.2-1,0.5L50,39.7l-4.6-6.9c-0.2-0.3-0.6-0.5-1-0.5H16.7c-0.8,0-1.5-0.7-1.5-1.5V14.1c0-0.8,0.7-1.5,1.5-1.5h17.6
			c0.6,0,1.2-0.5,1.2-1.2s-0.5-1.2-1.2-1.2H16.7c-2.1,0-3.9,1.7-3.9,3.8v16.7c0,2.1,1.7,3.8,3.9,3.8h27.1L49,42.5z"/>
		<path class="st1" d="M83.3,10.2H40.1c-0.6,0-1.2,0.5-1.2,1.2s0.5,1.2,1.2,1.2h43.2c0.8,0,1.5,0.7,1.5,1.5v16.7
			c0,0.8-0.7,1.5-1.5,1.5h-9.4c-0.6,0-1.2,0.5-1.2,1.2s0.5,1.2,1.2,1.2h9.4c2.1,0,3.9-1.7,3.9-3.8V14.1
			C87.2,11.9,85.4,10.2,83.3,10.2z"/>
	</g>
	<path class="st2" d="M75.4,65.5c0-2.2-1.8-4.1-4.1-4.1H59.7c1.1-3.8,1-7.8-0.4-12.4c-0.5-1.6-1.9-2.6-3.6-2.6
		c-2.4,0.2-3.6,1.5-3.7,3.9c0.3,5.1-2.1,6.9-5.4,9.4c-1,0.7-2.1,1.5-3.1,2.5c-0.2-0.5-0.6-0.8-1.1-0.8H38v-1.7
		c0-0.6-0.5-1.2-1.2-1.2H25.7c-0.6,0-1.2,0.5-1.2,1.2v14.2c0,0.6,0.5,1.2,1.2,1.2c0.6,0,1.2-0.5,1.2-1.2v-13h8.7v26.6h-8.7v-7.7
		c0-0.6-0.5-1.2-1.2-1.2c-0.6,0-1.2,0.5-1.2,1.2v8.9c0,0.6,0.5,1.2,1.2,1.2h11.1c0.6,0,1.2-0.5,1.2-1.2V87h4.4
		c0.6,0,1.2-0.5,1.2-1.2v-1.1c1.5,0.2,2.6,0.5,3.6,1.3c0.8,0.6,1.8,1,2.9,1h18.3c3.2,0,5.2-3.7,3.3-6.4c1.9-1.2,2.5-4.1,1.1-5.9
		c1.8-1.2,2.3-4,1-5.8C74.7,68.2,75.4,66.9,75.4,65.5L75.4,65.5z M41.2,84.7H38V63.8h3.2v19.7V84.7z M71.4,67.3h-3.6
		c-0.6,0-1.2,0.5-1.2,1.2s0.5,1.2,1.2,1.2h2.6c1,0,1.7,0.8,1.7,1.7s-0.8,1.7-1.7,1.7h-2.6c-0.6,0-1.2,0.5-1.2,1.2s0.5,1.2,1.2,1.2
		h1.7c1,0,1.7,0.8,1.7,1.7s-0.8,1.7-1.7,1.7h-2.6c-0.6,0-1.2,0.5-1.2,1.2s0.5,1.2,1.2,1.2h1.5c1,0,1.7,0.8,1.7,1.7s-0.8,1.7-1.7,1.7
		H50c-0.5,0-1-0.2-1.5-0.5c-1.6-1.3-3.4-1.6-5-1.8V65.4c1.4-1.6,3-2.7,4.5-3.8c3.4-2.6,6.7-5,6.4-11.4c0-0.9,0.5-1.4,1.4-1.5
		c0.6,0,1.2,0.4,1.3,1c1.4,4.7,1.4,8.7-0.1,12.4c-0.1,0.4-0.1,0.8,0.1,1.1c0.2,0.3,0.6,0.5,1,0.5h13.3c1,0,1.7,0.8,1.7,1.7
		S72.3,67.3,71.4,67.3L71.4,67.3z"/>
	<path class="st1" d="M31.3,67.8c-0.7,0-1.3-0.6-1.3-1.3c0-0.7,0.6-1.3,1.3-1.3c0.7,0,1.3,0.6,1.3,1.3C32.6,67.2,32,67.8,31.3,67.8z
		"/>
</g>
</svg>
