<?xml version="1.0" encoding="utf-8"?>
<!-- Generator: Adobe Illustrator 24.0.1, SVG Export Plug-In . SVG Version: 6.00 Build 0)  -->
<svg version="1.1" id="Layer_1" xmlns="http://www.w3.org/2000/svg" xmlns:xlink="http://www.w3.org/1999/xlink" x="0px" y="0px"
	 viewBox="0 0 100 100" style="enable-background:new 0 0 100 100;" xml:space="preserve">
<style type="text/css">
	.st0{fill:#F3F5FB;}
	.st1{fill:#1B5690;}
	.st2{fill:#F28E29;}
	.st3{fill:#E30613;}
	.st4{fill:#F9B233;}
	.st5{fill:url(#SVGID_1_);stroke:#432918;stroke-width:0.25;stroke-miterlimit:10;}
	.st6{fill:url(#SVGID_2_);}
	.st7{fill:#F5AEBF;}
	.st8{fill:#FFFFFF;}
	.st9{fill:url(#SVGID_3_);stroke:#432918;stroke-width:0.25;stroke-miterlimit:10;}
	.st10{fill:url(#SVGID_4_);}
	.st11{fill:url(#SVGID_5_);}
	.st12{fill:url(#SVGID_6_);stroke:#432918;stroke-width:0.25;stroke-miterlimit:10;}
	.st13{fill:url(#SVGID_7_);}
	.st14{fill:url(#SVGID_8_);}
	.st15{fill:url(#SVGID_9_);stroke:#432918;stroke-width:0.25;stroke-miterlimit:10;}
	.st16{fill:url(#SVGID_10_);}
	.st17{fill:url(#SVGID_11_);}
	.st18{fill:url(#SVGID_12_);}
	.st19{fill:#B3DCDA;}
	.st20{fill:url(#SVGID_13_);stroke:#432918;stroke-width:0.25;stroke-miterlimit:10;}
	.st21{fill:url(#SVGID_14_);}
	.st22{fill:url(#SVGID_15_);}
	.st23{fill:none;stroke:#F28E29;stroke-miterlimit:10;}
	.st24{fill:none;stroke:#1B5690;stroke-miterlimit:10;}
	.st25{fill:#020203;}
	.st26{fill:#F9B259;}
	.st27{fill:#1F2D53;}
	.st28{fill:#1E5792;}
	.st29{fill:#F18E29;}
	.st30{fill:url(#SVGID_16_);}
	.st31{fill:url(#SVGID_17_);stroke:#432918;stroke-width:0.25;stroke-miterlimit:10;}
	.st32{fill:url(#SVGID_18_);}
</style>
<path class="st2" d="M30.7,16.9c-0.4,0.1-0.8,0.3-1.1,0.6c-0.3-0.3-0.7-0.5-1.1-0.6l-2.6-0.4l-1.2-2.3c-0.8-1.6-3-1.6-3.8,0
	l-1.2,2.3L17,16.9c-2.2,0.4-2.4,2.3-1.2,3.6l1.9,1.8l-0.4,2.6c-0.2,2.5,1.1,2.7,3.1,2.2l2.3-1.2l2.3,1.2c1.4,0.7,3.4-0.4,3.1-2.2
	l-0.4-2.6l1.9-1.8l1.9,1.8l-0.4,2.6c-0.3,1.8,1.7,2.9,3.1,2.2l2.3-1.2l2.3,1.2c1.9,0.9,3.3-0.2,3.1-2.2l-0.4-2.6l1.9-1.8l1.9,1.8
	l-0.4,2.6c-0.3,1.8,1.7,2.9,3.1,2.2l2.3-1.2l2.3,1.2c1.9,0.8,3.5-0.1,3.1-2.2L55,22.3l1.9-1.8l1.9,1.8l-0.4,2.6
	c-0.3,1.8,1.7,2.9,3.1,2.2l2.3-1.2l2.3,1.2c2.1,0.8,3.3-0.1,3.1-2.2l-0.4-2.6l1.9-1.8l1.9,1.8l-0.4,2.6c-0.3,1.8,1.7,2.9,3.1,2.2
	l2.3-1.2l2.3,1.2c1.9,0.9,3.4-0.1,3.1-2.2l-0.4-2.6l1.9-1.8c1.4-1.4,1-3.2-1.2-3.6l-2.6-0.4l-1.2-2.3c-0.9-1.8-2.8-1.9-3.8,0
	l-1.2,2.3l-2.6,0.4c-0.4,0.1-0.8,0.3-1.1,0.6c-0.3-0.3-0.7-0.5-1.1-0.6l-2.6-0.4l-1.2-2.3c-0.8-1.8-2.8-1.9-3.8,0l-1.2,2.3L58,16.9
	c-0.4,0.1-0.8,0.3-1.1,0.6c-0.3-0.3-0.7-0.5-1.1-0.6l-2.6-0.4l-1.2-2.3c-0.9-1.9-2.8-1.9-3.8,0l-1.2,2.3l-2.6,0.4
	c-0.4,0.1-0.8,0.3-1.1,0.6c-0.3-0.3-0.7-0.5-1.1-0.6l-2.6-0.4l-1.2-2.3c-0.9-1.9-2.8-1.9-3.8,0l-1.2,2.3L30.7,16.9z M25.7,20.6
	c-0.5,0.5-0.7,1.2-0.6,1.9l0.3,1.9l-1.8-0.9c-0.3-0.2-0.6-0.2-1-0.2c-0.3,0-0.7,0.1-1,0.2l-1.8,0.9l0.3-1.9c0.1-0.7-0.1-1.4-0.6-1.9
	l-1.4-1.4l2-0.3c0.7-0.1,1.3-0.5,1.6-1.1l0.9-1.8l0.9,1.8c0.3,0.6,0.9,1,1.6,1.1l2,0.3L25.7,20.6z M74.8,19c0.7-0.1,1.3-0.5,1.6-1.1
	l0.9-1.8l0.9,1.8c0.3,0.6,0.9,1,1.6,1.1l2,0.3l-1.4,1.4c-0.5,0.5-0.7,1.2-0.6,1.9l0.3,1.9l-1.8-0.9c-0.6-0.3-1.3-0.3-2,0l-1.8,0.9
	l0.3-1.9c0.1-0.7-0.1-1.4-0.6-1.9l-1.4-1.4L74.8,19z M61.2,19c0.7-0.1,1.3-0.5,1.6-1.1l0.9-1.8l0.9,1.8c0.3,0.6,0.9,1,1.6,1.1l2,0.3
	l-1.4,1.4c-0.5,0.5-0.7,1.2-0.6,1.9l0.3,1.9l-1.8-0.9c-0.6-0.3-1.3-0.3-2,0l-1.8,0.9l0.3-1.9c0.1-0.7-0.1-1.4-0.6-1.9l-1.4-1.4
	L61.2,19z M47.5,19c0.7-0.1,1.3-0.5,1.6-1.1L50,16l0.9,1.8c0.3,0.6,0.9,1,1.6,1.1l2,0.3L53,20.6c-0.5,0.5-0.7,1.2-0.6,1.9l0.3,1.9
	L51,23.5c-0.6-0.3-1.3-0.3-2,0l-1.8,0.9l0.3-1.9c0.1-0.7-0.1-1.4-0.6-1.9l-1.4-1.4L47.5,19z M35.4,17.8l0.9-1.8l0.9,1.8
	c0.3,0.6,0.9,1,1.6,1.1l2,0.3l-1.4,1.4c-0.5,0.5-0.7,1.2-0.6,1.9l0.3,1.9l-1.8-0.9c-0.3-0.2-0.6-0.2-1-0.2s-0.7,0.1-1,0.2l-1.8,0.9
	l0.3-1.9c0.1-0.7-0.1-1.4-0.6-1.9l-1.4-1.4l2-0.3C34.5,18.9,35.1,18.4,35.4,17.8L35.4,17.8z"/>
<g>
	<path class="st1" d="M48.9,41.9c0.2,0.4,0.6,0.6,1.1,0.6s0.8-0.2,1.1-0.6l5.6-8.5h12.9c0.7,0,1.3-0.6,1.3-1.3
		c0-0.7-0.6-1.3-1.3-1.3H56c-0.4,0-0.8,0.2-1.1,0.6l-5,7.5l-5-7.5c-0.2-0.4-0.6-0.6-1.1-0.6H13.9c-0.9,0-1.7-0.7-1.7-1.6V11
		c0-0.9,0.7-1.6,1.7-1.6h19.1c0.7,0,1.3-0.6,1.3-1.3s-0.6-1.3-1.3-1.3H13.9c-2.3,0-4.2,1.9-4.2,4.2v18.1c0,2.3,1.9,4.2,4.2,4.2h29.4
		L48.9,41.9z"/>
	<path class="st1" d="M86.1,6.9H39.3c-0.7,0-1.3,0.6-1.3,1.3s0.6,1.3,1.3,1.3h46.8c0.9,0,1.7,0.7,1.7,1.6v18.1
		c0,0.9-0.7,1.6-1.7,1.6H75.9c-0.7,0-1.3,0.6-1.3,1.3c0,0.7,0.6,1.3,1.3,1.3h10.2c2.3,0,4.2-1.9,4.2-4.2V11
		C90.3,8.7,88.4,6.9,86.1,6.9z"/>
</g>
<path class="st2" d="M77.6,66.8c0-2.4-2-4.4-4.4-4.4H60.5c1.2-4.1,1.1-8.4-0.5-13.4c-0.5-1.7-2.1-2.9-3.9-2.9
	c-2.6,0.3-3.9,1.7-4,4.3c0.3,5.6-2.3,7.5-5.9,10.2c-1.1,0.8-2.2,1.7-3.4,2.7c-0.2-0.5-0.6-0.9-1.2-0.9h-4.8v-1.9
	c0-0.7-0.6-1.3-1.3-1.3h-12c-0.7,0-1.3,0.6-1.3,1.3v15.4c0,0.7,0.6,1.3,1.3,1.3s1.3-0.6,1.3-1.3V61.8h9.5v28.8h-9.5v-8.4
	c0-0.7-0.6-1.3-1.3-1.3s-1.3,0.6-1.3,1.3v9.6c0,0.7,0.6,1.3,1.3,1.3h12c0.7,0,1.3-0.6,1.3-1.3v-1.7h4.8c0.7,0,1.3-0.6,1.3-1.3v-1.2
	c1.6,0.2,2.8,0.5,3.9,1.4c0.9,0.7,2,1.1,3.1,1.1h19.8c3.5,0,5.7-4.1,3.6-7c2.1-1.3,2.7-4.4,1.2-6.4c2-1.3,2.5-4.3,1.1-6.3
	C76.8,69.7,77.6,68.4,77.6,66.8L77.6,66.8z M40.4,87.6h-3.5V64.9h3.5v21.3V87.6z M73.2,68.7h-3.9c-0.7,0-1.3,0.6-1.3,1.3
	c0,0.7,0.6,1.3,1.3,1.3h2.9c1,0,1.9,0.8,1.9,1.9S73.2,75,72.1,75h-2.9c-0.7,0-1.3,0.6-1.3,1.3s0.6,1.3,1.3,1.3h1.8
	c1,0,1.9,0.8,1.9,1.9s-0.8,1.9-1.9,1.9h-2.9c-0.7,0-1.3,0.6-1.3,1.3s0.6,1.3,1.3,1.3h1.6c1,0,1.9,0.8,1.9,1.9s-0.8,1.9-1.9,1.9H50
	c-0.6,0-1.1-0.2-1.6-0.5c-1.8-1.4-3.6-1.8-5.5-2V66.7c1.6-1.7,3.2-2.9,4.8-4.1c3.7-2.8,7.3-5.4,6.9-12.3c0-1,0.6-1.5,1.5-1.6
	c0.7,0,1.3,0.4,1.4,1.1c1.6,5.1,1.5,9.4-0.1,13.5c-0.2,0.4-0.1,0.8,0.1,1.2c0.2,0.3,0.6,0.6,1,0.6h14.4c1,0,1.9,0.8,1.9,1.9
	C75.1,67.9,74.2,68.7,73.2,68.7L73.2,68.7z"/>
<path class="st1" d="M29.7,69.3c-0.8,0-1.5-0.6-1.5-1.5c0-0.8,0.6-1.5,1.5-1.5s1.5,0.6,1.5,1.5C31.1,68.7,30.5,69.3,29.7,69.3z"/>
<g>
	
		<radialGradient id="SVGID_1_" cx="-287.8864" cy="-728.7856" r="102.1702" gradientTransform="matrix(0.2202 0 0 -0.2202 140.8986 -137.9938)" gradientUnits="userSpaceOnUse">
		<stop  offset="0" style="stop-color:#F0859D"/>
		<stop  offset="0.9788" style="stop-color:#E83C5F"/>
	</radialGradient>
	<circle style="fill:url(#SVGID_1_);" cx="77.5" cy="22.5" r="22.5"/>
	<path class="st8" d="M82.2,22.5l8.5-8.5c1.3-1.3,1.3-3.4,0-4.7c-1.3-1.3-3.4-1.3-4.7,0l-8.5,8.5L69,9.4c-1.3-1.3-3.4-1.3-4.7,0
		c-1.3,1.3-1.3,3.4,0,4.7l8.5,8.5L64.4,31c-1.3,1.3-1.3,3.4,0,4.7c0.6,0.6,1.5,1,2.3,1s1.7-0.3,2.3-1l8.5-8.5l8.5,8.5
		c0.6,0.6,1.5,1,2.3,1s1.7-0.3,2.3-1c1.3-1.3,1.3-3.4,0-4.7L82.2,22.5z"/>
</g>
</svg>
