<?xml version="1.0" encoding="utf-8"?>
<!-- Generator: Adobe Illustrator 24.0.1, SVG Export Plug-In . SVG Version: 6.00 Build 0)  -->
<svg version="1.1" id="Layer_1" xmlns="http://www.w3.org/2000/svg" xmlns:xlink="http://www.w3.org/1999/xlink" x="0px" y="0px"
	 viewBox="0 0 100 100" style="enable-background:new 0 0 100 100;" xml:space="preserve">
<style type="text/css">
	.st0{fill:#F3F5FB;}
	.st1{fill:#1B5690;}
	.st2{fill:#F28E29;}
	.st3{fill:#E30613;}
	.st4{fill:#F9B233;}
	.st5{fill:url(#SVGID_1_);stroke:#432918;stroke-width:0.25;stroke-miterlimit:10;}
	.st6{fill:url(#SVGID_2_);}
	.st7{fill:#F5AEBF;}
	.st8{fill:#FFFFFF;}
	.st9{fill:url(#SVGID_3_);stroke:#432918;stroke-width:0.25;stroke-miterlimit:10;}
	.st10{fill:url(#SVGID_4_);}
	.st11{fill:url(#SVGID_5_);}
	.st12{fill:url(#SVGID_6_);stroke:#432918;stroke-width:0.25;stroke-miterlimit:10;}
	.st13{fill:url(#SVGID_7_);}
	.st14{fill:url(#SVGID_8_);}
	.st15{fill:url(#SVGID_9_);stroke:#432918;stroke-width:0.25;stroke-miterlimit:10;}
	.st16{fill:url(#SVGID_10_);}
	.st17{fill:url(#SVGID_11_);}
	.st18{fill:url(#SVGID_12_);}
	.st19{fill:#B3DCDA;}
	.st20{fill:url(#SVGID_13_);stroke:#432918;stroke-width:0.25;stroke-miterlimit:10;}
	.st21{fill:url(#SVGID_14_);}
	.st22{fill:url(#SVGID_15_);}
	.st23{fill:none;stroke:#F28E29;stroke-miterlimit:10;}
	.st24{fill:none;stroke:#1B5690;stroke-miterlimit:10;}
	.st25{fill:#020203;}
	.st26{fill:#F9B259;}
	.st27{fill:#1F2D53;}
	.st28{fill:#1E5792;}
	.st29{fill:#F18E29;}
	.st30{fill:url(#SVGID_16_);}
	.st31{fill:url(#SVGID_17_);}
	.st32{fill:url(#SVGID_18_);stroke:#432918;stroke-width:0.25;stroke-miterlimit:10;}
</style>
<g>
	<path class="st2" d="M29.2,14.3c-0.5,0.1-0.9,0.3-1.2,0.6c-0.3-0.3-0.8-0.5-1.2-0.6l-2.8-0.4l-1.3-2.5c-0.8-1.7-3.2-1.7-4.1,0
		l-1.3,2.5l-2.8,0.4c-2.3,0.4-2.5,2.4-1.3,3.9l2,2l-0.5,2.8c-0.2,2.7,1.2,2.9,3.3,2.4l2.5-1.3l2.5,1.3c1.5,0.8,3.6-0.5,3.3-2.4
		l-0.5-2.8l2-1.9l2,1.9l-0.5,2.8c-0.3,1.9,1.8,3.2,3.3,2.4l2.5-1.3l2.5,1.3c2.1,0.9,3.6-0.2,3.3-2.4l-0.5-2.8l2-1.9l2,1.9l-0.5,2.8
		c-0.3,1.9,1.8,3.2,3.3,2.4L50,24l2.5,1.3c2.1,0.9,3.7-0.1,3.3-2.4l-0.5-2.8l2-1.9l2,1.9l-0.5,2.8c-0.3,1.9,1.8,3.2,3.3,2.4l2.5-1.3
		l2.5,1.3c2.3,0.8,3.5-0.2,3.3-2.4L70,20.1l2-1.9l2,1.9l-0.5,2.8c-0.3,1.9,1.8,3.2,3.3,2.4l2.5-1.3l2.5,1.3c2.1,1,3.6-0.1,3.3-2.4
		l-0.5-2.8l2-2c1.5-1.5,1-3.5-1.3-3.9l-2.8-0.4l-1.3-2.5c-1-1.9-3-2-4.1,0l-1.3,2.5l-2.8,0.4c-0.5,0.1-0.9,0.3-1.2,0.6
		c-0.3-0.3-0.8-0.5-1.2-0.6L68,13.9l-1.3-2.5c-0.9-1.9-3-2-4.1,0l-1.3,2.5l-2.8,0.4c-0.5,0.1-0.9,0.3-1.2,0.6
		c-0.3-0.3-0.8-0.5-1.2-0.6l-2.8-0.4L52,11.4c-1-2-3-2-4.1,0l-1.3,2.5l-2.8,0.4c-0.5,0.1-0.9,0.3-1.2,0.6c-0.3-0.3-0.8-0.5-1.2-0.6
		l-2.8-0.4l-1.3-2.5c-0.9-2-3-2-4.1,0L32,13.9L29.2,14.3z M23.9,18.4c-0.5,0.5-0.8,1.3-0.7,2l0.4,2.1l-1.9-1
		c-0.3-0.2-0.7-0.3-1.1-0.3c-0.4,0-0.7,0.1-1.1,0.3l-1.9,1l0.4-2.1c0.1-0.7-0.1-1.5-0.7-2l-1.5-1.5l2.1-0.3c0.7-0.1,1.4-0.6,1.7-1.2
		l1-1.9l1,1.9c0.3,0.7,1,1.1,1.7,1.2l2.1,0.3L23.9,18.4z M76.7,16.6c0.7-0.1,1.4-0.6,1.7-1.2l1-1.9l1,1.9c0.3,0.7,1,1.1,1.7,1.2
		l2.1,0.3l-1.5,1.5c-0.5,0.5-0.8,1.3-0.7,2l0.4,2.1l-1.9-1c-0.7-0.3-1.4-0.3-2.1,0l-1.9,1l0.4-2.1c0.1-0.7-0.1-1.5-0.7-2l-1.5-1.5
		L76.7,16.6z M62,16.6c0.7-0.1,1.4-0.6,1.7-1.2l1-1.9l1,1.9c0.3,0.7,1,1.1,1.7,1.2l2.1,0.3L68,18.4c-0.5,0.5-0.8,1.3-0.7,2l0.4,2.1
		l-1.9-1c-0.7-0.3-1.4-0.3-2.1,0l-1.9,1l0.4-2.1c0.1-0.7-0.1-1.5-0.7-2l-1.5-1.5L62,16.6z M47.3,16.6c0.7-0.1,1.4-0.6,1.7-1.2l1-1.9
		l1,1.9c0.3,0.7,1,1.1,1.7,1.2l2.1,0.3l-1.5,1.5c-0.5,0.5-0.8,1.3-0.7,2l0.4,2.1l-1.9-1c-0.7-0.3-1.4-0.3-2.1,0l-1.9,1l0.4-2.1
		c0.1-0.7-0.1-1.5-0.7-2l-1.5-1.5L47.3,16.6z M34.3,15.3l1-1.9l1,1.9c0.3,0.7,1,1.1,1.7,1.2l2.1,0.3l-1.5,1.5
		c-0.5,0.5-0.8,1.3-0.7,2l0.4,2.1l-1.9-1c-0.3-0.2-0.7-0.3-1.1-0.3c-0.4,0-0.7,0.1-1.1,0.3l-1.9,1l0.4-2.1c0.1-0.7-0.1-1.5-0.7-2
		l-1.5-1.5l2.1-0.3C33.4,16.5,34,16,34.3,15.3L34.3,15.3z"/>
	<g>
		<path class="st1" d="M48.9,41.2c0.3,0.4,0.7,0.6,1.1,0.6s0.9-0.2,1.1-0.6l6.1-9.2h13.9c0.8,0,1.4-0.6,1.4-1.4
			c0-0.8-0.6-1.4-1.4-1.4H56.5c-0.5,0-0.9,0.2-1.1,0.6L50,38l-5.3-8.1c-0.3-0.4-0.7-0.6-1.1-0.6H11.1c-1,0-1.8-0.8-1.8-1.8V8
			c0-1,0.8-1.8,1.8-1.8h20.5c0.8,0,1.4-0.6,1.4-1.4s-0.6-1.4-1.4-1.4H11.1c-2.5,0-4.5,2-4.5,4.5v19.5c0,2.5,2,4.5,4.5,4.5h31.7
			L48.9,41.2z"/>
		<path class="st1" d="M88.9,3.5H38.4c-0.8,0-1.4,0.6-1.4,1.4s0.6,1.4,1.4,1.4h50.4c1,0,1.8,0.8,1.8,1.8v19.5c0,1-0.8,1.8-1.8,1.8
			h-11c-0.8,0-1.4,0.6-1.4,1.4c0,0.8,0.6,1.4,1.4,1.4h11c2.5,0,4.5-2,4.5-4.5V8C93.4,5.6,91.4,3.5,88.9,3.5z"/>
	</g>
	<path class="st2" d="M79.7,68.1c0-2.6-2.1-4.8-4.8-4.8H61.3c1.3-4.5,1.1-9.1-0.5-14.5c-0.6-1.8-2.2-3.1-4.2-3.1
		c-2.8,0.3-4.2,1.8-4.4,4.6c0.3,6-2.5,8.1-6.3,11c-1.2,0.9-2.4,1.8-3.6,2.9c-0.2-0.5-0.7-0.9-1.3-0.9h-5.1v-2c0-0.8-0.6-1.4-1.4-1.4
		H21.6c-0.8,0-1.4,0.6-1.4,1.4v16.6c0,0.8,0.6,1.4,1.4,1.4c0.8,0,1.4-0.6,1.4-1.4V62.7h10.2v31H23v-9c0-0.8-0.6-1.4-1.4-1.4
		c-0.8,0-1.4,0.6-1.4,1.4v10.4c0,0.8,0.6,1.4,1.4,1.4h12.9c0.8,0,1.4-0.6,1.4-1.4v-1.9H41c0.8,0,1.4-0.6,1.4-1.4v-1.3
		c1.7,0.2,3,0.6,4.2,1.5c1,0.7,2.2,1.1,3.4,1.1h21.3c3.8,0,6.1-4.4,3.9-7.5c2.3-1.4,2.9-4.7,1.3-6.9c2.1-1.4,2.7-4.7,1.1-6.8
		C78.9,71.2,79.7,69.8,79.7,68.1L79.7,68.1z M39.7,90.5h-3.8V66.1h3.8v23V90.5z M75,70.2h-4.2c-0.8,0-1.4,0.6-1.4,1.4
		s0.6,1.4,1.4,1.4h3.1c1.1,0,2,0.9,2,2s-0.9,2-2,2h-3.1c-0.8,0-1.4,0.6-1.4,1.4s0.6,1.4,1.4,1.4h1.9c1.1,0,2,0.9,2,2s-0.9,2-2,2
		h-3.1c-0.8,0-1.4,0.6-1.4,1.4s0.6,1.4,1.4,1.4h1.7c1.1,0,2,0.9,2,2s-0.9,2-2,2H50c-0.6,0-1.2-0.2-1.7-0.6c-1.9-1.5-3.9-1.9-5.9-2.1
		V68c1.7-1.8,3.5-3.2,5.2-4.5c4-3,7.8-5.8,7.4-13.3c0.1-1,0.6-1.6,1.6-1.7c0.7,0,1.4,0.5,1.6,1.1c1.7,5.5,1.7,10.1-0.1,14.5
		c-0.2,0.4-0.1,0.9,0.1,1.3c0.3,0.4,0.7,0.6,1.1,0.6H75c1.1,0,2,0.9,2,2S76.1,70.2,75,70.2L75,70.2z"/>
	<path class="st1" d="M28.1,70.8c-0.9,0-1.6-0.7-1.6-1.6c0-0.9,0.7-1.6,1.6-1.6c0.9,0,1.6,0.7,1.6,1.6C29.7,70.1,29,70.8,28.1,70.8z
		"/>
</g>
<g>
	<circle class="st8" cx="77.5" cy="22.5" r="20.8"/>
	<path class="st2" d="M77.5,45C65.1,45,55,34.9,55,22.5C55,10.1,65.1,0,77.5,0C89.9,0,100,10.1,100,22.5C100,34.9,89.9,45,77.5,45z
		 M77.5,3.5c-10.5,0-19,8.5-19,19s8.5,19,19,19s19-8.5,19-19C96.5,12,88,3.5,77.5,3.5z"/>
	<path class="st1" d="M84.5,29.6c-0.4,0-0.7-0.1-1-0.3l-7-5.2c-0.4-0.3-0.7-0.8-0.7-1.4V12.2c0-1,0.8-1.7,1.7-1.7s1.7,0.8,1.7,1.7
		v9.6l6.3,4.7c0.8,0.6,0.9,1.7,0.3,2.4C85.5,29.4,85,29.6,84.5,29.6z"/>
</g>
</svg>
