<?xml version="1.0" encoding="utf-8"?>
<!-- Generator: Adobe Illustrator 24.0.1, SVG Export Plug-In . SVG Version: 6.00 Build 0)  -->
<svg version="1.1" id="Layer_1" xmlns="http://www.w3.org/2000/svg" xmlns:xlink="http://www.w3.org/1999/xlink" x="0px" y="0px"
	 viewBox="0 0 100 100" style="enable-background:new 0 0 100 100;" xml:space="preserve">
<style type="text/css">
	.st0{fill:#1B5690;}
	.st1{fill:#F28E29;}
	.st2{fill:#E30613;}
	.st3{fill:#2FAC66;}
	.st4{fill:#F9B233;}
	.st5{fill:url(#SVGID_1_);stroke:#432918;stroke-width:0.25;stroke-miterlimit:10;}
	.st6{fill:url(#SVGID_2_);}
	.st7{fill:#F5AEBF;}
	.st8{fill:#FFFFFF;}
	.st9{fill:url(#SVGID_3_);stroke:#432918;stroke-width:0.25;stroke-miterlimit:10;}
	.st10{fill:url(#SVGID_4_);}
	.st11{fill:url(#SVGID_5_);}
	.st12{fill:url(#SVGID_6_);stroke:#432918;stroke-width:0.25;stroke-miterlimit:10;}
	.st13{fill:url(#SVGID_7_);}
	.st14{fill:url(#SVGID_8_);}
	.st15{fill:url(#SVGID_9_);stroke:#432918;stroke-width:0.25;stroke-miterlimit:10;}
	.st16{fill:url(#SVGID_10_);}
	.st17{fill:url(#SVGID_11_);}
	.st18{fill:url(#SVGID_12_);}
	.st19{fill:#B3DCDA;}
	.st20{fill:url(#SVGID_13_);stroke:#432918;stroke-width:0.25;stroke-miterlimit:10;}
	.st21{fill:url(#SVGID_14_);stroke:#432918;stroke-width:0.25;stroke-miterlimit:10;}
	.st22{fill:url(#SVGID_15_);}
	.st23{fill:url(#SVGID_16_);}
	.st24{fill:none;stroke:#F28E29;stroke-miterlimit:10;}
	.st25{fill:none;stroke:#1B5690;stroke-miterlimit:10;}
	.st26{fill:url(#SVGID_17_);}
	.st27{fill:url(#SVGID_18_);}
	.st28{fill:url(#SVGID_19_);stroke:#432918;stroke-width:0.25;stroke-miterlimit:10;}
</style>
<g>
	<path class="st0" d="M80,58.1H20L13.5,71h5.8v29h61.3V71h5.8L80,58.1z M78,61.3l3.2,6.5H55.8l-3.2-6.5H78z M22,61.3h25.4l-3.2,6.5
		H18.7L22,61.3z M77.4,96.8H51.6V85.5h-3.2v11.3H22.6V71h23.6l2.2-4.5v14.1h3.2V66.5l2.2,4.5h23.6V96.8z"/>
	<path class="st1" d="M25.8,83.9h9.7v3.2h-9.7V83.9z"/>
	<path class="st1" d="M25.8,90.3h9.7v3.2h-9.7V90.3z"/>
	<path class="st1" d="M38.7,90.3h3.2v3.2h-3.2V90.3z"/>
	<path class="st1" d="M42.6,26.2l7.4-1.9l7.4,1.9l0.6-8l4-6.8l-7-3l-5-6.2l-5,6.2l-7,3l4,6.8L42.6,26.2z M47,11.1l3-3.7l3,3.7
		l4.4,1.9l-2.5,4.3l-0.4,4.9L50,21l-4.5,1.1l-0.4-4.9L42.6,13L47,11.1z"/>
	<path class="st0" d="M17.7,29.5l2.3-4l-4.2-1.8l-3-3.7l-3,3.7l-4.2,1.8l2.3,4l0.3,4.8l4.5-1.1l4.5,1.1L17.7,29.5z M14.6,28.5
		l-0.1,1.7l-1.5-0.4l-1.5,0.4l-0.1-1.7L10.4,27l1.5-0.7l1-1.2l1,1.2l1.5,0.7L14.6,28.5z"/>
	<path class="st0" d="M91.9,29.5l2.3-4l-4.2-1.8l-3-3.7l-3,3.7l-4.2,1.8l2.3,4l0.3,4.8l4.5-1.1l4.5,1.1L91.9,29.5z M88.8,28.5
		l-0.1,1.7l-1.5-0.4l-1.5,0.4l-0.1-1.7L84.6,27l1.5-0.7l1-1.2l1,1.2l1.5,0.7L88.8,28.5z"/>
	<path class="st1" d="M20.1,38.4c3.1,2.1,5.8,4.6,8.1,7.4l6.4,8l-1.3-10.6c-0.7-5.5-3.6-10.6-8.1-13.9l-1.6-1.1l-4.7,9.5L20.1,38.4z
		 M24.7,33.2c2.7,2.6,4.6,6,5.2,9.7c-2-2.4-4.4-4.5-6.9-6.4L24.7,33.2z"/>
	<path class="st1" d="M66.8,43.3l-1.3,10.6l6.4-8c2.3-2.9,5-5.4,8.1-7.4l1.2-0.8l-4.7-9.5l-1.6,1.2C70.4,32.7,67.4,37.8,66.8,43.3z
		 M77,36.6c-2.5,1.8-4.9,4-6.9,6.4c0.6-3.7,2.5-7.2,5.2-9.7L77,36.6z"/>
	<path class="st1" d="M56.5,54.8h3.2v-6.8c0-7.7,2.7-15.3,7.7-21.3l-2.5-2.1c-5.4,6.5-8.4,14.8-8.4,23.3L56.5,54.8L56.5,54.8z"/>
	<path class="st0" d="M67.7,19.4H71v3.2h-3.2V19.4z"/>
	<path class="st0" d="M72.6,12.9h3.2v3.2h-3.2V12.9z"/>
	<path class="st1" d="M40.3,54.8h3.2v-6.8c0-8.5-3-16.8-8.4-23.3l-2.5,2.1c5,5.9,7.7,13.5,7.7,21.3V54.8z"/>
	<path class="st0" d="M29,19.4h3.2v3.2H29V19.4z"/>
	<path class="st0" d="M24.2,12.9h3.2v3.2h-3.2V12.9z"/>
	<path class="st0" d="M48.4,27.4h3.2v3.2h-3.2V27.4z"/>
	<path class="st1" d="M48.4,33.9h3.2v21h-3.2V33.9z"/>
	<g>
		<path class="st1" d="M93.5,43.5h3.2v3.2h-3.2V43.5z"/>
		<path class="st1" d="M93.5,50h3.2v3.2h-3.2V50z"/>
		<path class="st1" d="M96.8,46.8h3.2V50h-3.2V46.8z"/>
		<path class="st1" d="M90.3,46.8h3.2V50h-3.2V46.8z"/>
	</g>
	<g>
		<path class="st1" d="M88.7,0h3.2v3.2h-3.2V0z"/>
		<path class="st1" d="M88.7,6.5h3.2v3.2h-3.2V6.5z"/>
		<path class="st1" d="M91.9,3.2h3.2v3.2h-3.2V3.2z"/>
		<path class="st1" d="M85.5,3.2h3.2v3.2h-3.2V3.2z"/>
	</g>
	<g>
		<path class="st1" d="M3.2,50h3.2v3.2H3.2V50z"/>
		<path class="st1" d="M3.2,56.5h3.2v3.2H3.2V56.5z"/>
		<path class="st1" d="M6.5,53.2h3.2v3.2H6.5V53.2z"/>
		<path class="st1" d="M0,53.2h3.2v3.2H0V53.2z"/>
	</g>
	<g>
		<path class="st1" d="M3.2,0h3.2v3.2H3.2V0z"/>
		<path class="st1" d="M3.2,6.5h3.2v3.2H3.2V6.5z"/>
		<path class="st1" d="M6.5,3.2h3.2v3.2H6.5V3.2z"/>
		<path class="st1" d="M0,3.2h3.2v3.2H0V3.2z"/>
	</g>
</g>
</svg>
