<?xml version="1.0" encoding="utf-8"?>
<!-- Generator: Adobe Illustrator 24.0.1, SVG Export Plug-In . SVG Version: 6.00 Build 0)  -->
<svg version="1.1" id="Layer_1" xmlns="http://www.w3.org/2000/svg" xmlns:xlink="http://www.w3.org/1999/xlink" x="0px" y="0px"
	 viewBox="0 0 100 100" style="enable-background:new 0 0 100 100;" xml:space="preserve">
<style type="text/css">
	.st0{fill:#1B5690;}
	.st1{fill:#F28E29;}
	.st2{fill:#E30613;}
	.st3{fill:#2FAC66;}
	.st4{fill:#F9B233;}
	.st5{fill:url(#SVGID_1_);stroke:#432918;stroke-width:0.25;stroke-miterlimit:10;}
	.st6{fill:url(#SVGID_2_);}
	.st7{fill:#F5AEBF;}
	.st8{fill:#FFFFFF;}
	.st9{fill:url(#SVGID_3_);stroke:#432918;stroke-width:0.25;stroke-miterlimit:10;}
	.st10{fill:url(#SVGID_4_);}
	.st11{fill:url(#SVGID_5_);}
	.st12{fill:url(#SVGID_6_);stroke:#432918;stroke-width:0.25;stroke-miterlimit:10;}
	.st13{fill:url(#SVGID_7_);}
	.st14{fill:url(#SVGID_8_);}
	.st15{fill:url(#SVGID_9_);stroke:#432918;stroke-width:0.25;stroke-miterlimit:10;}
	.st16{fill:url(#SVGID_10_);}
	.st17{fill:url(#SVGID_11_);}
	.st18{fill:url(#SVGID_12_);}
	.st19{fill:#B3DCDA;}
	.st20{fill:url(#SVGID_13_);stroke:#432918;stroke-width:0.25;stroke-miterlimit:10;}
	.st21{fill:url(#SVGID_14_);}
	.st22{fill:url(#SVGID_15_);}
	.st23{fill:none;stroke:#F28E29;stroke-miterlimit:10;}
	.st24{fill:none;stroke:#1B5690;stroke-miterlimit:10;}
	.st25{fill:#020203;}
	.st26{fill:url(#SVGID_16_);stroke:#432918;stroke-width:0.25;stroke-miterlimit:10;}
	.st27{fill:url(#SVGID_17_);}
	.st28{fill:url(#SVGID_18_);}
</style>
<g>
	<path class="st0" d="M97.1,25v-6.9H2.9V25h2.3v50H2.9v6.9h94.2V75h-2.3V25H97.1z M32.5,75H14.7V40.4h17.8V75z M39.9,40.9h11.4v21.4
		H39.9L39.9,40.9L39.9,40.9z M43.2,73.5c-1.5,0-2.7-1.2-2.7-2.7c0-1.5,1.2-2.7,2.7-2.7s2.7,1.2,2.7,2.7S44.7,73.5,43.2,73.5z
		 M52.7,73.5c-1.5,0-2.7-1.2-2.7-2.7c0-1.5,1.2-2.7,2.7-2.7c1.5,0,2.7,1.2,2.7,2.7S54.2,73.5,52.7,73.5z M62.2,73.5
		c-1.5,0-2.7-1.2-2.7-2.7c0-1.5,1.2-2.7,2.7-2.7c1.5,0,2.7,1.2,2.7,2.7S63.7,73.5,62.2,73.5z M68.3,62.3H56.9V40.9h11.4V62.3z
		 M71.7,73.5c-1.5,0-2.7-1.2-2.7-2.7c0-1.5,1.2-2.7,2.7-2.7s2.7,1.2,2.7,2.7S73.2,73.5,71.7,73.5z M81.2,73.5
		c-1.5,0-2.7-1.2-2.7-2.7c0-1.5,1.2-2.7,2.7-2.7c1.5,0,2.7,1.2,2.7,2.7C83.9,72.3,82.7,73.5,81.2,73.5z M85.3,62.3H73.9V40.9h11.4
		V62.3z"/>
	<path class="st25" d="M68,34.6c1.3,0,2-0.9,2-2.6c0-1.7-0.7-2.6-2-2.6c-0.7,0-1.2,0.2-1.5,0.7c-0.3,0.4-0.5,1.1-0.5,2
		s0.2,1.5,0.5,2C66.9,34.4,67.4,34.6,68,34.6z"/>
	<path class="st25" d="M76.7,31.3c0.2-0.2,0.4-0.4,0.4-0.8s-0.1-0.6-0.4-0.8c-0.2-0.1-0.6-0.2-1.2-0.2H75v2.1h0.5
		C76,31.5,76.4,31.5,76.7,31.3z"/>
	<polygon class="st25" points="80.5,28.1 85,28.1 85,29.5 82.2,29.5 82.2,31.2 84.8,31.2 84.8,32.5 82.2,32.5 82.2,34.5 85,34.5 
		85,35.9 80.5,35.9 	"/>
	<path class="st25" d="M73.3,28.1h2.3c1.1,0,1.8,0.2,2.4,0.6c0.5,0.4,0.8,1,0.8,1.7c0,0.5-0.1,0.9-0.4,1.2c-0.2,0.4-0.6,0.6-1.1,0.8
		c1.2,1.7,1.9,2.9,2.3,3.4h-1.8l-1.9-3H75v3h-1.6L73.3,28.1L73.3,28.1z"/>
	<polygon class="st25" points="57.6,28.1 63.5,28.1 63.5,29.5 61.4,29.5 61.4,35.9 59.7,35.9 59.7,29.5 57.6,29.5 	"/>
	<path class="st25" d="M56.2,35.4C55.7,35.8,55,36,54.1,36c-0.8,0-1.6-0.1-2.2-0.5V34c0.5,0.2,1,0.4,1.3,0.5c0.4,0.1,0.7,0.1,1,0.1
		c0.4,0,0.6-0.1,0.8-0.2c0.2-0.1,0.3-0.3,0.3-0.6c0-0.1,0-0.3-0.1-0.4s-0.2-0.2-0.4-0.3c-0.2-0.1-0.5-0.3-1-0.5
		c-0.5-0.2-0.8-0.4-1.1-0.6c-0.2-0.2-0.4-0.4-0.6-0.7c-0.1-0.3-0.2-0.6-0.2-1c0-0.7,0.2-1.2,0.7-1.6c0.5-0.4,1.1-0.6,1.9-0.6
		c0.4,0,0.8,0,1.2,0.1c0.4,0.1,0.8,0.2,1.2,0.4l-0.5,1.3c-0.4-0.2-0.8-0.3-1-0.4c-0.3-0.1-0.5-0.1-0.8-0.1c-0.3,0-0.5,0.1-0.7,0.2
		c-0.2,0.1-0.2,0.3-0.2,0.6c0,0.1,0,0.3,0.1,0.4c0.1,0.1,0.2,0.2,0.3,0.3c0.1,0.1,0.5,0.3,1.1,0.5c0.7,0.3,1.2,0.7,1.5,1.1
		c0.3,0.3,0.4,0.8,0.4,1.3C56.9,34.4,56.7,35,56.2,35.4z"/>
	<polygon class="st1" points="80.5,28.1 85,28.1 85,29.5 82.2,29.5 82.2,31.2 84.8,31.2 84.8,32.5 82.2,32.5 82.2,34.5 85,34.5 
		85,35.9 80.5,35.9 	"/>
	<path class="st1" d="M73.3,28.1h2.3c1.1,0,1.8,0.2,2.4,0.6c0.5,0.4,0.8,1,0.8,1.7c0,0.5-0.1,0.9-0.4,1.2c-0.2,0.4-0.6,0.6-1.1,0.8
		c1.2,1.7,1.9,2.9,2.3,3.4h-1.8l-1.9-3H75v3h-1.6L73.3,28.1L73.3,28.1z"/>
	<path class="st1" d="M65.3,29c0.6-0.7,1.5-1,2.8-1s2.1,0.3,2.8,1s1,1.7,1,3c0,1.3-0.3,2.3-1,3s-1.5,1-2.8,1c-1.2,0-2.1-0.3-2.8-1
		c-0.6-0.7-1-1.7-1-3C64.3,30.7,64.6,29.7,65.3,29z"/>
	<polygon class="st1" points="57.6,28.1 63.5,28.1 63.5,29.5 61.4,29.5 61.4,35.9 59.7,35.9 59.7,29.5 57.6,29.5 	"/>
	<path class="st1" d="M56.2,35.4C55.7,35.8,55,36,54.1,36c-0.8,0-1.6-0.1-2.2-0.5V34c0.5,0.2,1,0.4,1.3,0.5c0.4,0.1,0.7,0.1,1,0.1
		c0.4,0,0.6-0.1,0.8-0.2c0.2-0.1,0.3-0.3,0.3-0.6c0-0.1,0-0.3-0.1-0.4s-0.2-0.2-0.4-0.3c-0.2-0.1-0.5-0.3-1-0.5
		c-0.5-0.2-0.8-0.4-1.1-0.6c-0.2-0.2-0.4-0.4-0.6-0.7c-0.1-0.3-0.2-0.6-0.2-1c0-0.7,0.2-1.2,0.7-1.6c0.5-0.4,1.1-0.6,1.9-0.6
		c0.4,0,0.8,0,1.2,0.1c0.4,0.1,0.8,0.2,1.2,0.4l-0.5,1.3c-0.4-0.2-0.8-0.3-1-0.4c-0.3-0.1-0.5-0.1-0.8-0.1c-0.3,0-0.5,0.1-0.7,0.2
		c-0.2,0.1-0.2,0.3-0.2,0.6c0,0.1,0,0.3,0.1,0.4c0.1,0.1,0.2,0.2,0.3,0.3c0.1,0.1,0.5,0.3,1.1,0.5c0.7,0.3,1.2,0.7,1.5,1.1
		c0.3,0.3,0.4,0.8,0.4,1.3C56.9,34.4,56.7,35,56.2,35.4z"/>
</g>
<g>
	
		<radialGradient id="SVGID_1_" cx="-110.1835" cy="240.0969" r="2.8254" gradientTransform="matrix(7.9635 0 0 -7.9635 954.9446 1934.507)" gradientUnits="userSpaceOnUse">
		<stop  offset="2.060000e-02" style="stop-color:#87CBC5"/>
		<stop  offset="1" style="stop-color:#37B39A"/>
	</radialGradient>
	<circle style="fill:url(#SVGID_1_);" cx="77.5" cy="22.5" r="22.5"/>
	<g>
		<path class="st8" d="M70.1,31.9l-6.6-7.5c-1-1.1-0.9-2.8,0.3-3.8c1.1-1,2.8-0.9,3.8,0.3l4.8,5.5l15.3-13.4c1.1-1,2.8-0.9,3.8,0.2
			c1,1.1,0.9,2.8-0.2,3.8L73.9,32.1C72.8,33.1,71.1,33,70.1,31.9L70.1,31.9z"/>
	</g>
</g>
</svg>
