<?xml version="1.0" encoding="utf-8"?>
<!-- Generator: Adobe Illustrator 24.0.1, SVG Export Plug-In . SVG Version: 6.00 Build 0)  -->
<svg version="1.1" id="Layer_1" xmlns="http://www.w3.org/2000/svg" xmlns:xlink="http://www.w3.org/1999/xlink" x="0px" y="0px"
	 viewBox="0 0 100 100" style="enable-background:new 0 0 100 100;" xml:space="preserve">
<style type="text/css">
	.st0{fill:#F4F5FB;}
	.st1{fill:#1B5690;}
	.st2{fill:#020203;}
	.st3{fill:#F28E29;}
</style>
<g>
	<rect class="st0" width="100" height="100"/>
	<g>
		<path class="st1" d="M88.1,29.8v-5.6H11.9v5.6h1.9v40.4h-1.9v5.6h76.2v-5.6h-1.9V29.8H88.1z M35.8,70.2H21.5v-28h14.4V70.2z
			 M41.8,42.6h9.2v17.3h-9.2V42.6L41.8,42.6z M44.5,69c-1.2,0-2.2-1-2.2-2.2c0-1.2,1-2.2,2.2-2.2s2.2,1,2.2,2.2
			C46.7,68,45.7,69,44.5,69z M52.2,69C51,69,50,68,50,66.8c0-1.2,1-2.2,2.2-2.2s2.2,1,2.2,2.2C54.4,68,53.4,69,52.2,69z M59.9,69
			c-1.2,0-2.2-1-2.2-2.2c0-1.2,1-2.2,2.2-2.2s2.2,1,2.2,2.2C62,68,61.1,69,59.9,69z M64.8,59.9h-9.2V42.6h9.2V59.9z M67.5,69
			c-1.2,0-2.2-1-2.2-2.2c0-1.2,1-2.2,2.2-2.2c1.2,0,2.2,1,2.2,2.2C69.7,68,68.8,69,67.5,69z M75.2,69C74,69,73,68,73,66.8
			c0-1.2,1-2.2,2.2-2.2c1.2,0,2.2,1,2.2,2.2C77.4,68,76.4,69,75.2,69z M78.5,59.9h-9.2V42.6h9.2V59.9z"/>
		<path class="st2" d="M64.6,37.5c1.1,0,1.6-0.7,1.6-2.1c0-1.4-0.6-2.1-1.6-2.1c-0.6,0-1,0.2-1.2,0.6c-0.2,0.3-0.4,0.9-0.4,1.6
			s0.2,1.2,0.4,1.6C63.7,37.4,64.1,37.5,64.6,37.5z"/>
		<path class="st2" d="M71.6,34.9c0.2-0.2,0.3-0.3,0.3-0.6c0-0.3-0.1-0.5-0.3-0.6c-0.2-0.1-0.5-0.2-1-0.2h-0.4v1.7h0.4
			C71,35,71.3,35,71.6,34.9z"/>
		<polygon class="st2" points="74.7,32.3 78.3,32.3 78.3,33.4 76,33.4 76,34.8 78.1,34.8 78.1,35.8 76,35.8 76,37.5 78.3,37.5 
			78.3,38.6 74.7,38.6 		"/>
		<path class="st2" d="M68.8,32.3h1.9c0.9,0,1.5,0.2,1.9,0.5c0.4,0.3,0.6,0.8,0.6,1.4c0,0.4-0.1,0.7-0.3,1c-0.2,0.3-0.5,0.5-0.9,0.6
			c1,1.4,1.5,2.3,1.9,2.7h-1.5l-1.5-2.4h-0.7v2.4h-1.3L68.8,32.3L68.8,32.3z"/>
		<polygon class="st2" points="56.1,32.3 60.9,32.3 60.9,33.4 59.2,33.4 59.2,38.6 57.8,38.6 57.8,33.4 56.1,33.4 		"/>
		<path class="st2" d="M55,38.2c-0.4,0.3-1,0.5-1.7,0.5c-0.6,0-1.3-0.1-1.8-0.4v-1.2c0.4,0.2,0.8,0.3,1.1,0.4
			c0.3,0.1,0.6,0.1,0.8,0.1c0.3,0,0.5-0.1,0.6-0.2c0.2-0.1,0.2-0.2,0.2-0.5c0-0.1,0-0.2-0.1-0.3c-0.1-0.1-0.2-0.2-0.3-0.2
			c-0.2-0.1-0.4-0.2-0.8-0.4c-0.4-0.2-0.6-0.3-0.9-0.5c-0.2-0.2-0.3-0.3-0.5-0.6c-0.1-0.2-0.2-0.5-0.2-0.8c0-0.6,0.2-1,0.6-1.3
			c0.4-0.3,0.9-0.5,1.5-0.5c0.3,0,0.6,0,1,0.1c0.3,0.1,0.6,0.2,1,0.3l-0.4,1.1c-0.3-0.2-0.6-0.2-0.8-0.3c-0.2-0.1-0.4-0.1-0.6-0.1
			s-0.4,0.1-0.6,0.2C53,33.6,53,33.7,53,34c0,0.1,0,0.2,0.1,0.3c0.1,0.1,0.2,0.2,0.2,0.2c0.1,0.1,0.4,0.2,0.9,0.4
			c0.6,0.2,1,0.6,1.2,0.9c0.2,0.2,0.3,0.6,0.3,1.1C55.6,37.4,55.4,37.9,55,38.2z"/>
		<polygon class="st3" points="74.7,32.3 78.3,32.3 78.3,33.4 76,33.4 76,34.8 78.1,34.8 78.1,35.8 76,35.8 76,37.5 78.3,37.5 
			78.3,38.6 74.7,38.6 		"/>
		<path class="st3" d="M68.8,32.3h1.9c0.9,0,1.5,0.2,1.9,0.5c0.4,0.3,0.6,0.8,0.6,1.4c0,0.4-0.1,0.7-0.3,1c-0.2,0.3-0.5,0.5-0.9,0.6
			c1,1.4,1.5,2.3,1.9,2.7h-1.5l-1.5-2.4h-0.7v2.4h-1.3L68.8,32.3L68.8,32.3z"/>
		<path class="st3" d="M62.4,33c0.5-0.6,1.2-0.8,2.3-0.8s1.7,0.2,2.3,0.8c0.6,0.6,0.8,1.4,0.8,2.4c0,1.1-0.2,1.9-0.8,2.4
			c-0.6,0.6-1.2,0.8-2.3,0.8c-1,0-1.7-0.2-2.3-0.8c-0.5-0.6-0.8-1.4-0.8-2.4C61.6,34.4,61.8,33.6,62.4,33z"/>
		<polygon class="st3" points="56.1,32.3 60.9,32.3 60.9,33.4 59.2,33.4 59.2,38.6 57.8,38.6 57.8,33.4 56.1,33.4 		"/>
		<path class="st3" d="M55,38.2c-0.4,0.3-1,0.5-1.7,0.5c-0.6,0-1.3-0.1-1.8-0.4v-1.2c0.4,0.2,0.8,0.3,1.1,0.4
			c0.3,0.1,0.6,0.1,0.8,0.1c0.3,0,0.5-0.1,0.6-0.2c0.2-0.1,0.2-0.2,0.2-0.5c0-0.1,0-0.2-0.1-0.3c-0.1-0.1-0.2-0.2-0.3-0.2
			c-0.2-0.1-0.4-0.2-0.8-0.4c-0.4-0.2-0.6-0.3-0.9-0.5c-0.2-0.2-0.3-0.3-0.5-0.6c-0.1-0.2-0.2-0.5-0.2-0.8c0-0.6,0.2-1,0.6-1.3
			c0.4-0.3,0.9-0.5,1.5-0.5c0.3,0,0.6,0,1,0.1c0.3,0.1,0.6,0.2,1,0.3l-0.4,1.1c-0.3-0.2-0.6-0.2-0.8-0.3c-0.2-0.1-0.4-0.1-0.6-0.1
			s-0.4,0.1-0.6,0.2C53,33.6,53,33.7,53,34c0,0.1,0,0.2,0.1,0.3c0.1,0.1,0.2,0.2,0.2,0.2c0.1,0.1,0.4,0.2,0.9,0.4
			c0.6,0.2,1,0.6,1.2,0.9c0.2,0.2,0.3,0.6,0.3,1.1C55.6,37.4,55.4,37.9,55,38.2z"/>
	</g>
</g>
</svg>
