<?xml version="1.0" encoding="utf-8"?>
<!-- Generator: Adobe Illustrator 24.0.1, SVG Export Plug-In . SVG Version: 6.00 Build 0)  -->
<svg version="1.1" id="Layer_1" xmlns="http://www.w3.org/2000/svg" xmlns:xlink="http://www.w3.org/1999/xlink" x="0px" y="0px"
	 viewBox="0 0 100 100" style="enable-background:new 0 0 100 100;" xml:space="preserve">
<style type="text/css">
	.st0{fill:#1B5690;}
	.st1{fill:#F28E29;}
	.st2{fill:#E30613;}
	.st3{fill:#2FAC66;}
	.st4{fill:#F9B233;}
	.st5{fill:url(#SVGID_1_);stroke:#432918;stroke-width:0.25;stroke-miterlimit:10;}
	.st6{fill:url(#SVGID_2_);}
	.st7{fill:#F5AEBF;}
	.st8{fill:#FFFFFF;}
	.st9{fill:url(#SVGID_3_);stroke:#432918;stroke-width:0.25;stroke-miterlimit:10;}
	.st10{fill:url(#SVGID_4_);stroke:#432918;stroke-width:0.25;stroke-miterlimit:10;}
	.st11{fill:url(#SVGID_5_);}
	.st12{fill:url(#SVGID_6_);}
	.st13{fill:url(#SVGID_7_);stroke:#432918;stroke-width:0.25;stroke-miterlimit:10;}
	.st14{fill:url(#SVGID_8_);}
	.st15{fill:url(#SVGID_9_);}
	.st16{fill:url(#SVGID_10_);stroke:#432918;stroke-width:0.25;stroke-miterlimit:10;}
	.st17{fill:url(#SVGID_11_);}
	.st18{fill:url(#SVGID_12_);}
	.st19{fill:url(#SVGID_13_);}
	.st20{fill:#B3DCDA;}
	.st21{fill:url(#SVGID_14_);stroke:#432918;stroke-width:0.25;stroke-miterlimit:10;}
	.st22{fill:url(#SVGID_15_);stroke:#432918;stroke-width:0.25;stroke-miterlimit:10;}
	.st23{fill:url(#SVGID_16_);}
	.st24{fill:url(#SVGID_17_);}
	.st25{fill:none;stroke:#F28E29;stroke-miterlimit:10;}
	.st26{fill:none;stroke:#1B5690;stroke-miterlimit:10;}
	.st27{fill:url(#SVGID_18_);}
	.st28{fill:url(#SVGID_19_);}
</style>
<g>
	<path class="st25" d="M4.6,13.6h20.1v20.2H4.6V13.6z"/>
	<path class="st26" d="M31.1,13.6h64.4v20.2H31.1V13.6z"/>
	<path class="st25" d="M4.6,39.9h20.1v20.2H4.6V39.9z"/>
	<path class="st26" d="M31.1,39.9h64.4v20.2H31.1V39.9z"/>
	<path class="st25" d="M4.6,66.1h20.1v20.2H4.6V66.1z"/>
	<path class="st26" d="M31.1,66.1h64.4v20.2H31.1V66.1z"/>
</g>
<g>
	
		<radialGradient id="SVGID_1_" cx="-110.2026" cy="240.0777" r="2.8254" gradientTransform="matrix(7.9635 0 0 -7.9635 954.9446 1934.507)" gradientUnits="userSpaceOnUse">
		<stop  offset="2.060000e-02" style="stop-color:#87CBC5"/>
		<stop  offset="1" style="stop-color:#37B39A"/>
	</radialGradient>
	<circle style="fill:url(#SVGID_1_);" cx="77.3" cy="22.7" r="22.5"/>
	<g>
		<path class="st8" d="M70,32l-6.6-7.5c-1-1.1-0.9-2.8,0.3-3.8c1.1-1,2.8-0.9,3.8,0.3l4.8,5.5L87.5,13c1.1-1,2.8-0.9,3.8,0.2
			c1,1.1,0.9,2.8-0.2,3.8L73.8,32.3C72.7,33.2,71,33.1,70,32L70,32z"/>
	</g>
</g>
</svg>
