<?xml version="1.0" encoding="utf-8"?>
<!-- Generator: Adobe Illustrator 24.0.1, SVG Export Plug-In . SVG Version: 6.00 Build 0)  -->
<svg version="1.1" id="Layer_1" xmlns="http://www.w3.org/2000/svg" xmlns:xlink="http://www.w3.org/1999/xlink" x="0px" y="0px"
	 viewBox="0 0 100 100" style="enable-background:new 0 0 100 100;" xml:space="preserve">
<style type="text/css">
	.st0{fill:#1B5690;}
	.st1{fill:#F28E29;}
	.st2{fill:#E30613;}
	.st3{fill:#2FAC66;}
	.st4{fill:#F9B233;}
	.st5{fill:url(#SVGID_1_);stroke:#432918;stroke-width:0.25;stroke-miterlimit:10;}
	.st6{fill:url(#SVGID_2_);}
	.st7{fill:#F5AEBF;}
	.st8{fill:#FFFFFF;}
	.st9{fill:url(#SVGID_3_);stroke:#432918;stroke-width:0.25;stroke-miterlimit:10;}
	.st10{fill:url(#SVGID_4_);}
	.st11{fill:url(#SVGID_5_);}
	.st12{fill:url(#SVGID_6_);stroke:#432918;stroke-width:0.25;stroke-miterlimit:10;}
	.st13{fill:url(#SVGID_7_);}
	.st14{fill:url(#SVGID_8_);}
	.st15{fill:url(#SVGID_9_);stroke:#432918;stroke-width:0.25;stroke-miterlimit:10;}
	.st16{fill:url(#SVGID_10_);}
	.st17{fill:url(#SVGID_11_);}
	.st18{fill:url(#SVGID_12_);}
	.st19{fill:#B3DCDA;}
	.st20{fill:url(#SVGID_13_);stroke:#432918;stroke-width:0.25;stroke-miterlimit:10;}
	.st21{fill:url(#SVGID_14_);stroke:#432918;stroke-width:0.25;stroke-miterlimit:10;}
	.st22{fill:url(#SVGID_15_);}
	.st23{fill:url(#SVGID_16_);}
	.st24{fill:none;stroke:#F28E29;stroke-miterlimit:10;}
	.st25{fill:none;stroke:#1B5690;stroke-miterlimit:10;}
	.st26{fill:url(#SVGID_17_);}
	.st27{fill:url(#SVGID_18_);}
	.st28{fill:url(#SVGID_19_);stroke:#432918;stroke-width:0.25;stroke-miterlimit:10;}
</style>
<g>
	<path class="st24" d="M4.6,13.6h20.1v20.2H4.6V13.6z"/>
	<path class="st25" d="M31.1,13.6h64.4v20.2H31.1V13.6z"/>
	<path class="st24" d="M4.6,39.9h20.1v20.2H4.6V39.9z"/>
	<path class="st25" d="M31.1,39.9h64.4v20.2H31.1V39.9z"/>
	<path class="st24" d="M4.6,66.1h20.1v20.2H4.6V66.1z"/>
	<path class="st25" d="M31.1,66.1h64.4v20.2H31.1V66.1z"/>
</g>
<g>
	<linearGradient id="SVGID_1_" gradientUnits="userSpaceOnUse" x1="55" y1="22.5" x2="100" y2="22.5">
		<stop  offset="0" style="stop-color:#FFEF26"/>
		<stop  offset="5.948725e-02" style="stop-color:#FFE000"/>
		<stop  offset="0.1303" style="stop-color:#FFD300"/>
		<stop  offset="0.2032" style="stop-color:#FECB00"/>
		<stop  offset="0.2809" style="stop-color:#FDC800"/>
		<stop  offset="0.6685" style="stop-color:#F18F34"/>
		<stop  offset="0.8876" style="stop-color:#E95F32"/>
		<stop  offset="1" style="stop-color:#E3312D"/>
	</linearGradient>
	<circle class="st5" cx="77.5" cy="22.5" r="22.5"/>
	<g>
		<path class="st8" d="M78.6,5l3.6,10.9c0.1,0.4,0.6,0.7,1.1,0.7H95c1.1,0,1.5,1.3,0.7,1.9l-9.6,6.9c-0.4,0.3-0.5,0.7-0.4,1.1
			l3.6,11c0.3,1-0.9,1.8-1.8,1.1L78.2,32c-0.4-0.3-1-0.3-1.4,0l-9.4,6.7c-0.9,0.6-2.1-0.2-1.8-1.1l3.6-11c0.1-0.4,0-0.9-0.4-1.1
			l-9.6-6.9c-0.9-0.6-0.4-1.9,0.7-1.9h11.7c0.5,0,0.9-0.3,1.1-0.7L76.4,5C76.8,4,78.2,4,78.6,5z"/>
	</g>
</g>
</svg>
