<?xml version="1.0" encoding="utf-8"?>
<!-- Generator: Adobe Illustrator 24.0.1, SVG Export Plug-In . SVG Version: 6.00 Build 0)  -->
<svg version="1.1" id="Layer_1" xmlns="http://www.w3.org/2000/svg" xmlns:xlink="http://www.w3.org/1999/xlink" x="0px" y="0px"
	 viewBox="0 0 100 100" style="enable-background:new 0 0 100 100;" xml:space="preserve">
<style type="text/css">
	.st0{fill:#1B5690;}
	.st1{fill:#F28E29;}
	.st2{fill:#E30613;}
	.st3{fill:#2FAC66;}
	.st4{fill:#F9B233;}
	.st5{fill:url(#SVGID_1_);stroke:#432918;stroke-width:0.25;stroke-miterlimit:10;}
	.st6{fill:url(#SVGID_2_);}
	.st7{fill:#F5AEBF;}
	.st8{fill:#FFFFFF;}
	.st9{fill:url(#SVGID_3_);stroke:#432918;stroke-width:0.25;stroke-miterlimit:10;}
	.st10{fill:url(#SVGID_4_);}
	.st11{fill:url(#SVGID_5_);stroke:#432918;stroke-width:0.25;stroke-miterlimit:10;}
	.st12{fill:url(#SVGID_6_);}
	.st13{fill:url(#SVGID_7_);}
	.st14{fill:url(#SVGID_8_);}
	.st15{fill:url(#SVGID_9_);stroke:#432918;stroke-width:0.25;stroke-miterlimit:10;}
	.st16{fill:url(#SVGID_10_);}
	.st17{fill:url(#SVGID_11_);}
	.st18{fill:url(#SVGID_12_);stroke:#432918;stroke-width:0.25;stroke-miterlimit:10;}
	.st19{fill:url(#SVGID_13_);}
	.st20{fill:url(#SVGID_14_);}
	.st21{fill:url(#SVGID_15_);}
	.st22{fill:#B3DCDA;}
	.st23{fill:url(#SVGID_16_);stroke:#432918;stroke-width:0.25;stroke-miterlimit:10;}
	.st24{fill:url(#SVGID_17_);stroke:#432918;stroke-width:0.25;stroke-miterlimit:10;}
	.st25{fill:url(#SVGID_18_);}
	.st26{fill:url(#SVGID_19_);}
	.st27{fill:none;stroke:#F28E29;stroke-miterlimit:10;}
	.st28{fill:none;stroke:#1B5690;stroke-miterlimit:10;}
	.st29{fill:url(#SVGID_20_);}
</style>
<g>
	<path class="st27" d="M4.6,13.6h20.1v20.2H4.6V13.6z"/>
	<path class="st28" d="M31.1,13.6h64.4v20.2H31.1V13.6z"/>
	<path class="st27" d="M4.6,39.9h20.1v20.2H4.6V39.9z"/>
	<path class="st28" d="M31.1,39.9h64.4v20.2H31.1V39.9z"/>
	<path class="st27" d="M4.6,66.1h20.1v20.2H4.6V66.1z"/>
	<path class="st28" d="M31.1,66.1h64.4v20.2H31.1V66.1z"/>
</g>
<g>
	
		<radialGradient id="SVGID_1_" cx="-293.3425" cy="-729.9247" r="102.1702" gradientTransform="matrix(0.2202 0 0 -0.2202 140.8986 -137.9938)" gradientUnits="userSpaceOnUse">
		<stop  offset="0" style="stop-color:#F0859D"/>
		<stop  offset="0.9788" style="stop-color:#E83C5F"/>
	</radialGradient>
	<circle style="fill:url(#SVGID_1_);" cx="76.3" cy="22.8" r="22.5"/>
	<path class="st8" d="M81,22.8l8.5-8.5c1.3-1.3,1.3-3.4,0-4.7c-1.3-1.3-3.4-1.3-4.7,0l-8.5,8.5l-8.5-8.5c-1.3-1.3-3.4-1.3-4.7,0
		c-1.3,1.3-1.3,3.4,0,4.7l8.5,8.5l-8.5,8.5c-1.3,1.3-1.3,3.4,0,4.7c0.6,0.6,1.5,1,2.3,1s1.7-0.3,2.3-1l8.5-8.5l8.5,8.5
		c0.6,0.6,1.5,1,2.3,1s1.7-0.3,2.3-1c1.3-1.3,1.3-3.4,0-4.7L81,22.8z"/>
</g>
</svg>
