<?xml version="1.0" encoding="utf-8"?>
<!-- Generator: Adobe Illustrator 24.0.1, SVG Export Plug-In . SVG Version: 6.00 Build 0)  -->
<svg version="1.1" id="Layer_1" xmlns="http://www.w3.org/2000/svg" xmlns:xlink="http://www.w3.org/1999/xlink" x="0px" y="0px"
	 viewBox="0 0 100 100" style="enable-background:new 0 0 100 100;" xml:space="preserve">
<style type="text/css">
	.st0{fill:#1B5690;}
	.st1{fill:#F28E29;}
	.st2{fill:#E30613;}
	.st3{fill:#2FAC66;}
	.st4{fill:#F9B233;}
	.st5{fill:url(#SVGID_1_);stroke:#432918;stroke-width:0.25;stroke-miterlimit:10;}
	.st6{fill:url(#SVGID_2_);}
	.st7{fill:#F5AEBF;}
	.st8{fill:#FFFFFF;}
	.st9{fill:url(#SVGID_3_);stroke:#432918;stroke-width:0.25;stroke-miterlimit:10;}
	.st10{fill:url(#SVGID_4_);}
	.st11{fill:url(#SVGID_5_);}
	.st12{fill:url(#SVGID_6_);stroke:#432918;stroke-width:0.25;stroke-miterlimit:10;}
	.st13{fill:url(#SVGID_7_);}
	.st14{fill:url(#SVGID_8_);}
	.st15{fill:url(#SVGID_9_);stroke:#432918;stroke-width:0.25;stroke-miterlimit:10;}
	.st16{fill:url(#SVGID_10_);}
	.st17{fill:url(#SVGID_11_);}
	.st18{fill:url(#SVGID_12_);}
	.st19{fill:#B3DCDA;}
	.st20{fill:url(#SVGID_13_);stroke:#432918;stroke-width:0.25;stroke-miterlimit:10;}
	.st21{fill:url(#SVGID_14_);}
	.st22{fill:url(#SVGID_15_);}
	.st23{fill:none;stroke:#F28E29;stroke-miterlimit:10;}
	.st24{fill:none;stroke:#1B5690;stroke-miterlimit:10;}
	.st25{fill:url(#SVGID_16_);}
	.st26{fill:url(#SVGID_17_);}
	.st27{fill:url(#SVGID_18_);stroke:#432918;stroke-width:0.25;stroke-miterlimit:10;}
</style>
<g>
	<g>
		<g>
			<path class="st0" d="M88.2,47.4H46.4c-4.3,0-7.8-3.3-7.8-7.3s3.5-7.3,7.8-7.3h41.7c4.3,0,7.8,3.3,7.8,7.3S92.5,47.4,88.2,47.4z
				 M46.4,36.3c-2.3,0-4.2,1.7-4.2,3.9s1.9,3.9,4.2,3.9h41.7c2.3,0,4.2-1.7,4.2-3.9s-1.9-3.9-4.2-3.9H46.4z"/>
		</g>
	</g>
	<g>
		<g>
			<path class="st1" d="M88.2,67.1H11.8c-4.3,0-7.8-3.3-7.8-7.3s3.5-7.3,7.8-7.3h76.3c4.3,0,7.8,3.3,7.8,7.3S92.5,67.1,88.2,67.1z
				 M11.8,55.9c-2.3,0-4.2,1.7-4.2,3.9s1.9,3.9,4.2,3.9h76.3c2.3,0,4.2-1.7,4.2-3.9S90.5,56,88.2,56L11.8,55.9L11.8,55.9z"/>
		</g>
	</g>
	<g>
		<g>
			<path class="st0" d="M88.2,27.8H46.4c-4.3,0-7.8-3.3-7.8-7.3s3.5-7.3,7.8-7.3h41.7c4.3,0,7.8,3.3,7.8,7.3S92.5,27.8,88.2,27.8z
				 M46.4,16.6c-2.3,0-4.2,1.7-4.2,3.9s1.9,3.9,4.2,3.9h41.7c2.3,0,4.2-1.7,4.2-3.9s-1.9-3.9-4.2-3.9C88.2,16.6,46.4,16.6,46.4,16.6
				z"/>
		</g>
	</g>
	<g>
		<g>
			<path class="st1" d="M88.2,86.8H11.8c-4.3,0-7.8-3.3-7.8-7.3c0-4,3.5-7.3,7.8-7.3h76.3c4.3,0,7.8,3.3,7.8,7.3
				C96,83.5,92.5,86.8,88.2,86.8z M11.8,75.6c-2.3,0-4.2,1.7-4.2,3.9c0,2.1,1.9,3.9,4.2,3.9h76.3c2.3,0,4.2-1.7,4.2-3.9
				c0-2.1-1.9-3.9-4.2-3.9H11.8L11.8,75.6z"/>
		</g>
	</g>
	<g>
		<path class="st1" d="M60.8,21.6h-14c-1,0-1.8-0.8-1.8-1.7s0.8-1.7,1.8-1.7h14c1,0,1.8,0.8,1.8,1.7S61.8,21.6,60.8,21.6z"/>
	</g>
	<g>
		<path class="st1" d="M69.3,21.6h-2.5c-1,0-1.8-0.8-1.8-1.7s0.8-1.7,1.8-1.7h2.5c1,0,1.8,0.8,1.8,1.7S70.3,21.6,69.3,21.6z"/>
	</g>
	<g>
		<g>
			<path class="st0" d="M21.1,38.7c-1,0-1.8-0.8-1.8-1.7V14.9c0-0.9,0.8-1.7,1.8-1.7c1,0,1.8,0.8,1.8,1.7V37
				C22.9,37.9,22.1,38.7,21.1,38.7z"/>
		</g>
		<g>
			<path class="st0" d="M21.1,47.4c-0.5,0-0.9-0.2-1.3-0.5l-12.8-12c-0.7-0.7-0.7-1.7,0-2.4c0.7-0.7,1.9-0.7,2.6,0l11.5,10.8
				l11.5-10.8c0.7-0.7,1.9-0.7,2.6,0c0.7,0.7,0.7,1.7,0,2.4l-12.8,12C22,47.3,21.6,47.4,21.1,47.4z"/>
		</g>
	</g>
</g>
<g>
	<linearGradient id="SVGID_1_" gradientUnits="userSpaceOnUse" x1="55" y1="22.5" x2="100" y2="22.5">
		<stop  offset="0" style="stop-color:#FFEF26"/>
		<stop  offset="5.948725e-02" style="stop-color:#FFE000"/>
		<stop  offset="0.1303" style="stop-color:#FFD300"/>
		<stop  offset="0.2032" style="stop-color:#FECB00"/>
		<stop  offset="0.2809" style="stop-color:#FDC800"/>
		<stop  offset="0.6685" style="stop-color:#F18F34"/>
		<stop  offset="0.8876" style="stop-color:#E95F32"/>
		<stop  offset="1" style="stop-color:#E3312D"/>
	</linearGradient>
	<circle class="st5" cx="77.5" cy="22.5" r="22.5"/>
	<g>
		<path class="st8" d="M78.6,5l3.6,10.9c0.1,0.4,0.6,0.7,1.1,0.7H95c1.1,0,1.5,1.3,0.7,1.9l-9.6,6.9c-0.4,0.3-0.5,0.7-0.4,1.1
			l3.6,11c0.3,1-0.9,1.8-1.8,1.1L78.2,32c-0.4-0.3-1-0.3-1.4,0l-9.4,6.7c-0.9,0.6-2.1-0.2-1.8-1.1l3.6-11c0.1-0.4,0-0.9-0.4-1.1
			l-9.6-6.9c-0.9-0.6-0.4-1.9,0.7-1.9h11.7c0.5,0,0.9-0.3,1.1-0.7L76.4,5C76.8,4,78.2,4,78.6,5z"/>
	</g>
</g>
</svg>
