<?xml version="1.0" encoding="utf-8"?>
<!-- Generator: Adobe Illustrator 24.0.1, SVG Export Plug-In . SVG Version: 6.00 Build 0)  -->
<svg version="1.1" id="Layer_1" xmlns="http://www.w3.org/2000/svg" xmlns:xlink="http://www.w3.org/1999/xlink" x="0px" y="0px"
	 viewBox="0 0 100 100" style="enable-background:new 0 0 100 100;" xml:space="preserve">
<style type="text/css">
	.st0{fill:#F3F5FB;}
	.st1{fill:#1B5690;}
	.st2{fill:#F28E29;}
	.st3{fill:#E30613;}
	.st4{fill:#F9B233;}
	.st5{fill:url(#SVGID_1_);stroke:#432918;stroke-width:0.25;stroke-miterlimit:10;}
	.st6{fill:url(#SVGID_2_);}
	.st7{fill:#F5AEBF;}
	.st8{fill:#FFFFFF;}
	.st9{fill:url(#SVGID_3_);stroke:#432918;stroke-width:0.25;stroke-miterlimit:10;}
	.st10{fill:url(#SVGID_4_);}
	.st11{fill:url(#SVGID_5_);}
	.st12{fill:url(#SVGID_6_);stroke:#432918;stroke-width:0.25;stroke-miterlimit:10;}
	.st13{fill:url(#SVGID_7_);}
	.st14{fill:url(#SVGID_8_);}
	.st15{fill:url(#SVGID_9_);stroke:#432918;stroke-width:0.25;stroke-miterlimit:10;}
	.st16{fill:url(#SVGID_10_);}
	.st17{fill:url(#SVGID_11_);}
	.st18{fill:url(#SVGID_12_);}
	.st19{fill:#B3DCDA;}
	.st20{fill:url(#SVGID_13_);stroke:#432918;stroke-width:0.25;stroke-miterlimit:10;}
	.st21{fill:url(#SVGID_14_);}
	.st22{fill:url(#SVGID_15_);}
	.st23{fill:none;stroke:#F28E29;stroke-miterlimit:10;}
	.st24{fill:none;stroke:#1B5690;stroke-miterlimit:10;}
	.st25{fill:#020203;}
	.st26{fill:#F9B259;}
	.st27{fill:#1F2D53;}
	.st28{fill:url(#SVGID_16_);}
	.st29{fill:url(#SVGID_17_);}
	.st30{fill:url(#SVGID_18_);stroke:#432918;stroke-width:0.25;stroke-miterlimit:10;}
</style>
<g>
	<path class="st1" d="M50.1,10c-10.9,0-19.7,9.3-19.7,20.7c0,11.4,8.8,20.7,19.7,20.7c10.9,0,19.7-9.3,19.7-20.7
		C69.8,19.3,60.9,10,50.1,10z M50.1,44.6c-7.3,0-13.3-6.2-13.3-13.9c0-7.7,5.9-13.9,13.3-13.9c7.3,0,13.3,6.2,13.3,13.9
		C63.3,38.4,57.4,44.6,50.1,44.6z"/>
	<path class="st2" d="M19,32.1c-6.8,0-12.4,5.8-12.4,13c0,7.2,5.6,13,12.4,13c6.8,0,12.4-5.8,12.4-13C31.4,38,25.8,32.1,19,32.1z
		 M19,51.4c-3.3,0-6-2.8-6-6.3c0-3.5,2.7-6.3,6-6.3c3.3,0,6,2.8,6,6.3C25,48.6,22.3,51.4,19,51.4z"/>
	<path class="st2" d="M81,32.1c-6.8,0-12.4,5.8-12.4,13c0,7.2,5.6,13,12.4,13c6.8,0,12.4-5.8,12.4-13C93.4,38,87.8,32.1,81,32.1z
		 M81,51.4c-3.3,0-6-2.8-6-6.3c0-3.5,2.7-6.3,6-6.3c3.3,0,6,2.8,6,6.3C87,48.6,84.3,51.4,81,51.4z"/>
	<path class="st1" d="M100,70.7v5.6c0,1.9-1.4,3.4-3.2,3.4s-3.2-1.5-3.2-3.4v-5.6c0-0.6-0.3-1.1-0.8-1.4l-5.5-2.6H76.7
		c2.9,2.3,4.7,5.9,4.7,9.8v10c0,1.9-1.4,3.4-3.2,3.4S75,88.5,75,86.6v-10c0-2.1-1.2-4-3-4.9l-10.4-4.9h-0.9c-4.3,9.2-17,9.2-21.3,0
		h-0.9L28,71.7c-1.8,0.9-3,2.8-3,4.9v10c0,1.9-1.4,3.4-3.2,3.4c-1.8,0-3.2-1.5-3.2-3.4v-10c0-3.9,1.8-7.5,4.7-9.8H12.8l-5.5,2.6
		c-0.5,0.2-0.8,0.8-0.8,1.4v5.6c0,1.9-1.4,3.4-3.2,3.4S0,78.2,0,76.3v-5.6c0-3.3,1.8-6.2,4.7-7.5c6.7-3.2,6.6-3.2,7.5-3.2
		c14.8,0,14.1-0.1,15,0.3l4.7,2.2l4.7-2.2c0.8-0.4,1-0.3,5.1-0.3c1.5,0,2.8,1.1,3.1,2.6c1.4,5.8,9.2,5.8,10.6,0
		c0.4-1.5,1.6-2.6,3.1-2.6h3.8c0.9,0,0.9,0.1,6,2.5c5.1-2.4,5.1-2.5,6-2.5c14.8,0,14.1-0.1,15,0.3l6.2,2.9
		C98.2,64.5,100,67.5,100,70.7L100,70.7z"/>
</g>
<g>
	
		<radialGradient id="SVGID_1_" cx="-110.1835" cy="240.0969" r="2.8254" gradientTransform="matrix(7.9635 0 0 -7.9635 954.9446 1934.507)" gradientUnits="userSpaceOnUse">
		<stop  offset="2.060000e-02" style="stop-color:#87CBC5"/>
		<stop  offset="1" style="stop-color:#37B39A"/>
	</radialGradient>
	<circle style="fill:url(#SVGID_1_);" cx="77.5" cy="22.5" r="22.5"/>
	<g>
		<path class="st8" d="M70.1,31.9l-6.6-7.5c-1-1.1-0.9-2.8,0.3-3.8c1.1-1,2.8-0.9,3.8,0.3l4.8,5.5l15.3-13.4c1.1-1,2.8-0.9,3.8,0.2
			c1,1.1,0.9,2.8-0.2,3.8L73.9,32.1C72.8,33.1,71.1,33,70.1,31.9L70.1,31.9z"/>
	</g>
</g>
</svg>
