<?xml version="1.0" encoding="utf-8"?>
<!-- Generator: Adobe Illustrator 24.0.1, SVG Export Plug-In . SVG Version: 6.00 Build 0)  -->
<svg version="1.1" id="Layer_1" xmlns="http://www.w3.org/2000/svg" xmlns:xlink="http://www.w3.org/1999/xlink" x="0px" y="0px"
	 viewBox="0 0 100 100" style="enable-background:new 0 0 100 100;" xml:space="preserve">
<style type="text/css">
	.st0{fill:#F3F5FB;}
	.st1{fill:#1B5690;}
	.st2{fill:#F28E29;}
	.st3{fill:#E30613;}
	.st4{fill:#F9B233;}
	.st5{fill:url(#SVGID_1_);stroke:#432918;stroke-width:0.25;stroke-miterlimit:10;}
	.st6{fill:url(#SVGID_2_);}
	.st7{fill:#F5AEBF;}
	.st8{fill:#FFFFFF;}
	.st9{fill:url(#SVGID_3_);stroke:#432918;stroke-width:0.25;stroke-miterlimit:10;}
	.st10{fill:url(#SVGID_4_);}
	.st11{fill:url(#SVGID_5_);}
	.st12{fill:url(#SVGID_6_);stroke:#432918;stroke-width:0.25;stroke-miterlimit:10;}
	.st13{fill:url(#SVGID_7_);}
	.st14{fill:url(#SVGID_8_);}
	.st15{fill:url(#SVGID_9_);stroke:#432918;stroke-width:0.25;stroke-miterlimit:10;}
	.st16{fill:url(#SVGID_10_);}
	.st17{fill:url(#SVGID_11_);}
	.st18{fill:url(#SVGID_12_);}
	.st19{fill:#B3DCDA;}
	.st20{fill:url(#SVGID_13_);stroke:#432918;stroke-width:0.25;stroke-miterlimit:10;}
	.st21{fill:url(#SVGID_14_);}
	.st22{fill:url(#SVGID_15_);}
	.st23{fill:none;stroke:#F28E29;stroke-miterlimit:10;}
	.st24{fill:none;stroke:#1B5690;stroke-miterlimit:10;}
	.st25{fill:#020203;}
	.st26{fill:#F9B259;}
	.st27{fill:#1F2D53;}
	.st28{fill:url(#SVGID_16_);}
	.st29{fill:url(#SVGID_17_);}
	.st30{fill:url(#SVGID_18_);stroke:#432918;stroke-width:0.25;stroke-miterlimit:10;}
</style>
<rect class="st0" width="100" height="100"/>
<g>
	<path class="st1" d="M50.1,20.4c-8,0-14.6,6.9-14.6,15.3C35.5,44.2,42,51,50.1,51c8,0,14.6-6.9,14.6-15.3
		C64.6,27.3,58.1,20.4,50.1,20.4z M50.1,46c-5.4,0-9.8-4.6-9.8-10.3c0-5.7,4.4-10.3,9.8-10.3c5.4,0,9.8,4.6,9.8,10.3
		C59.9,41.4,55.5,46,50.1,46z"/>
	<path class="st2" d="M27.1,36.8c-5.1,0-9.2,4.3-9.2,9.6c0,5.3,4.1,9.6,9.2,9.6c5.1,0,9.2-4.3,9.2-9.6
		C36.3,41.1,32.1,36.8,27.1,36.8z M27.1,51.1c-2.4,0-4.4-2.1-4.4-4.6c0-2.6,2-4.6,4.4-4.6c2.4,0,4.4,2.1,4.4,4.6
		C31.5,49,29.5,51.1,27.1,51.1z"/>
	<path class="st2" d="M72.9,36.8c-5.1,0-9.2,4.3-9.2,9.6c0,5.3,4.1,9.6,9.2,9.6c5.1,0,9.2-4.3,9.2-9.6C82.1,41.1,78,36.8,72.9,36.8z
		 M72.9,51.1c-2.4,0-4.4-2.1-4.4-4.6c0-2.6,2-4.6,4.4-4.6c2.4,0,4.4,2.1,4.4,4.6C77.3,49,75.3,51.1,72.9,51.1z"/>
	<path class="st1" d="M87,65.3v4.1c0,1.4-1.1,2.5-2.4,2.5c-1.3,0-2.4-1.1-2.4-2.5v-4.1c0-0.4-0.2-0.8-0.6-1l-4.1-1.9h-7.7
		c2.2,1.7,3.5,4.3,3.5,7.2v7.4c0,1.4-1.1,2.5-2.4,2.5c-1.3,0-2.4-1.1-2.4-2.5v-7.4c0-1.6-0.9-3-2.2-3.6l-7.7-3.6h-0.7
		c-3.2,6.8-12.5,6.8-15.7,0h-0.7L33.8,66c-1.4,0.6-2.2,2.1-2.2,3.6v7.4c0,1.4-1.1,2.5-2.4,2.5c-1.3,0-2.4-1.1-2.4-2.5v-7.4
		c0-2.9,1.3-5.6,3.5-7.2h-7.7l-4.1,1.9c-0.4,0.2-0.6,0.6-0.6,1v4.1c0,1.4-1.1,2.5-2.4,2.5S13,70.8,13,69.5v-4.1
		c0-2.4,1.4-4.6,3.4-5.6c5-2.3,4.8-2.4,5.5-2.4c10.9,0,10.4-0.1,11.1,0.2l3.5,1.6l3.4-1.6c0.6-0.3,0.7-0.2,3.8-0.2
		c1.1,0,2.1,0.8,2.3,1.9c1,4.3,6.8,4.3,7.8,0c0.3-1.1,1.2-1.9,2.3-1.9h2.8c0.7,0,0.7,0.1,4.4,1.8c3.8-1.8,3.8-1.8,4.4-1.8
		c10.9,0,10.4-0.1,11.1,0.2l4.5,2.1C85.6,60.7,87,62.9,87,65.3L87,65.3z"/>
</g>
</svg>
