<?xml version="1.0" encoding="utf-8"?>
<!-- Generator: Adobe Illustrator 24.0.1, SVG Export Plug-In . SVG Version: 6.00 Build 0)  -->
<svg version="1.1" id="Layer_1" xmlns="http://www.w3.org/2000/svg" xmlns:xlink="http://www.w3.org/1999/xlink" x="0px" y="0px"
	 viewBox="0 0 100 100" style="enable-background:new 0 0 100 100;" xml:space="preserve">
<style type="text/css">
	.st0{fill:#F3F5FB;}
	.st1{fill:#1B5690;}
	.st2{fill:#F28E29;}
	.st3{fill:#E30613;}
	.st4{fill:#F9B233;}
	.st5{fill:url(#SVGID_1_);stroke:#432918;stroke-width:0.25;stroke-miterlimit:10;}
	.st6{fill:url(#SVGID_2_);}
	.st7{fill:#F5AEBF;}
	.st8{fill:#FFFFFF;}
	.st9{fill:url(#SVGID_3_);stroke:#432918;stroke-width:0.25;stroke-miterlimit:10;}
	.st10{fill:url(#SVGID_4_);}
	.st11{fill:url(#SVGID_5_);}
	.st12{fill:url(#SVGID_6_);stroke:#432918;stroke-width:0.25;stroke-miterlimit:10;}
	.st13{fill:url(#SVGID_7_);}
	.st14{fill:url(#SVGID_8_);}
	.st15{fill:url(#SVGID_9_);stroke:#432918;stroke-width:0.25;stroke-miterlimit:10;}
	.st16{fill:url(#SVGID_10_);}
	.st17{fill:url(#SVGID_11_);}
	.st18{fill:url(#SVGID_12_);}
	.st19{fill:#B3DCDA;}
	.st20{fill:url(#SVGID_13_);stroke:#432918;stroke-width:0.25;stroke-miterlimit:10;}
	.st21{fill:url(#SVGID_14_);}
	.st22{fill:url(#SVGID_15_);}
	.st23{fill:none;stroke:#F28E29;stroke-miterlimit:10;}
	.st24{fill:none;stroke:#1B5690;stroke-miterlimit:10;}
	.st25{fill:#020203;}
	.st26{fill:#F9B259;}
	.st27{fill:#1F2D53;}
	.st28{fill:url(#SVGID_16_);}
	.st29{fill:url(#SVGID_17_);}
	.st30{fill:url(#SVGID_18_);stroke:#432918;stroke-width:0.25;stroke-miterlimit:10;}
	.st31{fill:#1E5792;}
	.st32{fill:#F18E29;}
</style>
<g>
	<path class="st31" d="M36.6,7.1H17.1c-5.5,0-10,4.6-10,10v19.5c0,5.5,4.6,10,10,10h19.5c5.5,0,10-4.6,10-10V17.1
		C46.7,11.7,42.1,7.1,36.6,7.1z M43,38.9c0,2.2-1.8,4.1-4.1,4.1H14.9c-2.2,0-4.1-1.8-4.1-4.1V14.9c0-2.2,1.8-4.1,4.1-4.1h24.1
		c2.2,0,4.1,1.8,4.1,4.1C43,14.9,43,38.9,43,38.9z"/>
	<path class="st32" d="M82.9,7.1H63.4c-5.5,0-10,4.6-10,10v19.5c0,5.5,4.6,10,10,10h19.5c5.5,0,10-4.6,10-10V17.1
		C92.9,11.7,88.3,7.1,82.9,7.1z M89.4,38.9c0,2.2-1.8,4.1-4.1,4.1H61.1c-2.2,0-4.1-1.8-4.1-4.1V14.9c0-2.2,1.8-4.1,4.1-4.1h24.1
		c2.2,0,4.1,1.8,4.1,4.1v24.1H89.4z"/>
	<path class="st31" d="M82.9,53.3H63.4c-5.5,0-10,4.6-10,10v19.6c0,5.5,4.6,10,10,10h19.5c5.5,0,10-4.6,10-10V63.4
		C92.9,57.9,88.3,53.3,82.9,53.3z M89.4,85.1c0,2.2-1.8,4.1-4.1,4.1H61.1c-2.2,0-4.1-1.8-4.1-4.1V61.1c0-2.2,1.8-4.1,4.1-4.1h24.1
		c2.2,0,4.1,1.8,4.1,4.1v24.1H89.4z"/>
	<path class="st32" d="M36.6,53.3H17.1c-5.5,0-10,4.6-10,10v19.6c0,5.5,4.6,10,10,10h19.5c5.5,0,10-4.6,10-10V63.4
		C46.7,57.9,42.1,53.3,36.6,53.3z M43,85.1c0,2.2-1.8,4.1-4.1,4.1H14.9c-2.2,0-4.1-1.8-4.1-4.1V61.1c0-2.2,1.8-4.1,4.1-4.1h24.1
		c2.2,0,4.1,1.8,4.1,4.1C43,61.1,43,85.1,43,85.1z"/>
</g>
</svg>
