<?xml version="1.0" encoding="utf-8"?>
<!-- Generator: Adobe Illustrator 24.0.1, SVG Export Plug-In . SVG Version: 6.00 Build 0)  -->
<svg version="1.1" id="Layer_1" xmlns="http://www.w3.org/2000/svg" xmlns:xlink="http://www.w3.org/1999/xlink" x="0px" y="0px"
	 viewBox="0 0 100 100" style="enable-background:new 0 0 100 100;" xml:space="preserve">
<style type="text/css">
	.st0{fill:#F4F5FB;}
	.st1{fill:#1B5690;}
	.st2{fill:#F18D28;}
</style>
<g>
	<rect class="st0" width="100" height="100"/>
	<path class="st1" d="M39.8,17.4H25c-4.2,0-7.6,3.5-7.6,7.6v14.8c0,4.2,3.5,7.6,7.6,7.6h14.8c4.2,0,7.6-3.5,7.6-7.6V25
		C47.5,20.9,44,17.4,39.8,17.4z M44.7,41.6c0,1.7-1.4,3.1-3.1,3.1H23.3c-1.7,0-3.1-1.4-3.1-3.1V23.3c0-1.7,1.4-3.1,3.1-3.1h18.3
		c1.7,0,3.1,1.4,3.1,3.1C44.7,23.3,44.7,41.6,44.7,41.6z"/>
	<path class="st2" d="M75,17.4H60.2c-4.2,0-7.6,3.5-7.6,7.6v14.8c0,4.2,3.5,7.6,7.6,7.6H75c4.2,0,7.6-3.5,7.6-7.6V25
		C82.6,20.9,79.1,17.4,75,17.4z M79.9,41.6c0,1.7-1.4,3.1-3.1,3.1H58.4c-1.7,0-3.1-1.4-3.1-3.1V23.3c0-1.7,1.4-3.1,3.1-3.1h18.3
		c1.7,0,3.1,1.4,3.1,3.1V41.6z"/>
	<path class="st1" d="M75,52.5H60.2c-4.2,0-7.6,3.5-7.6,7.6V75c0,4.2,3.5,7.6,7.6,7.6H75c4.2,0,7.6-3.5,7.6-7.6V60.2
		C82.6,56,79.1,52.5,75,52.5z M79.9,76.7c0,1.7-1.4,3.1-3.1,3.1H58.4c-1.7,0-3.1-1.4-3.1-3.1V58.4c0-1.7,1.4-3.1,3.1-3.1h18.3
		c1.7,0,3.1,1.4,3.1,3.1V76.7z"/>
	<path class="st2" d="M39.8,52.5H25c-4.2,0-7.6,3.5-7.6,7.6V75c0,4.2,3.5,7.6,7.6,7.6h14.8c4.2,0,7.6-3.5,7.6-7.6V60.2
		C47.5,56,44,52.5,39.8,52.5z M44.7,76.7c0,1.7-1.4,3.1-3.1,3.1H23.3c-1.7,0-3.1-1.4-3.1-3.1V58.4c0-1.7,1.4-3.1,3.1-3.1h18.3
		c1.7,0,3.1,1.4,3.1,3.1C44.7,58.4,44.7,76.7,44.7,76.7z"/>
</g>
</svg>
