<?xml version="1.0" encoding="utf-8"?>
<!-- Generator: Adobe Illustrator 24.0.1, SVG Export Plug-In . SVG Version: 6.00 Build 0)  -->
<svg version="1.1" id="Layer_1" xmlns="http://www.w3.org/2000/svg" xmlns:xlink="http://www.w3.org/1999/xlink" x="0px" y="0px"
	 viewBox="0 0 100 100" style="enable-background:new 0 0 100 100;" xml:space="preserve">
<style type="text/css">
	.st0{fill:#F3F5FB;}
	.st1{fill:#1B5690;}
	.st2{fill:#F28E29;}
	.st3{fill:#E30613;}
	.st4{fill:#F9B233;}
	.st5{fill:url(#SVGID_1_);stroke:#432918;stroke-width:0.25;stroke-miterlimit:10;}
	.st6{fill:url(#SVGID_2_);}
	.st7{fill:#F5AEBF;}
	.st8{fill:#FFFFFF;}
	.st9{fill:url(#SVGID_3_);stroke:#432918;stroke-width:0.25;stroke-miterlimit:10;}
	.st10{fill:url(#SVGID_4_);}
	.st11{fill:url(#SVGID_5_);}
	.st12{fill:url(#SVGID_6_);stroke:#432918;stroke-width:0.25;stroke-miterlimit:10;}
	.st13{fill:url(#SVGID_7_);}
	.st14{fill:url(#SVGID_8_);}
	.st15{fill:url(#SVGID_9_);stroke:#432918;stroke-width:0.25;stroke-miterlimit:10;}
	.st16{fill:url(#SVGID_10_);}
	.st17{fill:url(#SVGID_11_);}
	.st18{fill:url(#SVGID_12_);}
	.st19{fill:#B3DCDA;}
	.st20{fill:url(#SVGID_13_);stroke:#432918;stroke-width:0.25;stroke-miterlimit:10;}
	.st21{fill:url(#SVGID_14_);}
	.st22{fill:url(#SVGID_15_);}
	.st23{fill:none;stroke:#F28E29;stroke-miterlimit:10;}
	.st24{fill:none;stroke:#1B5690;stroke-miterlimit:10;}
	.st25{fill:#020203;}
	.st26{fill:#F9B259;}
	.st27{fill:#1F2D53;}
	.st28{fill:#1E5792;}
	.st29{fill:#F18E29;}
	.st30{fill:url(#SVGID_16_);}
	.st31{fill:url(#SVGID_17_);}
	.st32{fill:url(#SVGID_18_);stroke:#432918;stroke-width:0.25;stroke-miterlimit:10;}
</style>
<g>
	<path class="st28" d="M36.6,7.1H17.1c-5.5,0-10,4.6-10,10v19.5c0,5.5,4.6,10,10,10h19.5c5.5,0,10-4.6,10-10V17.1
		C46.7,11.7,42.1,7.1,36.6,7.1z M43,38.9c0,2.2-1.8,4.1-4.1,4.1H14.9c-2.2,0-4.1-1.8-4.1-4.1V14.9c0-2.2,1.8-4.1,4.1-4.1h24.1
		c2.2,0,4.1,1.8,4.1,4.1C43,14.9,43,38.9,43,38.9z"/>
	<path class="st29" d="M82.9,7.1H63.4c-5.5,0-10,4.6-10,10v19.5c0,5.5,4.6,10,10,10h19.5c5.5,0,10-4.6,10-10V17.1
		C92.9,11.7,88.3,7.1,82.9,7.1z M89.4,38.9c0,2.2-1.8,4.1-4.1,4.1H61.1c-2.2,0-4.1-1.8-4.1-4.1V14.9c0-2.2,1.8-4.1,4.1-4.1h24.1
		c2.2,0,4.1,1.8,4.1,4.1v24.1H89.4z"/>
	<path class="st28" d="M82.9,53.3H63.4c-5.5,0-10,4.6-10,10v19.6c0,5.5,4.6,10,10,10h19.5c5.5,0,10-4.6,10-10V63.4
		C92.9,57.9,88.3,53.3,82.9,53.3z M89.4,85.1c0,2.2-1.8,4.1-4.1,4.1H61.1c-2.2,0-4.1-1.8-4.1-4.1V61.1c0-2.2,1.8-4.1,4.1-4.1h24.1
		c2.2,0,4.1,1.8,4.1,4.1v24.1H89.4z"/>
	<path class="st29" d="M36.6,53.3H17.1c-5.5,0-10,4.6-10,10v19.6c0,5.5,4.6,10,10,10h19.5c5.5,0,10-4.6,10-10V63.4
		C46.7,57.9,42.1,53.3,36.6,53.3z M43,85.1c0,2.2-1.8,4.1-4.1,4.1H14.9c-2.2,0-4.1-1.8-4.1-4.1V61.1c0-2.2,1.8-4.1,4.1-4.1h24.1
		c2.2,0,4.1,1.8,4.1,4.1C43,61.1,43,85.1,43,85.1z"/>
</g>
<g>
	<linearGradient id="SVGID_1_" gradientUnits="userSpaceOnUse" x1="55" y1="22.5" x2="100" y2="22.5">
		<stop  offset="0" style="stop-color:#FFEF26"/>
		<stop  offset="5.948725e-02" style="stop-color:#FFE000"/>
		<stop  offset="0.1303" style="stop-color:#FFD300"/>
		<stop  offset="0.2032" style="stop-color:#FECB00"/>
		<stop  offset="0.2809" style="stop-color:#FDC800"/>
		<stop  offset="0.6685" style="stop-color:#F18F34"/>
		<stop  offset="0.8876" style="stop-color:#E95F32"/>
		<stop  offset="1" style="stop-color:#E3312D"/>
	</linearGradient>
	<circle class="st5" cx="77.5" cy="22.5" r="22.5"/>
	<g>
		<path class="st8" d="M78.6,5l3.6,10.9c0.1,0.4,0.6,0.7,1.1,0.7H95c1.1,0,1.5,1.3,0.7,1.9l-9.6,6.9c-0.4,0.3-0.5,0.7-0.4,1.1
			l3.6,11c0.3,1-0.9,1.8-1.8,1.1L78.2,32c-0.4-0.3-1-0.3-1.4,0l-9.4,6.7c-0.9,0.6-2.1-0.2-1.8-1.1l3.6-11c0.1-0.4,0-0.9-0.4-1.1
			l-9.6-6.9c-0.9-0.6-0.4-1.9,0.7-1.9h11.7c0.5,0,0.9-0.3,1.1-0.7L76.4,5C76.8,4,78.2,4,78.6,5z"/>
	</g>
</g>
</svg>
