<?xml version="1.0" encoding="utf-8"?>
<!-- Generator: Adobe Illustrator 24.0.1, SVG Export Plug-In . SVG Version: 6.00 Build 0)  -->
<svg version="1.1" id="Layer_1" xmlns="http://www.w3.org/2000/svg" xmlns:xlink="http://www.w3.org/1999/xlink" x="0px" y="0px"
	 viewBox="0 0 100 100" style="enable-background:new 0 0 100 100;" xml:space="preserve">
<style type="text/css">
	.st0{fill:#F4F5FB;}
	.st1{fill:#F28E29;}
	.st2{fill:#1B5690;}
</style>
<g>
	<rect class="st0" width="100" height="100"/>
	<g>
		<path class="st1" d="M30.4,85h39.2c4.6,0,8.4-3.4,8.4-7.5V22.5c0-4.1-3.8-7.5-8.4-7.5H30.4c-4.6,0-8.4,3.4-8.4,7.5v55.1
			C22,81.7,25.8,85,30.4,85z M24.6,29h50.9v48.5c0,2.9-2.6,5.2-5.7,5.2H30.4c-3.2,0-5.7-2.3-5.7-5.2L24.6,29L24.6,29z"/>
		<ellipse class="st2" cx="34.4" cy="38.2" rx="3.2" ry="2.8"/>
		<rect x="40.2" y="37.2" class="st2" width="27.4" height="2.3"/>
		<ellipse class="st2" cx="34.4" cy="47.5" rx="3.2" ry="2.8"/>
		<rect x="40.2" y="46.5" class="st2" width="27.4" height="2.3"/>
		<ellipse class="st2" cx="34.4" cy="56.9" rx="3.2" ry="2.8"/>
		<rect x="40.2" y="55.8" class="st2" width="27.4" height="2.3"/>
	</g>
</g>
</svg>
