<?xml version="1.0" encoding="utf-8"?>
<!-- Generator: Adobe Illustrator 24.0.1, SVG Export Plug-In . SVG Version: 6.00 Build 0)  -->
<svg version="1.1" id="Layer_1" xmlns="http://www.w3.org/2000/svg" xmlns:xlink="http://www.w3.org/1999/xlink" x="0px" y="0px"
	 viewBox="0 0 100 100" style="enable-background:new 0 0 100 100;" xml:space="preserve">
<style type="text/css">
	.st0{fill:#F4F5FB;}
	.st1{fill:#F28E29;}
	.st2{fill:#1B5690;}
</style>
<g>
	<rect class="st0" width="100" height="100"/>
	<g>
		<path class="st1" d="M43.3,44.7c1.3,0,2.6-0.9,3.1-2.2c0.5-1.3,0.3-3-0.7-4l-1.6-1.8c-0.2-0.2-0.5-0.4-0.8-0.4s-0.6,0.1-0.8,0.4
			l-3.3,3.4L36,43.5c-0.3,0.3-0.4,0.7-0.4,1.2c0.1,0.4,0.4,0.8,0.8,0.9c0.4,0.1,0.8,0,1.1-0.3l2.5-2.6l0.3,0.4l-1.5,4.5
			c-0.1,0.4-0.1,0.9,0.2,1.2c0.3,0.4,0.7,0.5,1.1,0.4c0.4-0.1,0.7-0.4,0.9-0.8l1.3-3.8C42.6,44.6,42.9,44.7,43.3,44.7z M43.3,39.2
			l0.8,0.9c0.4,0.5,0.4,1.3,0,1.7c-0.4,0.4-1.2,0.4-1.6,0l-0.8-0.9L43.3,39.2z"/>
		<path class="st1" d="M37.9,38.4c0.8,0,1.6-0.4,2.2-1c1.3-1.4,1.4-3.8,0.1-5.2l-1.6-1.8c-0.4-0.5-1.1-0.5-1.6,0l-6.5,6.8
			c-0.4,0.4-0.4,1.3,0,1.7l1.6,1.8c0.6,0.7,1.5,1.1,2.4,1.1h0.1C36.3,41.9,37.8,40.3,37.9,38.4L37.9,38.4z M37.8,33l0.8,0.9
			c0.4,0.5,0.4,1.3,0,1.7c-0.2,0.2-0.5,0.4-0.8,0.4s-0.6-0.1-0.8-0.4l-0.8-0.9L37.8,33z M35.3,39.1c-0.2,0.2-0.5,0.4-0.8,0.4
			s-0.6-0.1-0.8-0.4l-0.7-1l1.6-1.7l0.8,0.9C35.8,37.8,35.8,38.6,35.3,39.1L35.3,39.1z"/>
		<path class="st1" d="M52.1,45.6c-0.3-0.4-0.8-0.4-1.3-0.3l-8.9,4.2c-0.6,0.3-0.8,1-0.6,1.6c0.2,0.6,0.9,0.9,1.5,0.7l1.5-0.7
			l2.5,2.8L46,55.4c-0.3,0.6,0,1.3,0.5,1.6c0.1,0.1,0.3,0.1,0.4,0.1c0.4,0,0.8-0.3,1-0.7l4.2-9.5C52.5,46.4,52.4,45.9,52.1,45.6z
			 M46.5,49.9l2.4-1.1l-1.1,2.6L46.5,49.9z"/>
		<path class="st1" d="M60.7,55.3c-0.4-0.5-1.1-0.5-1.6,0l-3.7,3.9L57,52c0.1-0.5-0.1-1.1-0.5-1.4c-0.4-0.3-1-0.2-1.3,0.1l-6.5,6.8
			c-0.4,0.4-0.4,1.3,0,1.7c0.4,0.4,1.1,0.5,1.6,0.1l3.7-3.9l-1.6,7.1c-0.1,0.5,0.1,1.1,0.5,1.4c0.4,0.3,1,0.2,1.3-0.1l6.5-6.8
			C61.2,56.6,61.2,55.8,60.7,55.3z"/>
		<path class="st1" d="M63.1,58c-0.2-0.2-0.5-0.4-0.8-0.4c-0.3,0-0.6,0.1-0.8,0.4l-6.5,6.8c-0.4,0.4-0.4,1.3,0,1.7l0.8,0.9
			c1.4,1.6,3.5,2.3,5.5,1.8c2-0.5,3.6-2.2,4.2-4.3c0.5-2.2,0-4.5-1.4-6L63.1,58z M62.2,65.8c-1.3,1.4-3.5,1.4-4.8-0.1l4.9-5.1
			C63.5,62.1,63.5,64.4,62.2,65.8z"/>
		<path class="st1" d="M77.7,56.9l1.3-1.4l-1.6-1.7l-1.3,1.4v-1.9h-2.3v1.9l-1.3-1.4l-1.6,1.8l1.3,1.4h-1.8v2.5h1.8l-1.3,1.4
			l1.6,1.7l1.3-1.4v1.9h2.3v-1.9l1.3,1.4l1.6-1.7l-1.3-1.4h1.8V57L77.7,56.9L77.7,56.9z"/>
		<path class="st2" d="M75,48.9c-2,0-3.9,0.7-5.4,2.1L40.5,18.2c-0.2-0.3-0.5-0.4-0.9-0.4l-18.7,1.3l-2-2.2c-0.4-0.5-1.1-0.5-1.6,0
			c-0.4,0.4-0.4,1.2,0,1.6l2,2.2l-2.8,19.5c-0.1,0.4,0.1,0.7,0.3,1l37,41.9c0.4,0.5,1.1,0.5,1.6,0l15.9-16.7c3.2,1.6,6.9,1,9.5-1.6
			c2.6-2.6,3.4-6.6,2.1-10.2C81.6,51.2,78.5,48.9,75,48.9z M21.2,23.1l1.7,1.9c-0.5,1.1-0.4,2.5,0.1,3.6s1.7,1.8,2.8,1.8h0.1
			c1.9,0,3.4-1.6,3.4-3.6c0-2.1-1.5-3.7-3.3-3.7c-0.5,0-1,0.1-1.5,0.4l-1.6-1.8l16.4-1.1l0.4,0.4L20,41.4l-1.2-1.3L21.2,23.1z
			 M25.1,25.8c0.2-0.2,0.5-0.4,0.8-0.4l0,0c0.4,0,0.9,0.3,1,0.8c0.1,0.5,0.1,1-0.3,1.3c-0.2,0.2-0.5,0.4-0.8,0.4
			c-0.4,0-0.9-0.3-1-0.8C24.7,26.6,24.8,26.1,25.1,25.8L25.1,25.8z M54.7,80.6l-5-5.7h10.4L54.7,80.6z M62.4,72.5L62.4,72.5H47.5
			L21.6,43.2l19.6-20.6L68,52.8c-2.5,3.9-1.9,9.1,1.3,12.3L62.4,72.5z M75,65c-3.4,0-6.2-3-6.2-6.8s2.8-6.8,6.2-6.8
			c3.4,0,6.2,3,6.2,6.8S78.4,65,75,65z"/>
	</g>
</g>
</svg>
