<?xml version="1.0" encoding="utf-8"?>
<!-- Generator: Adobe Illustrator 24.0.1, SVG Export Plug-In . SVG Version: 6.00 Build 0)  -->
<svg version="1.1" id="Layer_1" xmlns="http://www.w3.org/2000/svg" xmlns:xlink="http://www.w3.org/1999/xlink" x="0px" y="0px"
	 viewBox="0 0 100 100" style="enable-background:new 0 0 100 100;" xml:space="preserve">
<style type="text/css">
	.st0{fill:#F4F5FB;}
	.st1{fill:#1B5690;}
	.st2{fill:#F28E29;}
</style>
<g>
	<rect class="st0" width="100" height="100"/>
	<g>
		<path class="st1" d="M50.3,49.8c3.9,0,7.3-1.5,10-4.4s4.2-6.4,4.2-10.5s-1.4-7.6-4.2-10.5s-6.2-4.4-10-4.4s-7.3,1.5-10,4.4
			s-4.2,6.4-4.2,10.5s1.4,7.6,4.2,10.5C43,48.3,46.4,49.8,50.3,49.8z M42.7,27c2.1-2.2,4.6-3.3,7.6-3.3s5.5,1,7.6,3.3
			c2.1,2.2,3.1,4.8,3.1,7.9s-1,5.7-3.1,7.9c-2.1,2.2-4.6,3.3-7.6,3.3c-3,0-5.5-1-7.6-3.3c-2.1-2.2-3.1-4.8-3.1-7.9
			S40.6,29.2,42.7,27z"/>
		<path class="st2" d="M75.2,67.5c-0.1-1.2-0.2-2.5-0.5-3.9c-0.2-1.4-0.6-2.7-0.9-3.9c-0.4-1.2-0.9-2.5-1.5-3.6
			c-0.7-1.2-1.5-2.3-2.3-3.1c-0.9-0.9-2-1.7-3.3-2.2s-2.7-0.8-4.3-0.8c-0.6,0-1.2,0.2-2.3,1c-0.7,0.5-1.5,1-2.4,1.6
			c-0.8,0.5-1.8,1-3.1,1.4c-1.2,0.4-2.5,0.6-3.8,0.6c-1.3,0-2.5-0.2-3.8-0.6c-1.3-0.4-2.3-0.9-3.1-1.4c-0.9-0.6-1.7-1.2-2.4-1.6
			c-1.1-0.8-1.7-1-2.3-1c-1.5,0-3,0.2-4.3,0.8c-1.3,0.6-2.4,1.3-3.3,2.2c-0.9,0.9-1.7,1.9-2.3,3.1c-0.6,1.2-1.2,2.4-1.5,3.6
			s-0.7,2.5-0.9,3.9c-0.2,1.4-0.4,2.7-0.5,3.9c-0.1,1.2-0.1,2.4-0.1,3.6c0,3.2,1,5.9,2.9,7.8c1.9,1.9,4.4,2.8,7.5,2.8h28.5
			c3.1,0,5.6-1,7.5-2.8c1.9-1.9,2.9-4.5,2.9-7.8C75.3,69.9,75.3,68.6,75.2,67.5z M70,76.2c-1.2,1.2-3,1.8-5.1,1.8H36.5
			c-2.2,0-3.9-0.6-5.1-1.8c-1.2-1.2-1.8-2.9-1.8-5.1c0-1.2,0.1-2.3,0.1-3.4c0.1-1,0.2-2.3,0.4-3.5c0.2-1.2,0.5-2.4,0.8-3.5
			c0.3-1,0.7-2,1.2-3c0.5-0.9,1-1.7,1.7-2.3c0.6-0.6,1.4-1.1,2.2-1.4c0.8-0.3,1.7-0.5,2.7-0.6c0.1,0.1,0.3,0.2,0.7,0.4
			c0.7,0.5,1.5,1,2.5,1.7c1,0.7,2.3,1.3,3.9,1.8c1.6,0.6,3.3,0.8,4.9,0.8s3.3-0.2,4.9-0.8c1.5-0.6,2.9-1.2,3.9-1.8
			c0.9-0.6,1.7-1.2,2.5-1.7c0.4-0.2,0.6-0.4,0.7-0.4c1,0,1.9,0.2,2.7,0.6c0.9,0.4,1.6,0.9,2.2,1.4c0.6,0.6,1.2,1.4,1.7,2.3
			c0.5,1,0.9,2,1.2,3c0.3,1,0.6,2.2,0.8,3.5c0.2,1.2,0.4,2.4,0.4,3.5l0,0c0.1,1.1,0.1,2.2,0.1,3.4C71.9,73.3,71.3,75,70,76.2z"/>
	</g>
</g>
</svg>
