<?xml version="1.0" encoding="utf-8"?>
<!-- Generator: Adobe Illustrator 24.0.1, SVG Export Plug-In . SVG Version: 6.00 Build 0)  -->
<svg version="1.1" id="Capa_1" xmlns="http://www.w3.org/2000/svg" xmlns:xlink="http://www.w3.org/1999/xlink" x="0px" y="0px"
	 viewBox="0 0 512 512" style="enable-background:new 0 0 512 512;" xml:space="preserve">
<style type="text/css">
	.st0{fill:#19558F;}
	.st1{fill:#F28E28;}
</style>
<path class="st0" d="M452,276H336c-33.1,0-60,26.9-60,60v116c0,33.1,26.9,60,60,60h116c33.1,0,60-26.9,60-60V336
	C512,302.9,485.1,276,452,276z M472,452c0,11-9,20-20,20H336c-11,0-20-9-20-20V336c0-11,9-20,20-20h116c11,0,20,9,20,20V452z"/>
<path class="st1" d="M176,276H60c-33.1,0-60,26.9-60,60v116c0,33.1,26.9,60,60,60h116c33.1,0,60-26.9,60-60V336
	C236,302.9,209.1,276,176,276z M196,452c0,11-9,20-20,20H60c-11,0-20-9-20-20V336c0-11,9-20,20-20h116c11,0,20,9,20,20V452z"/>
<path class="st0" d="M176,0H60C26.9,0,0,26.9,0,60v116c0,33.1,26.9,60,60,60h116c33.1,0,60-26.9,60-60V60C236,26.9,209.1,0,176,0z
	 M196,176c0,11-9,20-20,20H60c-11,0-20-9-20-20V60c0-11,9-20,20-20h116c11,0,20,9,20,20V176z"/>
<path class="st1" d="M452,0H336c-33.1,0-60,26.9-60,60v116c0,33.1,26.9,60,60,60h116c33.1,0,60-26.9,60-60V60
	C512,26.9,485.1,0,452,0z M472,176c0,11-9,20-20,20H336c-11,0-20-9-20-20V60c0-11,9-20,20-20h116c11,0,20,9,20,20V176z"/>
</svg>
