<?xml version="1.0" encoding="utf-8"?>
<!-- Generator: Adobe Illustrator 24.0.1, SVG Export Plug-In . SVG Version: 6.00 Build 0)  -->
<svg version="1.1" id="Layer_1" xmlns="http://www.w3.org/2000/svg" xmlns:xlink="http://www.w3.org/1999/xlink" x="0px" y="0px"
	 viewBox="0 0 496 496" style="enable-background:new 0 0 496 496;" xml:space="preserve">
<style type="text/css">
	.st0{fill:#19558F;}
	.st1{fill:#F28E28;}
</style>
<g>
	<path class="st0" d="M396.9,288H99.1l-32,64H96v144h304V352h28.9L396.9,288z M387.1,304l16,32H276.9l-16-32H387.1z M108.9,304
		h126.1l-16,32H92.9L108.9,304z M384,480H256v-56h-16v56H112V352h116.9l11.1-22.1V400h16v-70.1l11.1,22.1H384V480z"/>
	<path class="st1" d="M128,416h48v16h-48V416z"/>
	<path class="st1" d="M128,448h48v16h-48V448z"/>
	<path class="st1" d="M192,448h16v16h-16V448z"/>
	<path class="st1" d="M211.1,130.1l36.9-9.4l36.9,9.4l2.9-39.7l19.6-33.5l-34.7-15L248,11.3l-24.8,30.6l-34.7,15l19.6,33.5
		L211.1,130.1z M233.2,55L248,36.7L262.8,55l21.7,9.4l-12.4,21.1l-1.8,24.3l-22.4-5.7l-22.4,5.7l-1.8-24.3l-12.4-21.1L233.2,55z"/>
	<path class="st0" d="M87.8,146.4l11.6-19.8l-20.6-8.9L64,99.3l-14.9,18.4l-20.6,8.9l11.6,19.8l1.7,23.7l22.1-5.6l22.1,5.6
		L87.8,146.4z M72.2,141.6l-0.6,8.3L64,148l-7.5,1.9l-0.6-8.3l-4.4-7.5l7.6-3.3l4.9-6.1l4.9,6.1l7.6,3.3L72.2,141.6z"/>
	<path class="st0" d="M455.8,146.4l11.6-19.8l-20.6-8.9L432,99.3l-14.9,18.4l-20.6,8.9l11.6,19.8l1.7,23.7l22.1-5.6l22.1,5.6
		L455.8,146.4z M440.2,141.6l-0.6,8.3L432,148l-7.5,1.9l-0.6-8.3l-4.4-7.5l7.6-3.3l4.9-6.1l4.9,6.1l7.6,3.3L440.2,141.6z"/>
	<path class="st1" d="M99.6,190.7c15.2,10.2,28.8,22.6,40.2,36.9l31.7,39.6l-6.6-52.4c-3.4-27.4-18-52.6-40.1-69.1l-7.7-5.7
		l-23.4,46.9L99.6,190.7z M122.6,164.7c13.5,12.8,22.7,29.8,25.8,48.3c-10.1-11.9-21.6-22.4-34.2-31.6L122.6,164.7z"/>
	<path class="st1" d="M331.1,214.7l-6.6,52.4l31.7-39.6c11.4-14.3,25-26.7,40.2-36.9l5.9-3.9l-23.4-46.9l-7.7,5.8
		C349.1,162.1,334.5,187.3,331.1,214.7z M381.7,181.4c-12.6,9.1-24.1,19.7-34.2,31.6c3.2-18.4,12.3-35.5,25.8-48.3L381.7,181.4z"/>
	<path class="st1" d="M280,272h16v-33.5c0-38.4,13.5-75.8,38.2-105.4l-12.3-10.2c-27,32.4-41.9,73.4-41.9,115.6V272z"/>
	<path class="st0" d="M336,96h16v16h-16V96z"/>
	<path class="st0" d="M360,64h16v16h-16V64z"/>
	<path class="st1" d="M200,272h16v-33.5c0-42.2-14.9-83.2-41.8-115.6l-12.3,10.2c24.6,29.5,38.1,66.9,38.1,105.4V272z"/>
	<path class="st0" d="M144,96h16v16h-16V96z"/>
	<path class="st0" d="M120,64h16v16h-16V64z"/>
	<path class="st0" d="M240,136h16v16h-16V136z"/>
	<path class="st1" d="M240,168h16v104h-16V168z"/>
	<g>
		<path class="st1" d="M464,216h16v16h-16V216z"/>
		<path class="st1" d="M464,248h16v16h-16V248z"/>
		<path class="st1" d="M480,232h16v16h-16V232z"/>
		<path class="st1" d="M448,232h16v16h-16V232z"/>
	</g>
	<g>
		<path class="st1" d="M440,0h16v16h-16V0z"/>
		<path class="st1" d="M440,32h16v16h-16V32z"/>
		<path class="st1" d="M456,16h16v16h-16V16z"/>
		<path class="st1" d="M424,16h16v16h-16V16z"/>
	</g>
	<g>
		<path class="st1" d="M16,248h16v16H16V248z"/>
		<path class="st1" d="M16,280h16v16H16V280z"/>
		<path class="st1" d="M32,264h16v16H32V264z"/>
		<path class="st1" d="M0,264h16v16H0V264z"/>
	</g>
	<g>
		<path class="st1" d="M16,0h16v16H16V0z"/>
		<path class="st1" d="M16,32h16v16H16V32z"/>
		<path class="st1" d="M32,16h16v16H32V16z"/>
		<path class="st1" d="M0,16h16v16H0V16z"/>
	</g>
</g>
</svg>
