<?xml version="1.0" encoding="utf-8"?>
<!-- Generator: Adobe Illustrator 24.0.1, SVG Export Plug-In . SVG Version: 6.00 Build 0)  -->
<svg version="1.1" id="Layer_1" xmlns="http://www.w3.org/2000/svg" xmlns:xlink="http://www.w3.org/1999/xlink" x="0px" y="0px"
	 viewBox="0 0 100 100" style="enable-background:new 0 0 100 100;" xml:space="preserve">
<style type="text/css">
	.st0{fill:#F4F5FB;}
	.st1{fill:#1B5690;}
	.st2{fill:#F28E29;}
	.st3{fill:#F9B259;}
	.st4{fill:#1F2D53;}
</style>
<rect class="st0" width="100" height="100"/>
<g>
	<path class="st1" d="M73.5,79.9H47.8c-3.5,0-6.4-2.9-6.4-6.4V43.1c0-0.4,0.1-0.8,0.4-1.1l10.5-14c0.4-0.4,0.8-0.7,1.4-0.7h14
		c0.5,0,1.1,0.2,1.4,0.7l10.5,14c0.2,0.3,0.4,0.7,0.4,1.1v30.4C79.9,77,77,79.9,73.5,79.9z"/>
	<path class="st1" d="M79.5,42L69,28.1c-0.4-0.4-0.8-0.7-1.4-0.7h-7v52.5h12.8c3.5,0,6.4-2.9,6.4-6.4V43.1
		C79.9,42.7,79.8,42.3,79.5,42z"/>
	<path class="st2" d="M40.2,71.8L22,53.6c-2.5-2.5-2.5-6.6,0-9.1l21.4-21.4c0.2-0.2,0.6-0.4,1-0.5l17.3-2.4c0.5-0.1,1.1,0.1,1.5,0.5
		l9.9,9.9c0.4,0.4,0.6,1,0.5,1.5l-2.4,17.3c-0.1,0.4-0.2,0.7-0.5,1L49.2,71.8C46.7,74.3,42.7,74.3,40.2,71.8L40.2,71.8z"/>
	<path class="st3" d="M71.2,49.3L73.7,32c0.1-0.5-0.1-1.1-0.5-1.5l-5-5L31.1,62.7l9.1,9.1c2.5,2.5,6.6,2.5,9.1,0l21.4-21.4
		C71,50,71.2,49.7,71.2,49.3L71.2,49.3z"/>
	<path class="st1" d="M60.8,43.7c-2-2-5.4-2-7.4,0s-2,5.4,0,7.4c2,2,5.4,2,7.4,0C62.9,49.1,62.9,45.8,60.8,43.7z M58.3,48.7
		c-0.7,0.7-1.8,0.7-2.4,0c-0.7-0.7-0.7-1.8,0-2.4s1.8-0.7,2.4,0C59,46.9,59,48,58.3,48.7L58.3,48.7z"/>
	<g>
		<path class="st1" d="M73.2,20.6c-0.7-0.7-1.8-0.7-2.4,0l-9.9,9.9l2.4,2.4l9.9-9.9C73.9,22.4,73.9,21.3,73.2,20.6z"/>
		<path class="st4" d="M73.2,23.1c0.7-0.7,0.7-1.8,0-2.4L62,31.8l1.3,1.3L73.2,23.1z"/>
	</g>
	<g>
		<path class="st1" d="M64.5,36c-0.4,0-0.9-0.2-1.3-0.5l-5-5c-0.7-0.7-0.7-1.8,0-2.4c0.7-0.7,1.8-0.7,2.4,0l5,5
			c0.7,0.7,0.7,1.8,0,2.4C65.4,35.8,65,36,64.5,36L64.5,36z"/>
		<path class="st1" d="M65.7,33l-2.4-2.4L60.8,33l2.4,2.4c0.4,0.4,0.8,0.5,1.3,0.5c0.4,0,0.9-0.2,1.3-0.5
			C66.4,34.8,66.4,33.7,65.7,33L65.7,33z"/>
	</g>
	<path class="st1" d="M41,61c-0.5-0.5-0.7-1.1-0.4-1.8l8.2-24.7c0.3-0.9,1.3-1.4,2.2-1.1c0.9,0.3,1.4,1.3,1.1,2.2l-8.2,24.8
		c-0.3,0.9-1.3,1.4-2.2,1.1C41.4,61.4,41.2,61.2,41,61z"/>
	<path class="st1" d="M39.3,43.7c-2-2-5.4-2-7.4,0s-2,5.4,0,7.4c2,2,5.4,2,7.4,0C41.4,49.1,41.4,45.8,39.3,43.7z M36.9,48.7
		c-0.7,0.7-1.8,0.7-2.4,0c-0.7-0.7-0.7-1.8,0-2.4c0.7-0.7,1.8-0.7,2.4,0C37.5,46.9,37.5,48,36.9,48.7L36.9,48.7z"/>
	<path class="st1" d="M43.9,60.4l5.3-15.7l-5.6,5.6l-3,9.1c-0.2,0.7-0.1,1.3,0.4,1.8c0.2,0.2,0.4,0.4,0.7,0.4
		C42.6,61.8,43.6,61.3,43.9,60.4L43.9,60.4z"/>
</g>
</svg>
