<?xml version="1.0" encoding="utf-8"?>
<!-- Generator: Adobe Illustrator 24.0.1, SVG Export Plug-In . SVG Version: 6.00 Build 0)  -->
<svg version="1.1" id="Layer_1" xmlns="http://www.w3.org/2000/svg" xmlns:xlink="http://www.w3.org/1999/xlink" x="0px" y="0px"
	 viewBox="0 0 100 100" style="enable-background:new 0 0 100 100;" xml:space="preserve">
<style type="text/css">
	.st0{fill:#F4F5FB;}
	.st1{fill:#1B5690;}
	.st2{fill:#F28E29;}
</style>
<g>
	<rect class="st0" width="100" height="100"/>
	<g>
		<g>
			<g>
				<path class="st1" d="M84,47.7H46.8c-3.8,0-6.9-2.9-6.9-6.5c0-3.6,3.1-6.5,6.9-6.5h37.1c3.8,0,6.9,2.9,6.9,6.5
					C90.8,44.8,87.8,47.7,84,47.7z M46.8,37.8c-2,0-3.7,1.5-3.7,3.5s1.7,3.5,3.7,3.5h37.1c2,0,3.7-1.5,3.7-3.5s-1.7-3.5-3.7-3.5
					H46.8z"/>
			</g>
		</g>
		<g>
			<g>
				<path class="st2" d="M84,65.2H16c-3.8,0-6.9-2.9-6.9-6.5c0-3.6,3.1-6.5,6.9-6.5h67.8c3.8,0,6.9,2.9,6.9,6.5
					C90.8,62.3,87.8,65.2,84,65.2z M16,55.2c-2,0-3.7,1.5-3.7,3.5c0,2,1.7,3.5,3.7,3.5h67.8c2,0,3.7-1.5,3.7-3.5
					c0-2-1.6-3.4-3.6-3.4L16,55.2L16,55.2z"/>
			</g>
		</g>
		<g>
			<g>
				<path class="st1" d="M84,30.3H46.8c-3.8,0-6.9-2.9-6.9-6.5s3.1-6.5,6.9-6.5h37.1c3.8,0,6.9,2.9,6.9,6.5S87.8,30.3,84,30.3z
					 M46.8,20.3c-2,0-3.7,1.5-3.7,3.5s1.7,3.5,3.7,3.5h37.1c2,0,3.7-1.5,3.7-3.5s-1.7-3.5-3.7-3.5C84,20.3,46.8,20.3,46.8,20.3z"/>
			</g>
		</g>
		<g>
			<g>
				<path class="st2" d="M84,82.7H16c-3.8,0-6.9-2.9-6.9-6.5c0-3.6,3.1-6.5,6.9-6.5h67.8c3.8,0,6.9,2.9,6.9,6.5
					C90.9,79.8,87.8,82.7,84,82.7z M16,72.8c-2,0-3.7,1.5-3.7,3.5c0,1.9,1.7,3.5,3.7,3.5h67.8c2,0,3.7-1.5,3.7-3.5
					c0-1.9-1.7-3.5-3.7-3.5H16L16,72.8z"/>
			</g>
		</g>
		<g>
			<path class="st2" d="M59.6,24.7H47.1c-0.9,0-1.6-0.7-1.6-1.5c0-0.8,0.7-1.5,1.6-1.5h12.4c0.9,0,1.6,0.7,1.6,1.5
				C61.2,24,60.5,24.7,59.6,24.7z"/>
		</g>
		<g>
			<path class="st2" d="M67.2,24.7h-2.2c-0.9,0-1.6-0.7-1.6-1.5c0-0.8,0.7-1.5,1.6-1.5h2.2c0.9,0,1.6,0.7,1.6,1.5
				C68.8,24,68,24.7,67.2,24.7z"/>
		</g>
		<g>
			<g>
				<path class="st1" d="M24.3,40c-0.9,0-1.6-0.7-1.6-1.5V18.8c0-0.8,0.7-1.5,1.6-1.5s1.6,0.7,1.6,1.5v19.7
					C25.9,39.2,25.2,40,24.3,40z"/>
			</g>
			<g>
				<path class="st1" d="M24.3,47.7c-0.4,0-0.8-0.2-1.2-0.4L11.8,36.6c-0.6-0.6-0.6-1.5,0-2.1c0.6-0.6,1.7-0.6,2.3,0L24.3,44
					l10.2-9.6c0.6-0.6,1.7-0.6,2.3,0c0.6,0.6,0.6,1.5,0,2.1L25.5,47.2C25.1,47.6,24.7,47.7,24.3,47.7z"/>
			</g>
		</g>
	</g>
</g>
</svg>
