<?xml version="1.0" encoding="utf-8"?>
<!-- Generator: Adobe Illustrator 24.0.1, SVG Export Plug-In . SVG Version: 6.00 Build 0)  -->
<svg version="1.1" id="Layer_1" xmlns="http://www.w3.org/2000/svg" xmlns:xlink="http://www.w3.org/1999/xlink" x="0px" y="0px"
	 viewBox="0 0 100 100" style="enable-background:new 0 0 100 100;" xml:space="preserve">
<style type="text/css">
	.st0{fill:#F4F5FB;}
	.st1{fill:#1B5690;}
	.st2{fill:#F28E29;}
	.st3{fill:#FFFFFF;}
</style>
<g>
	<rect class="st0" width="100" height="100"/>
	<g>
		<g>
			<g>
				<g>
					<path class="st1" d="M78.5,54.5H47.1c-3.2,0-5.9-2.4-5.9-5.3s2.7-5.3,5.9-5.3h31.4c3.2,0,5.9,2.4,5.9,5.3S81.7,54.5,78.5,54.5z
						 M47.1,46.3c-1.7,0-3.1,1.3-3.1,2.9c0,1.6,1.4,2.9,3.1,2.9h31.4c1.7,0,3.1-1.3,3.1-2.9c0-1.6-1.4-2.9-3.1-2.9H47.1z"/>
				</g>
			</g>
			<g>
				<g>
					<path class="st2" d="M78.5,68.9H21.1c-3.2,0-5.9-2.4-5.9-5.3s2.7-5.3,5.9-5.3h57.4c3.2,0,5.9,2.4,5.9,5.3
						C84.4,66.5,81.7,68.9,78.5,68.9z M21.1,60.7c-1.7,0-3.1,1.3-3.1,2.9c0,1.6,1.4,2.9,3.1,2.9h57.4c1.7,0,3.1-1.3,3.1-2.9
						c0-1.5-1.4-2.9-3.1-2.9H21.1L21.1,60.7z"/>
				</g>
			</g>
			<g>
				<g>
					<path class="st1" d="M78.5,40.1H47.1c-3.2,0-5.9-2.4-5.9-5.3c0-2.9,2.7-5.3,5.9-5.3h31.4c3.2,0,5.9,2.4,5.9,5.3
						C84.3,37.8,81.7,40.1,78.5,40.1z M47.1,32c-1.7,0-3.1,1.3-3.1,2.9s1.4,2.9,3.1,2.9h31.4c1.7,0,3.1-1.3,3.1-2.9S80.2,32,78.5,32
						H47.1z"/>
				</g>
			</g>
			<g>
				<g>
					<path class="st2" d="M78.5,83.2H21.1c-3.2,0-5.9-2.4-5.9-5.4c-0.1-2.9,2.6-5.3,5.9-5.3h57.4c3.2,0,5.9,2.4,5.9,5.3
						C84.4,80.9,81.7,83.2,78.5,83.2z M21.1,75.1c-1.7,0-3.1,1.3-3.1,2.9c0,1.5,1.4,2.9,3.1,2.9h57.4c1.7,0,3.1-1.3,3.1-2.9
						c0-1.5-1.4-2.9-3.1-2.9H21.1L21.1,75.1z"/>
				</g>
			</g>
			<g>
				<path class="st2" d="M57.9,35.6H47.4c-0.8,0-1.4-0.6-1.4-1.3c0-0.7,0.6-1.3,1.4-1.3h10.5c0.8,0,1.4,0.6,1.4,1.3
					C59.2,35,58.6,35.6,57.9,35.6z"/>
			</g>
			<g>
				<path class="st2" d="M64.3,35.6h-1.9c-0.8,0-1.4-0.6-1.4-1.3c0-0.7,0.6-1.3,1.4-1.3h1.9c0.8,0,1.4,0.6,1.4,1.3
					C65.7,35,65.1,35.6,64.3,35.6z"/>
			</g>
			<g>
				<g>
					<path class="st1" d="M28,48.1c-0.8,0-1.4-0.6-1.4-1.3V30.7c0-0.7,0.6-1.3,1.4-1.3s1.4,0.6,1.4,1.3v16.1
						C29.4,47.5,28.8,48.1,28,48.1z"/>
				</g>
				<g>
					<path class="st1" d="M28,54.4c-0.3,0-0.7-0.1-1-0.3l-9.7-8.7c-0.6-0.5-0.6-1.3,0-1.7s1.4-0.5,2,0l8.7,7.9l8.7-7.9
						c0.6-0.5,1.4-0.5,2,0c0.6,0.5,0.6,1.3,0,1.7l-9.8,8.7C28.7,54.4,28.4,54.4,28,54.4z"/>
				</g>
			</g>
		</g>
		<circle class="st3" cx="69.1" cy="32.5" r="14.5"/>
		<path class="st2" d="M69.1,48.2c-8.6,0-15.7-7-15.7-15.7s7-15.7,15.7-15.7s15.7,7,15.7,15.7S77.8,48.2,69.1,48.2z M69.1,19.2
			c-7.3,0-13.3,5.9-13.3,13.3s5.9,13.3,13.3,13.3s13.3-5.9,13.3-13.3S76.4,19.2,69.1,19.2z"/>
		<path class="st1" d="M73.9,37.4c-0.3,0-0.5-0.1-0.7-0.2l-4.9-3.6c-0.3-0.2-0.5-0.6-0.5-1v-7.3c0-0.7,0.6-1.2,1.2-1.2
			s1.2,0.6,1.2,1.2V32l4.4,3.3c0.6,0.4,0.6,1.2,0.2,1.7C74.7,37.3,74.3,37.4,73.9,37.4z"/>
	</g>
</g>
</svg>
