<?xml version="1.0" encoding="utf-8"?>
<!-- Generator: Adobe Illustrator 24.0.1, SVG Export Plug-In . SVG Version: 6.00 Build 0)  -->
<svg version="1.1" id="Layer_1" xmlns="http://www.w3.org/2000/svg" xmlns:xlink="http://www.w3.org/1999/xlink" x="0px" y="0px"
	 viewBox="0 0 100 100" style="enable-background:new 0 0 100 100;" xml:space="preserve">
<style type="text/css">
	.st0{fill:#F4F5FB;}
	.st1{fill:#1B5690;}
	.st2{fill:#F28E29;}
</style>
<g>
	<rect class="st0" width="100" height="100"/>
	<g>
		<path class="st1" d="M70.8,55.6H29.2l-4.5,8.9h4v20.1h42.4V64.5h4L70.8,55.6z M69.4,57.8l2.2,4.5H54l-2.2-4.5
			C51.8,57.8,69.4,57.8,69.4,57.8z M30.6,57.8h17.6L46,62.3H28.3L30.6,57.8z M69,82.4H51.1v-7.8h-2.2v7.8H31V64.5h16.3l1.5-3.1v9.8
			h2.2v-9.8l1.5,3.1H69V82.4z"/>
		<path class="st2" d="M33.3,73.5H40v2.2h-6.7V73.5z"/>
		<path class="st2" d="M33.3,77.9H40v2.2h-6.7V77.9z"/>
		<path class="st2" d="M42.2,77.9h2.2v2.2h-2.2V77.9z"/>
		<path class="st2" d="M44.9,33.5l5.1-1.3l5.1,1.3l0.4-5.5l2.8-4.7l-4.8-2.1L50,16.9l-3.5,4.3l-4.8,2.1l2.8,4.7L44.9,33.5z
			 M47.9,23.1l2.1-2.6l2.1,2.6l3,1.3l-1.7,3l-0.3,3.4L50,29.9l-3.1,0.8l-0.3-3.4l-1.7-2.9L47.9,23.1z"/>
		<path class="st1" d="M27.6,35.8l1.6-2.8l-2.9-1.2l-2.1-2.6l-2.1,2.6L19.3,33l1.6,2.8l0.2,3.3l3.1-0.8l3.1,0.8L27.6,35.8z
			 M25.5,35.1l-0.1,1.2l-1-0.3l-1,0.3l-0.1-1.2l-0.7-1l1-0.5l0.7-0.8l0.7,0.8l1,0.5L25.5,35.1z"/>
		<path class="st1" d="M79,35.8l1.6-2.8l-2.9-1.2l-2.1-2.6l-2.1,2.6L70.6,33l1.6,2.8l0.2,3.3l3.1-0.8l3.1,0.8L79,35.8z M76.8,35.1
			l-0.1,1.2l-1-0.3l-1,0.3l-0.1-1.2l-0.7-1l1-0.5l0.7-0.8l0.7,0.8l1,0.5L76.8,35.1z"/>
		<path class="st2" d="M29.3,42c2.1,1.5,4,3.2,5.6,5.1l4.4,5.5l-0.9-7.3C38,41.5,36,38,32.8,35.7l-1.1-0.8l-3.3,6.6L29.3,42z
			 M32.5,38.4c1.9,1.8,3.2,4.2,3.6,6.7c-1.4-1.7-3-3.1-4.8-4.4L32.5,38.4z"/>
		<path class="st2" d="M61.6,45.4l-0.9,7.3l4.4-5.5c1.6-2,3.5-3.7,5.6-5.1l0.8-0.6l-3.3-6.6l-1.1,0.8C64.1,38,62,41.6,61.6,45.4z
			 M68.7,40.7c-1.7,1.2-3.4,2.8-4.8,4.4c0.4-2.6,1.7-5,3.6-6.7L68.7,40.7z"/>
		<path class="st2" d="M54.5,53.3h2.2v-4.7c0-5.3,1.9-10.6,5.3-14.7l-1.7-1.5c-3.7,4.5-5.8,10.2-5.8,16.1V53.3L54.5,53.3z"/>
		<path class="st1" d="M62.2,28.8h2.3V31h-2.2L62.2,28.8L62.2,28.8z"/>
		<path class="st1" d="M65.6,24.3h2.2v2.2h-2.2V24.3z"/>
		<path class="st2" d="M43.3,53.3h2.2v-4.7c0-5.9-2.1-11.6-5.8-16.1L38,33.9c3.5,4.1,5.3,9.3,5.3,14.7V53.3z"/>
		<path class="st1" d="M35.5,28.8h2.2V31h-2.2V28.8z"/>
		<path class="st1" d="M32.1,24.3h2.2v2.2h-2.2V24.3z"/>
		<path class="st1" d="M48.9,34.4h2.2v2.2h-2.2V34.4z"/>
		<path class="st2" d="M48.9,38.9h2.2v14.5h-2.2V38.9z"/>
		<g>
			<path class="st2" d="M80.1,45.5h2.2v2.2h-2.2V45.5z"/>
			<path class="st2" d="M80.1,50h2.2v2.2h-2.2V50z"/>
			<path class="st2" d="M82.4,47.8h2.2V50h-2.2V47.8z"/>
			<path class="st2" d="M77.9,47.8h2.2V50h-2.2V47.8z"/>
		</g>
		<g>
			<path class="st2" d="M76.8,15.4H79v2.2h-2.2V15.4z"/>
			<path class="st2" d="M76.8,19.9H79v2.2h-2.2V19.9z"/>
			<path class="st2" d="M79,17.6h2.2v2.2H79V17.6z"/>
			<path class="st2" d="M74.6,17.6h2.2v2.2h-2.2V17.6z"/>
		</g>
		<g>
			<path class="st2" d="M17.6,50h2.2v2.2h-2.2V50z"/>
			<path class="st2" d="M17.6,54.5h2.2v2.2h-2.2V54.5z"/>
			<path class="st2" d="M19.9,52.2h2.2v2.2h-2.2V52.2z"/>
			<path class="st2" d="M15.4,52.2h2.2v2.2h-2.2V52.2z"/>
		</g>
		<g>
			<path class="st2" d="M17.6,15.4h2.2v2.2h-2.2V15.4z"/>
			<path class="st2" d="M17.6,19.9h2.2v2.2h-2.2V19.9z"/>
			<path class="st2" d="M19.9,17.6h2.2v2.2h-2.2V17.6z"/>
			<path class="st2" d="M15.4,17.6h2.2v2.2h-2.2V17.6z"/>
		</g>
	</g>
</g>
</svg>
