<?xml version="1.0" encoding="utf-8"?>
<!-- Generator: Adobe Illustrator 24.0.1, SVG Export Plug-In . SVG Version: 6.00 Build 0)  -->
<svg version="1.1" id="Layer_1" xmlns="http://www.w3.org/2000/svg" xmlns:xlink="http://www.w3.org/1999/xlink" x="0px" y="0px"
	 viewBox="0 0 100 100" style="enable-background:new 0 0 100 100;" xml:space="preserve">
<style type="text/css">
	.st0{fill:#F4F5FB;}
	.st1{fill:#1B5690;}
	.st2{fill:#F28E29;}
</style>
<g>
	<rect class="st0" width="100" height="100"/>
	<g>
		<g>
			<g>
				<path class="st1" d="M57.4,37.6c0.5,0.5,1.1,0.5,1.5,0.4c2.8-1.1,5.9,0.3,6.9,3.2c0.2,0.5,0.7,0.7,1.2,0.5
					c0.5-0.2,0.7-0.7,0.5-1.2c-1.3-3.7-5.3-5.7-9.1-4.4l-1.7-1.7l1.7-1.7c2.5,0.9,5.2,0.3,7.1-1.5c2-1.8,2.8-4.6,2.1-7.2
					c-0.3-0.9-1.5-1.3-2.2-0.6l-4.1,4.1l-1.7-0.5l-0.4-1.7l4.1-4.1c0.7-0.7,0.4-1.9-0.6-2.2c-2.6-0.7-5.3,0.1-7.1,2
					c-1.9,2-2.4,4.7-1.5,7.2L52.4,30l-1.7-1.7c1.6-4.7-1.9-9.7-6.9-9.5c-3.7,0.1-6.8,3.1-6.9,6.9c-0.2,4.9,4.7,8.6,9.5,7l1.7,1.7
					l-1.7,1.7c-5.5-1.9-10.8,3.2-9.2,8.7c0.3,0.9,1.5,1.3,2.2,0.6l4.1-4.1l1.7,0.5l0.5,1.7l-4.1,4.1c-0.3,0.3-0.5,0.8-0.3,1.3
					c0.1,0.5,0.5,0.8,0.9,0.9c5.5,1.5,10.6-3.8,8.7-9.2l1.7-1.7l1.7,1.7c-0.2,0.5-0.3,1.1-0.3,1.7c-0.4,4.3,3.1,7.9,7.3,7.8
					c2.9-0.1,5.5-1.9,6.5-4.6c0.2-0.5-0.1-1-0.5-1.2c-0.5-0.2-1,0.1-1.2,0.5c-0.7,2-2.7,3.3-4.8,3.5c-3.2,0.1-5.7-2.7-5.5-5.8
					c0.1-0.9,0.3-1.3,0.3-1.5c0.1-0.6-0.1-1.2-0.5-1.6l-1.7-1.7l1.9-1.9L57.4,37.6z M47.5,31.4c-0.5-0.5-1.3-0.6-1.7-0.5
					c-3.6,1.3-7.3-1.5-7.1-5.1c0.1-2.8,2.3-5.1,5.1-5.1c3.8-0.1,6.5,3.7,5.1,7.3c-0.1,0.4-0.1,1.1,0.4,1.5l1.9,1.9l-1.9,1.9
					L47.5,31.4z M49.3,39.4c-0.4,0.4-0.5,1.1-0.3,1.6c0.7,1.9,0.3,3.9-1.1,5.5c-1.1,1.3-2.7,1.9-4.4,1.7l3.5-3.5
					c0.3-0.3,0.5-0.8,0.3-1.3L46.7,41c-0.1-0.5-0.5-0.8-0.9-0.9l-2.3-0.6c-0.5-0.1-0.9,0-1.3,0.3l-3.5,3.5c-0.4-3.7,3.3-6.9,7.1-5.5
					c0.7,0.2,1.3,0.1,1.8-0.4c1.2-1.2,7-7,7.9-7.9c0.5-0.5,0.7-1.2,0.4-1.8c-0.7-1.9-0.3-3.9,1.1-5.4c1.1-1.2,2.7-1.8,4.3-1.7
					l-3.5,3.5c-0.3,0.3-0.5,0.8-0.3,1.3l0.6,2.3c0.1,0.5,0.5,0.8,0.9,0.9l2.3,0.6c0.5,0.1,0.9,0,1.3-0.3l3.5-3.5
					c0.2,1.7-0.5,3.3-1.7,4.4c-1.5,1.4-3.5,1.8-5.5,1.1l0,0c-0.5-0.2-1.2-0.1-1.6,0.3C56.5,32.1,50.1,38.6,49.3,39.4z"/>
			</g>
		</g>
		<g>
			<g>
				<path class="st2" d="M47.3,24.4l-1.7-1.7c-0.3-0.3-0.8-0.5-1.3-0.3L42,23c-0.5,0.1-0.8,0.5-0.9,0.9l-0.6,2.3
					c-0.1,0.5,0,0.9,0.3,1.3l1.7,1.7c0.3,0.3,0.6,0.4,0.9,0.4c0.2,0,0.1,0,2.7-0.7c0.5-0.1,0.8-0.5,0.9-0.9l0.6-2.3l0,0
					C47.7,25.2,47.6,24.7,47.3,24.4z M45.3,27.2l-1.7,0.5l-1.2-1.2l0.5-1.7l1.7-0.5l1.2,1.2L45.3,27.2z"/>
			</g>
		</g>
		<g>
			<g>
				<path class="st2" d="M64.1,41.4l-1.7-1.7c-0.3-0.3-0.8-0.5-1.3-0.3L58.9,40c-0.5,0.1-0.8,0.5-0.9,0.9l-0.6,2.3
					c-0.1,0.5,0,0.9,0.3,1.3l1.7,1.7c0.3,0.3,0.6,0.4,0.9,0.4c0.2,0,0.1,0,2.7-0.7c0.5-0.1,0.8-0.5,0.9-0.9l0.6-2.3l0,0
					C64.6,42.2,64.4,41.7,64.1,41.4z M62.2,44.2l-1.7,0.5l-1.2-1.2l0.5-1.7l1.7-0.5l1.2,1.2L62.2,44.2z"/>
			</g>
		</g>
		<g>
			<g>
				<path class="st2" d="M80.1,45.6c-1.7-1.7-4.3-1.7-6.7,0.5l-9.8,8.1c-0.5-1.2-1.7-2.4-3.9-2.4c-9.2,0-10.4-0.1-12.6,0.7l0,0
					l-6.2,2.6l-0.2-0.3c-0.4-1.1-1.6-1.6-2.7-1.2c-6.5,2.5-12,4.5-18,6.7c-1.1,0.4-1.7,1.7-1.3,2.9L25,79.8c0.4,1.1,1.7,1.7,2.9,1.3
					c0.7-0.3,17-6.4,18-6.7c1.1-0.4,1.6-1.6,1.2-2.7L47,71.4c3-1.3,3.3-1.5,5.9-1.5c0.5,0,0.9-0.4,0.9-0.9c0-0.5-0.4-0.9-0.9-0.9
					c-3,0.1-3.5,0.4-6.5,1.7l-4.9-13l6.3-2.6c1.8-0.7,2.9-0.5,11.9-0.5c1,0,1.7,0.3,2.1,1.1c0.3,0.5,0.4,1,0.4,1.1
					c0,0.4-0.3,2-1.9,2.3c-2.5,0.4-7.9,1.2-8,1.2c-0.5,0.1-0.9,0.5-0.8,1.1s0.5,0.9,1.1,0.8c0.1,0,5.5-0.8,8.1-1.2
					c2.3-0.4,3.2-2.4,3.4-3.7c11.2-9.3,10.6-8.8,10.7-8.9c1.1-1,2.6-1.9,4.1-0.5c1.7,1.7,0.1,3.7-0.2,4.1c0,0-13.4,14.4-13.5,14.4
					c-1.9,2.1-4.4,2.5-5.5,2.6c-0.9,0-1.7,0-2.5,0l0,0c-0.5,0-0.9,0.4-0.9,0.9s0.4,0.9,0.9,0.9c0.2,0,2.5,0,2.6,0
					c1.3-0.1,4.4-0.5,6.7-3.2c13.4-14.4,13.4-14.4,13.4-14.4l0,0C81.1,50.9,82.5,48,80.1,45.6z M27.2,79.4c-0.2,0.1-0.4,0-0.5-0.2
					l-6.3-16.6c-0.1-0.2,0-0.4,0.2-0.5c3.9-1.5,9.4-3.5,12.2-4.5l6.5,17.3L27.2,79.4z M45.3,72.3c0.1,0.1,0,0.3-0.1,0.3l-4.1,1.5
					l-6.5-17.3l4.1-1.5l0,0c0.1-0.1,0.3,0,0.3,0.1C39.2,56.1,45.1,71.7,45.3,72.3z"/>
			</g>
		</g>
	</g>
</g>
</svg>
