<?xml version="1.0" encoding="utf-8"?>
<!-- Generator: Adobe Illustrator 24.0.1, SVG Export Plug-In . SVG Version: 6.00 Build 0)  -->
<svg version="1.1" id="Layer_1" xmlns="http://www.w3.org/2000/svg" xmlns:xlink="http://www.w3.org/1999/xlink" x="0px" y="0px"
	 viewBox="0 0 100 100" style="enable-background:new 0 0 100 100;" xml:space="preserve">
<style type="text/css">
	.st0{fill:#F4F5FB;}
	.st1{fill:#1B5690;}
	.st2{fill:#F28E29;}
</style>
<g>
	<rect class="st0" width="100" height="100"/>
	<g>
		<path class="st1" d="M88.8,50c0,21.4-17.4,38.8-38.8,38.8c-10.3,0-20.2-4.1-27.5-11.3C9.3,64.3,7.4,43.5,18,28
			c0.4-0.5,1.2-0.7,1.7-0.4c0.5,0.4,0.7,1.2,0.4,1.7c0,0,0,0,0,0.1C8.8,46,13,68.6,29.4,80c14.4,9.9,33.9,8.2,46.3-4.3
			c14.2-14.2,14.2-37.2,0-51.4C63.4,12,44.2,10.2,29.8,19.8l2,2.3l-8.6,1.6l3-8.2l2,2.4c17.7-12,41.9-7.4,53.9,10.3
			C86.5,34.6,88.8,42.2,88.8,50z"/>
		<path class="st1" d="M50,81.3c17.2,0,31.3-14.1,31.3-31.3S67.2,18.7,50,18.7S18.7,32.8,18.7,50S32.8,81.3,50,81.3z M50,21.2
			c15.9,0,28.8,12.9,28.8,28.8S65.9,78.8,50,78.8S21.2,65.9,21.2,50S34.1,21.2,50,21.2z"/>
		<path class="st2" d="M50,26.2c0.7,0,1.2-0.5,1.2-1.2v-1.2c0-0.7-0.5-1.2-1.2-1.2s-1.2,0.5-1.2,1.2v1.2
			C48.8,25.6,49.3,26.2,50,26.2z"/>
		<path class="st2" d="M50,73.8c-0.7,0-1.2,0.5-1.2,1.2v1.2c0,0.7,0.5,1.2,1.2,1.2c0.7,0,1.2-0.5,1.2-1.2V75
			C51.2,74.4,50.7,73.8,50,73.8z"/>
		<path class="st2" d="M75.1,51.2h1.2c0.7,0,1.2-0.5,1.2-1.2s-0.5-1.2-1.2-1.2h-1.2c-0.7,0-1.2,0.5-1.2,1.2
			C73.8,50.7,74.4,51.2,75.1,51.2z"/>
		<path class="st2" d="M23.7,51.2h1.2c0.7,0,1.2-0.5,1.2-1.2s-0.5-1.2-1.2-1.2h-1.2c-0.7,0-1.2,0.5-1.2,1.2
			C22.4,50.7,23,51.2,23.7,51.2z"/>
		<path class="st2" d="M67.7,33.5c0.3,0,0.6-0.2,0.9-0.4l0.9-0.9c0.5-0.5,0.5-1.3,0-1.8c-0.5-0.5-1.3-0.5-1.8,0l0,0l-0.9,0.9
			c-0.5,0.5-0.5,1.3,0,1.8C67.1,33.4,67.4,33.5,67.7,33.5L67.7,33.5z"/>
		<path class="st2" d="M31.4,69.9c0.3,0,0.6-0.2,0.9-0.4l0.9-0.9c0.5-0.5,0.5-1.3,0-1.8s-1.3-0.5-1.8,0l-0.9,0.9
			c-0.5,0.5-0.5,1.3,0,1.8C30.7,69.7,31.1,69.9,31.4,69.9z"/>
		<path class="st2" d="M68.6,66.8c-0.5-0.5-1.3-0.5-1.8,0c-0.5,0.5-0.5,1.3,0,1.8l0.9,0.9c0.5,0.5,1.3,0.5,1.8,0
			c0.5-0.5,0.5-1.3,0-1.8L68.6,66.8z"/>
		<path class="st2" d="M31.4,33.1c0.5,0.5,1.3,0.5,1.8,0c0.5-0.5,0.5-1.3,0-1.8l0,0l-0.9-0.9c-0.5-0.5-1.3-0.5-1.8,0
			c-0.5,0.5-0.5,1.3,0,1.8l0,0L31.4,33.1z"/>
		<path class="st2" d="M31.5,54.1l10.7,10.7c0.5,0.5,1.3,0.5,1.8,0l0,0l24.5-24.5c0.5-0.5,0.5-1.3,0-1.8l0,0l-2.6-2.6
			c-0.5-0.5-1.3-0.5-1.8,0l0,0l-21,21l-7.2-7.2c-0.5-0.5-1.3-0.5-1.8,0l0,0l-2.6,2.7C31,52.8,31,53.6,31.5,54.1L31.5,54.1L31.5,54.1
			z M35,52.3l7.2,7.2c0.5,0.5,1.3,0.5,1.8,0l0,0l21-21l0.9,0.9L43.1,62.2l-8.9-9L35,52.3z"/>
	</g>
</g>
</svg>
