<?xml version="1.0" encoding="utf-8"?>
<!-- Generator: Adobe Illustrator 24.0.1, SVG Export Plug-In . SVG Version: 6.00 Build 0)  -->
<svg version="1.1" id="Layer_1" xmlns="http://www.w3.org/2000/svg" xmlns:xlink="http://www.w3.org/1999/xlink" x="0px" y="0px"
	 viewBox="0 0 100 100" style="enable-background:new 0 0 100 100;" xml:space="preserve">
<style type="text/css">
	.st0{fill:#F4F5FB;}
	.st1{fill:#F28E29;}
	.st2{fill:#1B5690;}
</style>
<g>
	<rect class="st0" width="100" height="100"/>
	<g>
		<g>
			<g>
				<path class="st1" d="M36.8,28.9c-0.6,0-1.1,0.5-1.1,1.1c0,1.3-1.1,2.4-2.4,2.4c-1.3,0-2.4-1.1-2.4-2.4c0-1.3,1.1-2.4,2.4-2.4
					c0.6,0,1.1-0.5,1.1-1.1s-0.5-1.1-1.1-1.1c-2.5,0-4.6,2-4.6,4.6s2,4.6,4.6,4.6c2.5,0,4.6-2,4.6-4.6
					C37.8,29.4,37.3,28.9,36.8,28.9z"/>
			</g>
		</g>
		<g>
			<g>
				<path class="st1" d="M36.8,41.8c-0.6,0-1.1,0.5-1.1,1.1c0,1.3-1.1,2.4-2.4,2.4c-1.3,0-2.4-1.1-2.4-2.4s1.1-2.4,2.4-2.4
					c0.6,0,1.1-0.5,1.1-1.1s-0.5-1.1-1.1-1.1c-2.5,0-4.6,2-4.6,4.6c0,2.5,2,4.6,4.6,4.6s4.6-2,4.6-4.6
					C37.8,42.3,37.3,41.8,36.8,41.8z"/>
			</g>
		</g>
		<g>
			<g>
				<path class="st2" d="M49.4,44.2h-8.1c-0.6,0-1.1,0.5-1.1,1.1c0,0.6,0.5,1.1,1.1,1.1h8.1c0.6,0,1.1-0.5,1.1-1.1
					C50.5,44.7,50,44.2,49.4,44.2z"/>
			</g>
		</g>
		<g>
			<g>
				<path class="st2" d="M49.4,39.5h-8.1c-0.6,0-1.1,0.5-1.1,1.1s0.5,1.1,1.1,1.1h8.1c0.6,0,1.1-0.5,1.1-1.1S50,39.5,49.4,39.5z"/>
			</g>
		</g>
		<g>
			<g>
				<path class="st2" d="M47.1,57.1h-5.8c-0.6,0-1.1,0.5-1.1,1.1s0.5,1.1,1.1,1.1h5.8c0.6,0,1.1-0.5,1.1-1.1S47.7,57.1,47.1,57.1z"
					/>
			</g>
		</g>
		<g>
			<g>
				<path class="st2" d="M49.4,52.4h-8.1c-0.6,0-1.1,0.5-1.1,1.1s0.5,1.1,1.1,1.1h8.1c0.6,0,1.1-0.5,1.1-1.1S50,52.4,49.4,52.4z"/>
			</g>
		</g>
		<g>
			<g>
				<path class="st2" d="M59.8,31.3H41.3c-0.6,0-1.1,0.5-1.1,1.1c0,0.6,0.5,1.1,1.1,1.1h18.4c0.6,0,1.1-0.5,1.1-1.1
					C60.9,31.8,60.4,31.3,59.8,31.3z"/>
			</g>
		</g>
		<g>
			<g>
				<path class="st2" d="M55.2,26.6H41.3c-0.6,0-1.1,0.5-1.1,1.1s0.5,1.1,1.1,1.1h13.8c0.6,0,1.1-0.5,1.1-1.1S55.8,26.6,55.2,26.6z"
					/>
			</g>
		</g>
		<g>
			<g>
				<path class="st1" d="M36.8,54.8c-0.6,0-1.1,0.5-1.1,1.1c0,1.3-1.1,2.4-2.4,2.4c-1.3,0-2.4-1.1-2.4-2.4s1.1-2.4,2.4-2.4
					c0.6,0,1.1-0.5,1.1-1.1s-0.5-1.1-1.1-1.1c-2.5,0-4.6,2-4.6,4.6c0,2.5,2,4.6,4.6,4.6s4.6-2,4.6-4.6
					C37.8,55.3,37.3,54.8,36.8,54.8z"/>
			</g>
		</g>
		<g>
			<g>
				<path class="st2" d="M64.4,14.8H25.2c-1.8,0-3.4,1.5-3.4,3.4v49.4c0,1.9,1.5,3.4,3.4,3.4h19.6c0.6,0,1.1-0.5,1.1-1.1
					s-0.5-1.1-1.1-1.1H25.2c-0.7,0-1.2-0.6-1.2-1.3V18.2c0-0.7,0.6-1.3,1.2-1.3h39.1c0.7,0,1.2,0.6,1.2,1.3v36.5
					c0,0.6,0.5,1.1,1.1,1.1c0.6,0,1.1-0.5,1.1-1.1V18.2C67.8,16.3,66.3,14.8,64.4,14.8z"/>
			</g>
		</g>
		<g>
			<g>
				<path class="st1" d="M74.6,59.5c-1-0.1-2,0.2-2.8,0.8c-0.6-1.1-1.7-1.8-3-2c-1-0.1-2,0.2-2.8,0.8c-0.6-1.1-1.7-1.8-3-2
					c-0.8-0.1-1.5,0.1-2.2,0.4v-14c0-1.1-0.5-2.3-1.3-3s-2-1.1-3-1c-2,0.2-3.6,2-3.6,4.2v14.1l-3.2,3.2c-1.7,1.7-2.4,4.2-1.8,6.5
					L50.4,78c1,4.2,4.6,7.2,8.9,7.2H69c5.1,0,9.2-4.2,9.2-9.4V63.7C78.2,61.5,76.6,59.7,74.6,59.5z M76,75.8c0,3.9-3.2,7.1-7,7.1
					h-9.7c-3.2,0-6.1-2.3-6.8-5.5L50.1,67c-0.4-1.6,0.1-3.3,1.3-4.4l1.6-1.7v3.8c0,0.6,0.5,1.1,1.1,1.1s1.1-0.5,1.1-1.1v-21
					c0-1.1,0.7-1.9,1.6-2c0.5-0.1,1,0.1,1.4,0.5c0.4,0.4,0.6,0.8,0.6,1.3V63c0,0.6,0.5,1.1,1.1,1.1s1.1-0.5,1.1-1.1v-1.8
					c0-0.5,0.2-1,0.6-1.3c0.4-0.4,0.8-0.5,1.4-0.5c0.9,0.1,1.6,1,1.6,2v2.7c0,0.6,0.5,1.1,1.1,1.1s1.1-0.5,1.1-1.1v-1.8
					c0-0.5,0.2-1,0.6-1.3s0.8-0.5,1.4-0.5c0.9,0.1,1.6,1,1.6,2v2.7c0,0.6,0.5,1.1,1.1,1.1s1.1-0.5,1.1-1.1v-1.8c0-0.5,0.2-1,0.6-1.3
					c0.4-0.4,0.8-0.5,1.4-0.5c1.2,0.2,1.9,1.1,1.9,2.1L76,75.8L76,75.8z"/>
			</g>
		</g>
	</g>
</g>
</svg>
