<?xml version="1.0" encoding="utf-8"?>
<!-- Generator: Adobe Illustrator 24.0.1, SVG Export Plug-In . SVG Version: 6.00 Build 0)  -->
<svg version="1.1" id="Layer_1" xmlns="http://www.w3.org/2000/svg" xmlns:xlink="http://www.w3.org/1999/xlink" x="0px" y="0px"
	 viewBox="0 0 100 100" style="enable-background:new 0 0 100 100;" xml:space="preserve">
<style type="text/css">
	.st0{fill:#F3F5FB;}
	.st1{fill:#1B5690;}
	.st2{fill:#F28E29;}
	.st3{fill:#E30613;}
	.st4{fill:#F9B233;}
	.st5{fill:url(#SVGID_1_);stroke:#432918;stroke-width:0.25;stroke-miterlimit:10;}
	.st6{fill:url(#SVGID_2_);}
	.st7{fill:#F5AEBF;}
	.st8{fill:#FFFFFF;}
	.st9{fill:url(#SVGID_3_);stroke:#432918;stroke-width:0.25;stroke-miterlimit:10;}
	.st10{fill:url(#SVGID_4_);}
	.st11{fill:url(#SVGID_5_);}
	.st12{fill:url(#SVGID_6_);stroke:#432918;stroke-width:0.25;stroke-miterlimit:10;}
	.st13{fill:url(#SVGID_7_);}
	.st14{fill:url(#SVGID_8_);}
	.st15{fill:url(#SVGID_9_);stroke:#432918;stroke-width:0.25;stroke-miterlimit:10;}
	.st16{fill:url(#SVGID_10_);}
	.st17{fill:url(#SVGID_11_);}
	.st18{fill:url(#SVGID_12_);}
	.st19{fill:#B3DCDA;}
	.st20{fill:url(#SVGID_13_);stroke:#432918;stroke-width:0.25;stroke-miterlimit:10;}
	.st21{fill:url(#SVGID_14_);}
	.st22{fill:url(#SVGID_15_);}
	.st23{fill:none;stroke:#F28E29;stroke-miterlimit:10;}
	.st24{fill:none;stroke:#1B5690;stroke-miterlimit:10;}
	.st25{fill:#020203;}
	.st26{fill:#F9B259;}
	.st27{fill:#1F2D53;}
	.st28{fill:url(#SVGID_16_);}
	.st29{fill:url(#SVGID_17_);}
	.st30{fill:url(#SVGID_18_);stroke:#432918;stroke-width:0.25;stroke-miterlimit:10;}
</style>
<rect class="st0" width="100" height="100"/>
<g>
	<path class="st1" d="M46.4,66.9c0-7.3-6-13.3-13.3-13.3s-13.3,6-13.3,13.3s6,13.3,13.3,13.3S46.4,74.3,46.4,66.9z M33.1,77.8
		c-6,0-10.9-4.9-10.9-10.9S27.1,56,33.1,56S44,60.9,44,66.9S39.1,77.8,33.1,77.8z"/>
	<path class="st2" d="M33.1,63.3c0.7,0,1.2,0.5,1.2,1.2h2.4c0-1.6-1-2.9-2.4-3.4v-2.6h-2.4v2.4h-2.4v3.6c0,2,1.6,3.6,3.6,3.6
		c0.7,0,1.2,0.5,1.2,1.2v1.2h-1.2c-0.7,0-1.2-0.5-1.2-1.2h-2.4c0,1.6,1,2.9,2.4,3.4v2.6h2.4V73h2.4v-3.6c0-2-1.6-3.6-3.6-3.6
		c-0.7,0-1.2-0.5-1.2-1.2v-1.2H33.1z"/>
	<path class="st2" d="M24.6,65.7H27v2.4h-2.4V65.7z"/>
	<path class="st2" d="M39.1,65.7h2.4v2.4h-2.4V65.7z"/>
	<path class="st2" d="M85.1,63.3c0-7.5-4.9-13.9-11.7-16.1c2.7-1.7,4.4-4.7,4.4-8.1c0-5.3-4.3-9.7-9.7-9.7c-5.3,0-9.7,4.3-9.7,9.7
		c0,3.4,1.8,6.4,4.4,8.1c-2.5,0.8-4.8,2.2-6.7,4.1c-2.8,2.8-4.5,6.4-4.9,10.3l-1-0.3c-0.3-0.9-0.7-1.8-1.1-2.6l1.6-3.1L50,54.8v-8.4
		c0-7.5-4.9-13.9-11.7-16.1c2.7-1.7,4.4-4.7,4.4-8.1c0-5.3-4.3-9.7-9.7-9.7s-9.7,4.3-9.7,9.7c0,3.4,1.8,6.4,4.4,8.1
		c-6.8,2.2-11.7,8.6-11.7,16.1v8.4l-0.8,0.8l1.6,3.1c-0.4,0.8-0.8,1.7-1.1,2.6l-3.3,1.1v9l3.3,1.1c0.3,0.9,0.7,1.8,1.1,2.6l-1.6,3.1
		l6.4,6.4l3.1-1.6c0.8,0.4,1.7,0.8,2.6,1.1l1.1,3.3h4.5h4.5h47.5V70.6c1.3,0,2.4-1.1,2.4-2.4v-2.4C87.5,64.4,86.4,63.3,85.1,63.3
		L85.1,63.3z M82.7,63.3H79v-4.8h-2.4v4.8h-6.4l6.6-11.6C80.4,54.4,82.7,58.6,82.7,63.3z M68.1,48.8c1,0,1.9,0.1,2.8,0.3l-2.8,2.8
		l-2.9-2.9C66.2,48.9,67.2,48.8,68.1,48.8z M71.6,56l-1.8-2.3l3.9-3.9c0.4,0.2,0.8,0.4,1.2,0.6L71.6,56z M66.5,53.7L64.7,56
		l-3.2-5.6c0.4-0.2,0.8-0.4,1.2-0.6L66.5,53.7z M68.1,55.6l2.2,2.7l-2.2,3.8L66,58.3L68.1,55.6z M60.9,39.1c0-4,3.3-7.3,7.3-7.3
		s7.3,3.3,7.3,7.3s-3.3,7.3-7.3,7.3S60.9,43.1,60.9,39.1z M57.9,53c0.5-0.5,1-0.9,1.6-1.3l6.6,11.6h-6.4v-4.8h-2.4v4.8h-3.6
		C53.6,59.4,55.1,55.8,57.9,53z M47.6,46.4v6l-3.2-3.2L44,49.4v-7.9h-2.4v9.1l-0.2,0.1c-0.8-0.4-1.7-0.8-2.6-1.1l-1.1-3.3h-2.4
		l6.6-11.6C45.3,37.4,47.6,41.6,47.6,46.4L47.6,46.4z M26.4,33.5c1.2-0.6,2.4-1.1,3.7-1.3l-1.1,6L26.4,33.5z M32.6,31.9
		c0.1,0,0.3,0,0.4,0s0.3,0,0.4,0l1.7,9.5l-2.1,3.7l-2.1-3.7L32.6,31.9z M37.1,38.1l-1.1-6c1.3,0.3,2.6,0.7,3.7,1.3L37.1,38.1z
		 M25.8,22.2c0-4,3.3-7.3,7.3-7.3s7.3,3.3,7.3,7.3s-3.3,7.3-7.3,7.3S25.8,26.2,25.8,22.2z M18.5,46.4c0-4.7,2.3-8.9,5.8-11.6
		L31,46.4h-2.4l-1.1,3.3c-0.9,0.3-1.8,0.7-2.6,1.1l-0.2-0.1v-9.1h-2.4v7.9l-0.5-0.2l-3.2,3.2L18.5,46.4z M33.1,85.1h-2.8l-1-2.9
		L28.7,82c-1.2-0.3-2.3-0.8-3.3-1.4l-0.6-0.3l-2.7,1.3l-3.9-3.9l1.3-2.7l-0.3-0.6c-0.6-1-1-2.1-1.4-3.3l-0.2-0.6l-2.9-1v-5.5l2.9-1
		l0.2-0.6c0.3-1.2,0.8-2.3,1.4-3.3l0.3-0.6l-1.3-2.7l3.9-3.9l2.7,1.3l0.6-0.3c1-0.6,2.1-1,3.3-1.4l0.6-0.2l1-2.9h5.5l1,2.9l0.6,0.2
		c1.2,0.3,2.3,0.8,3.3,1.4l0.6,0.3l2.7-1.3l3.9,3.9l-1.3,2.7l0.3,0.6c0.6,1,1,2.1,1.4,3.3l0.2,0.6l2.9,1v0.3v5.2l-2.9,1l-0.2,0.6
		c-0.3,1.2-0.8,2.3-1.4,3.3l-0.3,0.6l1.3,2.7l-3.9,3.9l-2.7-1.3l-0.6,0.3c-1,0.6-2.1,1-3.3,1.4l-0.6,0.2l-1,2.9H33.1z M82.7,85.1
		H38.4l0.3-0.9c0.9-0.3,1.8-0.7,2.6-1.1l3.1,1.6l6.4-6.4l-1.6-3.1c0.4-0.8,0.8-1.7,1.1-2.6l3.3-1.1v-0.9h29V85.1z M85.1,68.1H53.6
		v-2.4h31.5V68.1z"/>
	<path class="st1" d="M77.8,80.2h2.4v2.4h-2.4V80.2z"/>
	<path class="st1" d="M73,80.2h2.4v2.4H73V80.2z"/>
	<path class="st1" d="M68.1,80.2h2.4v2.4h-2.4V80.2z"/>
</g>
</svg>
