<svg id="Layer_1" data-name="Layer 1" xmlns="http://www.w3.org/2000/svg" width="1080" height="1080" viewBox="0 0 1080 1080">
  <defs>
    <style>
      .cls-1 {
        fill: #f5f5f5;
      }

      .cls-2 {
        fill: #e0e0e0;
      }

      .cls-3 {
        fill: #37474f;
      }

      .cls-4 {
        fill: #263238;
      }

      .cls-5 {
        fill: #455a64;
      }

      .cls-6 {
        fill: #13548d;
      }

      .cls-19, .cls-22, .cls-25, .cls-26, .cls-28, .cls-7 {
        fill: #fff;
      }

      .cls-21, .cls-7 {
        opacity: 0.7;
      }

      .cls-11, .cls-13, .cls-15, .cls-16, .cls-17, .cls-18, .cls-19, .cls-25, .cls-26, .cls-28, .cls-7, .cls-9 {
        isolation: isolate;
      }

      .cls-8 {
        opacity: 0.43;
      }

      .cls-9 {
        opacity: 0.1;
      }

      .cls-10 {
        fill: #fafafa;
      }

      .cls-11 {
        opacity: 0.05;
      }

      .cls-12 {
        fill: #ebebeb;
      }

      .cls-13 {
        opacity: 0.15;
      }

      .cls-14 {
        fill: #fd8f1f;
      }

      .cls-15 {
        opacity: 0.2;
      }

      .cls-16 {
        opacity: 0.25;
      }

      .cls-17, .cls-25 {
        opacity: 0.3;
      }

      .cls-18, .cls-19 {
        opacity: 0.4;
      }

      .cls-20 {
        fill: #f28f8f;
      }

      .cls-23 {
        fill: #ffa8a7;
      }

      .cls-24 {
        fill: #b16668;
      }

      .cls-26 {
        opacity: 0.65;
      }

      .cls-27 {
        fill: #f0f0f0;
      }

      .cls-28 {
        opacity: 0.5;
      }
    </style>
  </defs>
  <title>403-forbidden</title>
  <g>
    <g id="freepik--Floor--inject-34">
      <ellipse id="freepik--floor--inject-34-2" data-name="freepik--floor--inject-34" class="cls-1" cx="540" cy="856.28" rx="495" ry="223.72"/>
    </g>
    <g id="freepik--Bricks--inject-34">
      <path class="cls-2" d="M195.11,481.72v8.16c0,2.58,1.81,3.62,4,2.37l7.89-4.54V470.13l-7.89,4.72A8.91,8.91,0,0,0,195.11,481.72Z"/>
      <path class="cls-2" d="M170.11,474.85V483c0,2.58,1.82,3.61,4,2.36L207,466.47V448.89l-32.86,18.88A8.94,8.94,0,0,0,170.11,474.85Z"/>
      <path class="cls-2" d="M187.91,567l-37.34,21.54a9,9,0,0,0-4,7.08v8.17c0,2.57,1.82,3.61,4,2.36l37.34-21.55a8.89,8.89,0,0,0,4-7.08v-8.28C191.94,566.76,190.13,565.72,187.91,567Z"/>
      <path class="cls-2" d="M207,663.38l-32.88,18.88a8.93,8.93,0,0,0-4,7.08v8.17c0,2.57,1.82,3.61,4,2.36L207,681Z"/>
      <path class="cls-2" d="M170.11,388.92v8c0,2.58,1.82,3.62,4,2.36L207,380.44V363l-32.88,18.88A9,9,0,0,0,170.11,388.92Z"/>
      <path class="cls-2" d="M132.73,646.93v8.17c0,2.57,1.79,3.61,4,2.36l37.41-21.57a8.91,8.91,0,0,0,4-7.09v-8.16c0-2.57-1.8-3.61-4-2.36l-37.41,21.78A8.91,8.91,0,0,0,132.73,646.93Z"/>
      <path class="cls-2" d="M170.11,560.57v8.17c0,2.57,1.82,3.61,4,2.36L207,552.22V534.73l-32.86,18.88A8.94,8.94,0,0,0,170.11,560.57Z"/>
      <path class="cls-2" d="M167,699.28v-8.14c0-2.58-1.79-3.64-4-2.36l-37.33,21.55a8.93,8.93,0,0,0-4,7.08v8.16c0,2.57,1.82,3.61,4,2.36l37.33-21.57A8.82,8.82,0,0,0,167,699.28Z"/>
      <path class="cls-2" d="M167.09,364.7,129.8,386.25a9,9,0,0,0-4,7.08v8.17c0,2.57,1.81,3.61,4,2.36l37.29-21.67a9,9,0,0,0,4-7.08v-8.17C171.18,364.46,169.45,363.43,167.09,364.7Z"/>
      <path class="cls-2" d="M187.91,395.34l-37.34,21.54a9,9,0,0,0-4,7.09v8.16c0,2.57,1.82,3.61,4,2.36l37.34-21.57a8.89,8.89,0,0,0,4-7.08v-8.17C191.94,395.08,190.13,394,187.91,395.34Z"/>
      <path class="cls-2" d="M187.91,481.18l-37.34,21.54a9,9,0,0,0-4,7.08V518c0,2.57,1.82,3.61,4,2.36l37.34-21.55a8.89,8.89,0,0,0,4-7.08v-8.16C191.94,480.92,190.13,479.88,187.91,481.18Z"/>
      <path class="cls-2" d="M150.57,734.8l37.34-21.57a9,9,0,0,0,4-7.08V698c0-2.57-1.81-3.61-4-2.36l-37.34,21.69a9,9,0,0,0-4,7.08v8.17C146.53,735,148.35,736.07,150.57,734.8Z"/>
      <path class="cls-2" d="M506.13,330.69v8.17a8.92,8.92,0,0,1-4,7.08l-7.88,4.55V333l7.88-4.53C504.34,327.08,506.13,328.12,506.13,330.69Z"/>
      <path class="cls-2" d="M494.24,612l32.87-18.88c2.22-1.3,4-.23,4,2.36v8.14a8.92,8.92,0,0,1-4,7.09l-32.87,18.88Z"/>
      <path class="cls-2" d="M531.13,294.86V303a9,9,0,0,1-4,7.08L494.24,329V311.53l32.87-18.89C529.33,291.25,531.13,292.29,531.13,294.86Z"/>
      <path class="cls-2" d="M513.35,407.68l37.34-21.57c2.22-1.28,4-.24,4,2.36v8.16a9,9,0,0,1-4,7.08l-37.34,21.55c-2.36,1.3-4,.24-4-2.36v-8.23A8.82,8.82,0,0,1,513.35,407.68Z"/>
      <path class="cls-2" d="M494.24,526.11l32.87-18.88c2.22-1.27,4-.23,4,2.36v8.14a8.92,8.92,0,0,1-4,7.09L494.24,543.7Z"/>
      <path class="cls-2" d="M531.13,209v8.17a8.88,8.88,0,0,1-4,7.08l-32.87,18.88V225.69l32.87-18.88C529.33,205.41,531.13,206.45,531.13,209Z"/>
      <path class="cls-2" d="M568.53,423.87V432a8.89,8.89,0,0,1-4,7.08l-37.34,21.57c-2.22,1.3-4,.26-4-2.36v-8.17a8.89,8.89,0,0,1,4-7.08l37.34-21.55C566.74,420.26,568.53,421.3,568.53,423.87Z"/>
      <path class="cls-2" d="M531.13,380.7v8.17a9,9,0,0,1-4,7.08l-32.87,18.88V397.37l32.87-18.89C529.33,377.09,531.13,378.08,531.13,380.7Z"/>
      <path class="cls-2" d="M534.31,515.75v-8.16a8.88,8.88,0,0,1,4-7.08L575.69,479c2.21-1.3,4-.26,4,2.36v8.16a8.91,8.91,0,0,1-4,7.08l-37.34,21.58C536.11,519.36,534.31,518.32,534.31,515.75Z"/>
      <path class="cls-2" d="M513.35,236l37.34-21.57c2.22-1.28,4-.24,4,2.36V225a9,9,0,0,1-4,7.09l-37.34,21.54c-2.36,1.3-4,.24-4-2.36v-8.16A8.84,8.84,0,0,1,513.35,236Z"/>
      <path class="cls-2" d="M513.35,321.84l37.34-21.64c2.22-1.28,4-.24,4,2.36v8.16a9,9,0,0,1-4,7.08l-37.34,21.55c-2.36,1.3-4,.24-4-2.36v-8.14A8.85,8.85,0,0,1,513.35,321.84Z"/>
      <path class="cls-2" d="M550.69,532.34l-37.34,21.58c-2.36,1.27-4,.23-4-2.36v-8.17a8.89,8.89,0,0,1,4-7.08L550.69,515c2.22-1.29,4-.23,4,2.36v8.17A8.92,8.92,0,0,1,550.69,532.34Z"/>
      <path class="cls-2" d="M494.24,654.86,527.11,636c2.22-1.27,4-.24,4,2.36v8.17a9,9,0,0,1-4,7.08l-32.87,18.88Z"/>
    </g>
    <g id="freepik--door--inject-34">
      <path class="cls-3" d="M207,923.28V339a28.32,28.32,0,0,1,12.79-22.14l252.82-146a9,9,0,0,1,9-.89l8.76,5.12a8.93,8.93,0,0,1,3.77,8.28V767.65L475.78,778.3l-15-8.66L234.24,900.44v17.3l-18.43,10.64Z"/>
      <path class="cls-4" d="M266.88,881.56l-32.69,18.88v17.3l-18.43,10.64-8.73-5V339a26,26,0,0,1,3.77-12.63l55.66,32.15Z"/>
      <path class="cls-5" d="M215.76,344.07V928.34l18.43-10.63V900.44l226.58-130.8,15,8.63,18.44-10.62V183.32c0-8.19-5.74-11.45-12.75-7.39l-253,146A28.33,28.33,0,0,0,215.76,344.07Z"/>
      <polygon class="cls-6" points="234.19 347.17 234.19 907.66 467.07 773.22 467.07 212.75 234.19 347.17"/>
      <polygon class="cls-7" points="234.19 347.17 234.19 907.66 467.07 773.22 467.07 212.75 234.19 347.17"/>
      <g class="cls-8">
        <path class="cls-6" d="M273.89,838.93V370.08l153.41-88.6V750.31Zm6.49-465.12v454L421,746.58V292.64Z"/>
        <path class="cls-9" d="M273.89,370.08V838.93L427.3,750.31V281.48ZM421,746.58,280.38,827.77v-454L421,292.64Z"/>
      </g>
      <polygon class="cls-4" points="467.07 773.22 467.07 212.75 475.69 207.75 475.71 778.3 467.07 773.22"/>
      <polygon class="cls-2" points="234.19 917.71 475.71 778.3 467.07 773.22 234.19 907.66 234.19 917.71"/>
    </g>
    <g id="freepik--Latch--inject-34">
      <polygon class="cls-2" points="238.7 557.98 243.35 560.67 243.37 637.91 238.7 635.23 238.7 557.98"/>
      <polygon class="cls-10" points="243.35 560.67 268.44 546.17 268.46 623.42 243.37 637.91 243.35 560.67"/>
      <path class="cls-11" d="M268.58,567.44l-11,6.33v12.55a1.51,1.51,0,0,0,2.36,1.3l8.73-5Z"/>
      <polygon class="cls-12" points="268.44 546.17 263.79 543.48 238.7 557.98 243.35 560.67 268.44 546.17"/>
      <path class="cls-2" d="M253,571.19l11.52,6.64,4.6-8-11.52-6.63h0a2.22,2.22,0,0,0-2.36.21,7.09,7.09,0,0,0-3.26,5.64A2.36,2.36,0,0,0,253,571.19Z"/>
      <polygon class="cls-9" points="257.46 573.77 261.64 576.2 261.64 570.7 266.1 568.13 261.92 565.72 257.46 568.27 257.46 573.77"/>
      <polygon class="cls-10" points="263.03 571.57 263.03 583.63 309.06 557.08 309.06 545.02 263.03 571.57"/>
      <polygon class="cls-2" points="263.03 571.57 258.86 569.14 258.86 581.22 263.03 583.63 263.03 571.57"/>
      <polygon class="cls-12" points="309.06 545.02 304.88 542.59 258.86 569.14 263.03 571.57 309.06 545.02"/>
      <path class="cls-5" d="M251.68,605.2a9.42,9.42,0,0,1,4.23-7.31c2.36-1.35,4.22-.26,4.22,2.36a9.25,9.25,0,0,1-2.55,5.94v7.91a3.17,3.17,0,0,1-1.44,2.48l-.47.28a.89.89,0,0,1-1.44-.82v-7.89C252.72,608.34,251.68,607.21,251.68,605.2Z"/>
    </g>
    <path class="cls-13" d="M317,420.94l71-41c4.23-2.36,7.67-.47,7.67,4.41v48.74a17,17,0,0,1-7.67,13.29l-71,41c-4.22,2.36-7.67.45-7.67-4.43V434.21A17,17,0,0,1,317,420.94Z"/>
    <path class="cls-5" d="M319.68,422.93l71-41c4.22-2.36,7.67-.47,7.67,4.42v48.74a17,17,0,0,1-7.67,13.28l-71,41c-4.25,2.36-7.67.44-7.67-4.44V436.29A16.84,16.84,0,0,1,319.68,422.93Z"/>
    <path class="cls-4" d="M340.78,415.85h-.19a.86.86,0,0,1-.69-1v0l14.4-63a.85.85,0,0,1,.83-.68h0a.87.87,0,0,1,.85.61l14.39,46.38a.89.89,0,1,1-1.7.52l-13.4-43.21-13.52,59.8A.91.91,0,0,1,340.78,415.85Z"/>
    <path class="cls-14" d="M322.06,469.85a1.72,1.72,0,0,1-.21-1V443.29a3.15,3.15,0,0,1,.21-1.29,1.33,1.33,0,0,1,.69-.73l7.71-4.47a.42.42,0,0,1,.55.12,3.94,3.94,0,0,1,.14,1.23v1.06a6.17,6.17,0,0,1-.14,1.42,1.19,1.19,0,0,1-.55.73l-5.09,2.95v7.08l4.57-2.5a.38.38,0,0,1,.52.12,3.11,3.11,0,0,1,.17,1.25v1a4.47,4.47,0,0,1-.17,1.41,1.27,1.27,0,0,1-.52.76L325.37,456v7.74l5.12-3a.34.34,0,0,1,.5,0l0,0a3.76,3.76,0,0,1,.14,1.25v1.06a5.82,5.82,0,0,1-.14,1.44,1.33,1.33,0,0,1-.52.71l-7.74,4.48C322.42,470,322.18,470,322.06,469.85Z"/>
    <path class="cls-14" d="M334.15,462.11v-26a2.84,2.84,0,0,1,.23-1.25,1.73,1.73,0,0,1,.69-.78l4.27-2.36q5.31-3.09,5.31,4.72a14,14,0,0,1-2.36,8.34V445c.71.19,1.3,1.32,1.79,3.4l1.61,7a1,1,0,0,0,0,.24.88.88,0,0,1,0,.23q0,1-1.44,1.77l-.76.45c-.82.47-1.3.43-1.37-.14l-1.46-7.08a2.86,2.86,0,0,0-.73-1.51c-.29-.19-.69-.12-1.25.21l-1,.57v10.05a2.38,2.38,0,0,1-1.4,2l-.73.4C334.66,463.05,334.15,462.88,334.15,462.11ZM339.53,444a3.32,3.32,0,0,0,1.2-1.8,9.12,9.12,0,0,0,.52-3.23,4.77,4.77,0,0,0-.5-2.6.93.93,0,0,0-1.34-.14l-1.8,1v7.84Z"/>
    <path class="cls-14" d="M348,454.1v-26a3.23,3.23,0,0,1,.21-1.27,1.91,1.91,0,0,1,.71-.78l4.27-2.36q5.31-3.09,5.31,4.72a14,14,0,0,1-2.36,8.33v.14c.71.21,1.3,1.35,1.8,3.42l1.58,6.94v.5c0,.61-.47,1.2-1.44,1.75l-.76.44c-.85.48-1.3.43-1.39-.14l-1.44-7.08a2.77,2.77,0,0,0-.73-1.48c-.28-.19-.71-.15-1.28.18l-1,.57V452.1a2.38,2.38,0,0,1-1.42,2l-.71.43C348.45,455,348,454.91,348,454.1ZM353.38,436a3.16,3.16,0,0,0,1.2-1.79,9.57,9.57,0,0,0,.5-3.23,4.56,4.56,0,0,0-.47-2.57.93.93,0,0,0-1.29-.22l-.06.05-1.79,1v7.86Z"/>
    <path class="cls-14" d="M361.31,433.22q0-14.52,6.82-18.46T375,425.33q0,14.6-6.82,18.53T361.31,433.22Zm9.28,2.36a32.5,32.5,0,0,0,.78-8.17,21.84,21.84,0,0,0-.78-7.24c-.52-1.22-1.31-1.5-2.36-.85a5.83,5.83,0,0,0-2.36,3.68,31.38,31.38,0,0,0-.78,8.14,21.76,21.76,0,0,0,.78,7.27c.54,1.23,1.34,1.51,2.36.87a6.05,6.05,0,0,0,2.36-3.7Z"/>
    <path class="cls-14" d="M378,436.8v-26a3.24,3.24,0,0,1,.22-1.27,1.61,1.61,0,0,1,.7-.78l4.25-2.36q5.36-3.09,5.34,4.72a14,14,0,0,1-2.48,8.33v.14c.68.21,1.3,1.35,1.79,3.42l1.58,6.94a.49.49,0,0,1,0,.24.57.57,0,0,1,0,.26c0,.61-.47,1.2-1.41,1.75l-.78.44c-.83.48-1.28.43-1.37-.14l-1.46-7.08a2.62,2.62,0,0,0-.74-1.48c-.25-.22-.68-.15-1.25.18l-1,.57v10a2.38,2.38,0,0,1-1.42,2l-.71.4C378.42,437.72,378,437.58,378,436.8Zm5.36-18.15a3.1,3.1,0,0,0,1.23-1.79,9.56,9.56,0,0,0,.49-3.23,4.67,4.67,0,0,0-.49-2.6.91.91,0,0,0-1.29-.16l0,0-1.8,1v7.83Z"/>
    <polygon class="cls-15" points="215.55 821.47 206.81 816.49 206.84 845.87 215.55 850.85 215.55 821.47"/>
    <polygon class="cls-6" points="215.55 813.63 205.68 807.87 205.7 837.26 215.55 843.01 215.55 813.63"/>
    <polygon class="cls-15" points="215.55 813.63 205.68 807.87 205.7 837.26 215.55 843.01 215.55 813.63"/>
    <polygon class="cls-16" points="494.05 455.99 215.55 821.47 215.57 850.85 494.05 485.4 494.05 455.99"/>
    <polygon class="cls-6" points="494.05 448.18 215.55 813.63 215.57 843.01 494.05 477.56 494.05 448.18"/>
    <polygon class="cls-14" points="494.05 477.52 494.05 464.18 480.24 466.31 468.75 481.39 494.05 477.52"/>
    <polygon class="cls-14" points="459.61 522.81 434.22 526.7 422.7 541.81 448.12 537.89 459.61 522.81"/>
    <polygon class="cls-14" points="482.62 492.6 457.23 496.49 445.71 511.6 471.13 507.7 482.62 492.6"/>
    <polygon class="cls-14" points="436.6 553 411.2 556.91 399.69 572 425.11 568.1 436.6 553"/>
    <polygon class="cls-14" points="413.59 583.21 388.17 587.1 376.68 602.21 402.07 598.31 413.59 583.21"/>
    <polygon class="cls-14" points="390.58 613.42 365.16 617.31 353.66 632.42 379.06 628.52 390.58 613.42"/>
    <polygon class="cls-5" points="367.56 643.6 342.15 647.52 330.63 662.6 356.05 658.71 367.56 643.6"/>
    <polygon class="cls-14" points="344.53 673.81 319.13 677.71 307.62 692.81 333.04 688.92 344.53 673.81"/>
    <polygon class="cls-14" points="321.52 704.02 296.12 707.92 284.61 723.02 310.02 719.13 321.52 704.02"/>
    <polygon class="cls-14" points="298.51 734.21 273.09 738.13 261.59 753.21 287.01 749.32 298.51 734.21"/>
    <polygon class="cls-14" points="275.5 764.42 250.08 768.32 238.58 783.42 263.98 779.53 275.5 764.42"/>
    <polygon class="cls-14" points="252.48 794.63 227.06 798.52 215.55 813.63 240.97 809.71 252.48 794.63"/>
    <polygon class="cls-14" points="229.42 824.84 215.55 826.97 215.55 843.01 217.91 839.92 229.42 824.84"/>
    <polygon class="cls-16" points="215.55 617.69 494.05 654.06 494.05 683.44 215.55 647.1 215.55 617.69"/>
    <polygon class="cls-6" points="215.55 612.73 494.05 649.08 494.05 678.46 215.55 642.12 215.55 612.73"/>
    <polygon class="cls-15" points="215.55 617.69 206.81 612.57 206.84 641.98 215.55 647.07 215.55 617.69"/>
    <polygon class="cls-6" points="215.55 612.73 205.68 606.95 205.7 636.36 215.55 642.12 215.55 612.73"/>
    <polygon class="cls-15" points="215.55 612.73 205.68 606.95 205.7 636.36 215.55 642.12 215.55 612.73"/>
    <path class="cls-14" d="M228,620.66s.15,0,.17.21a1.14,1.14,0,0,1,0,.52l-.4,2.72a1.34,1.34,0,0,1-.14.47c0,.14-.17.19-.24.19l-3.16-.4-.52,3.49,2.95.38s.14,0,.19.23a2.09,2.09,0,0,1,0,.5l-.4,2.74a1.59,1.59,0,0,1-.14.47s-.17.19-.24.17l-3-.38-.8,5.54a2,2,0,0,1-.17.48.19.19,0,0,1-.23.18l-1.4-.16-.16-.24a1,1,0,0,1,0-.49l2.36-16.52a1.33,1.33,0,0,1,.14-.48s.16-.18.24-.18Z"/>
    <path class="cls-14" d="M228.93,627.6a16.7,16.7,0,0,1,.64-2.69,10.94,10.94,0,0,1,1-2.12,4.37,4.37,0,0,1,1.25-1.35,2.14,2.14,0,0,1,2.7.47,4.39,4.39,0,0,1,.82,1.61,11,11,0,0,1,.31,2.36,18.45,18.45,0,0,1-.33,5.1c-.12.85-.24,1.55-.36,2.36a17.43,17.43,0,0,1-.63,2.66,11.89,11.89,0,0,1-1,2.15,4.88,4.88,0,0,1-1.25,1.35,2,2,0,0,1-1.44.37,2,2,0,0,1-1.32-.73,4.4,4.4,0,0,1-.81-1.6,9.43,9.43,0,0,1-.3-2.36,17.9,17.9,0,0,1,0-2.74,22.08,22.08,0,0,1,.3-2.36C228.62,629.18,228.79,628.26,228.93,627.6Zm4,5a2.39,2.39,0,0,1,.16-1,3.75,3.75,0,0,0,.19-1.15,3.88,3.88,0,0,1,.17-1.16c.16-.38,0-.68,0-1a7.75,7.75,0,0,0,0-1.18,4,4,0,0,0-.12-1,1.69,1.69,0,0,0-.31-.68.8.8,0,0,0-1.12-.15h0a1.74,1.74,0,0,0-.52.56,5.92,5.92,0,0,0-.38.9,7.79,7.79,0,0,0-.28,1.18c-.07.32-.13.64-.17,1a2.51,2.51,0,0,1-.19,1.15c-.18.4,0,.78-.16,1.16s0,.71,0,1a6.77,6.77,0,0,0,0,2.2.93.93,0,0,0,.85,1,1.1,1.1,0,0,0,1.08-.73A7.14,7.14,0,0,0,232.92,632.63Z"/>
    <path class="cls-14" d="M241.74,622.41a2.3,2.3,0,0,1,1.18.52,3.08,3.08,0,0,1,.81,1.2A6.86,6.86,0,0,1,244,626a15.85,15.85,0,0,1-1,5.79,4.52,4.52,0,0,1-1.21,1.81l.43,6.28v.28a1,1,0,0,1-.14.38.17.17,0,0,1-.19.17l-1.44-.19a.3.3,0,0,1-.26-.28,1.29,1.29,0,0,1,0-.48l-.38-5.64-1-.12-.8,5.48a1.24,1.24,0,0,1-.15.47.21.21,0,0,1-.23.19l-1.39-.16-.17-.24a1.06,1.06,0,0,1,0-.5l2.36-16.52a1.59,1.59,0,0,1,.14-.47c0-.12.17-.19.24-.19ZM239.38,630l1.21.17a.9.9,0,0,0,.78-.33,2.68,2.68,0,0,0,.52-1.44,3.09,3.09,0,0,0,0-1.54.81.81,0,0,0-.69-.49l-1.2-.17Z"/>
    <path class="cls-14" d="M244.39,641.05a.27.27,0,0,1-.17-.23,1.4,1.4,0,0,1,0-.5l2.36-16.52a2.64,2.64,0,0,1,.17-.47c0-.12.16-.19.23-.17l3.4.43a1.64,1.64,0,0,1,1.14.64,3.35,3.35,0,0,1,.59,1.32,7,7,0,0,1,.18,1.77,15.53,15.53,0,0,1-.16,1.93,8.07,8.07,0,0,1-.26,1.28c-.08.32-.17.63-.28.94s-.22.45-.31.62l-.21.35a4.59,4.59,0,0,1,.35,1.68,16.31,16.31,0,0,1-.16,2.21,15.24,15.24,0,0,1-.43,2,8.3,8.3,0,0,1-.68,1.73,3.11,3.11,0,0,1-1,1.15,1.45,1.45,0,0,1-1.2.33Zm2.36-3.77,1.74.23a.64.64,0,0,0,.57-.4,3.64,3.64,0,0,0,.35-2.22.5.5,0,0,0-.44-.52l-1.75-.21Zm3.51-8.24a2.46,2.46,0,0,0,0-1.08.47.47,0,0,0-.42-.48l-1.65-.21-.43,2.93,1.65.21a.49.49,0,0,0,.55-.33,3.63,3.63,0,0,0,.21-1Z"/>
    <path class="cls-14" d="M252.7,642.12s-.12,0-.17-.24a1.06,1.06,0,0,1,0-.5l2.36-16.52a1.59,1.59,0,0,1,.14-.47c0-.12.17-.19.24-.16l1.39.16a.29.29,0,0,1,.17.24,1.35,1.35,0,0,1,0,.49l-2.36,16.52a2.11,2.11,0,0,1-.17.5c0,.12-.16.19-.24.17Z"/>
    <path class="cls-14" d="M262.37,625.05a2,2,0,0,1,1.25.69,4,4,0,0,1,.83,1.63,9.38,9.38,0,0,1,.38,2.36,22,22,0,0,1-.14,2.92,3,3,0,0,1-.15,1v.88a1.88,1.88,0,0,1-.14.85,7.62,7.62,0,0,1-.14.94,18.87,18.87,0,0,1-.68,2.86,11.28,11.28,0,0,1-1,2.17,4.49,4.49,0,0,1-1.23,1.34,1.92,1.92,0,0,1-1.39.36l-2.88-.36-.16-.23a1.4,1.4,0,0,1,0-.5l2.36-16.52a1.34,1.34,0,0,1,.14-.47c0-.12.16-.19.23-.17Zm.36,7.22c.26-1.95,0-3-1-3.11l-1.09-.14-1.42,9.74,1.14.15c.87.11,1.48-.81,1.81-2.79l.15-1,.14-.94.14-.9c.05-.31.07-.64.12-1Z"/>
    <path class="cls-14" d="M270.94,626.14a1.87,1.87,0,0,1,1.25.68,4.26,4.26,0,0,1,.83,1.61,9.44,9.44,0,0,1,.37,2.36,19,19,0,0,1-.14,2.92,2.32,2.32,0,0,1-.14,1c-.14.3,0,.59,0,.87a2,2,0,0,1-.12.82c-.11.29,0,.62-.16,1a17.53,17.53,0,0,1-.69,2.86,10.43,10.43,0,0,1-1,2.17,4.5,4.5,0,0,1-1.23,1.34,1.88,1.88,0,0,1-1.39.36l-2.88-.36-.17-.23a1.4,1.4,0,0,1,0-.5l2.36-16.52A1.36,1.36,0,0,1,268,626s.16-.19.23-.17Zm.35,7.22c.26-2,0-3-1-3.14l-1.08-.12-1.42,9.75,1.13.14c.88,0,1.49-.8,1.82-2.78l.14-1,.05-.85.14-.89c.05-.38.07-.71.12-1.09Z"/>
    <path class="cls-14" d="M279.48,641.36l.17.21a1.4,1.4,0,0,1,0,.5l-.38,2.74a2.6,2.6,0,0,1-.16.47.35.35,0,0,1-.24.19l-5-.66-.16-.24a1.24,1.24,0,0,1,0-.47L276,627.58a1.07,1.07,0,0,1,.14-.47c0-.15.16-.19.24-.19l4.93.63s.14,0,.19.24a2.09,2.09,0,0,1,0,.5l-.4,2.71a1.24,1.24,0,0,1-.15.47c0,.14-.16.19-.23.19l-3.26-.42-.4,2.78,3,.38a.29.29,0,0,1,.17.23,1.4,1.4,0,0,1,0,.5l-.41,2.71a1.25,1.25,0,0,1-.14.5c0,.12-.16.19-.23.17l-3-.38-.43,2.85Z"/>
    <path class="cls-14" d="M286,646.36s-.19,0-.23-.25a.81.81,0,0,1,0-.38l-1.16-9.09-1.25,8.66a1.75,1.75,0,0,1-.17.47.19.19,0,0,1-.23.19l-1.4-.16s-.11,0-.16-.24a1.35,1.35,0,0,1,0-.49l2.36-16.52a1.56,1.56,0,0,1,.14-.48c0-.11.17-.19.24-.16l1.11.14a.28.28,0,0,1,.26.26,1.09,1.09,0,0,1,0,.38l1.13,9.08,1.27-8.68a1.43,1.43,0,0,1,.14-.47c0-.12.17-.19.24-.17l1.39.17s.14,0,.17.23a1.4,1.4,0,0,1,0,.5l-2.36,16.52a1.63,1.63,0,0,1-.14.49s-.17.19-.24.17Z"/>
    <path class="cls-14" d="M296.24,647.66s-.14,0-.19-.21a2.09,2.09,0,0,1,0-.5l.38-2.62-3.33-.42s-.14,0-.19-.24a2,2,0,0,1,0-.49l.4-2.72a3.38,3.38,0,0,1,.29-1.11l4.58-9.25a1,1,0,0,1,.23-.35.37.37,0,0,1,.21,0l1.61.21s.14,0,.16.24a1,1,0,0,1,0,.49L299,640.54l.92.11a.31.31,0,0,1,.16.24,1,1,0,0,1,0,.49l-.4,2.72a1.11,1.11,0,0,1-.17.49.19.19,0,0,1-.21.17h-.92l-.38,2.62a1.1,1.1,0,0,1-.16.47c0,.14-.14.19-.24.19Zm.83-7.43.71-4.72L295.41,640Z"/>
    <path class="cls-14" d="M306.55,630.43a1.88,1.88,0,0,1,1.28.74,4.46,4.46,0,0,1,.73,1.65,10.93,10.93,0,0,1,.24,2.36c0,.84,0,1.68-.1,2.52a17.79,17.79,0,0,1-.33,2.36c-.12.85-.23,1.56-.33,2.36a25.55,25.55,0,0,1-.61,2.62,9.42,9.42,0,0,1-.9,2.15,4.21,4.21,0,0,1-1.16,1.39,1.85,1.85,0,0,1-1.43.4,1.82,1.82,0,0,1-1.3-.73,4.16,4.16,0,0,1-.73-1.65,10.45,10.45,0,0,1-.24-2.36,26.56,26.56,0,0,1,.16-2.67,20.25,20.25,0,0,1,.31-2.36c.12-.89.24-1.58.38-2.36a21.54,21.54,0,0,1,.59-2.62,9.16,9.16,0,0,1,.9-2.14,4.32,4.32,0,0,1,1.15-1.4A1.94,1.94,0,0,1,306.55,630.43ZM306,642c.24-1.46.45-2.87.64-4.31v-1.18a5.24,5.24,0,0,0,0-1,1.72,1.72,0,0,0-.26-.66.65.65,0,0,0-.5-.31.68.68,0,0,0-.56.17,1.58,1.58,0,0,0-.43.59,6.27,6.27,0,0,0-.33.89,8.41,8.41,0,0,1-.23,1.18c-.24,1.42-.45,2.86-.64,4.32a11.61,11.61,0,0,0,0,1.18,3.94,3.94,0,0,0,0,1,1.46,1.46,0,0,0,.26.66.63.63,0,0,0,.49.31.7.7,0,0,0,.57-.17,1.7,1.7,0,0,0,.43-.59,4.38,4.38,0,0,0,.33-.9c.09-.35.16-.73.23-1.18Z"/>
    <path class="cls-14" d="M317,632s.14,0,.16.21a1.06,1.06,0,0,1,0,.5l-.4,2.73a1.69,1.69,0,0,1-.14.5l-.21.38-1.73,2.95a3.68,3.68,0,0,1,1.09,1.91,7.88,7.88,0,0,1,0,3.28,9.31,9.31,0,0,1-1.46,4.27,2.58,2.58,0,0,1-2.51,1.16,2.12,2.12,0,0,1-1.29-.62,3.38,3.38,0,0,1-.83-1.27,6.64,6.64,0,0,1-.38-1.7,8.53,8.53,0,0,1,0-1.89,2.67,2.67,0,0,1,0-.4s.12-.14.19-.14l1.35.17a.37.37,0,0,1,.3.28,5.18,5.18,0,0,0,.17.56,1.59,1.59,0,0,0,.31.57.73.73,0,0,0,.61.33,1,1,0,0,0,.9-.31,2,2,0,0,0,.52-1.25,2,2,0,0,0-.15-1.36,1.1,1.1,0,0,0-.77-.52h-.88a.29.29,0,0,1-.16-.24,1.06,1.06,0,0,1,0-.5l.33-2.21a1.43,1.43,0,0,1,.14-.5l.21-.4,1.51-2.6-2.76-.35s-.14,0-.17-.24a1.35,1.35,0,0,1,0-.49l.41-2.72a.88.88,0,0,1,.16-.47.2.2,0,0,1,.21-.19Z"/>
    <path class="cls-14" d="M327.82,633.41s.14,0,.19.23a2.09,2.09,0,0,1,0,.5l-.4,2.71a1.69,1.69,0,0,1-.14.5s-.17.19-.24.16l-3.16-.4-.52,3.52,2.95.38s.14,0,.19.23a2.09,2.09,0,0,1,0,.5l-.4,2.71a1.52,1.52,0,0,1-.15.5.19.19,0,0,1-.23.16l-3.05-.33-.8,5.55a1.25,1.25,0,0,1-.16.47c0,.14-.15.19-.24.19l-1.39-.19s-.12,0-.17-.21a1.51,1.51,0,0,1,0-.52l2.36-16.52a1.43,1.43,0,0,1,.14-.47c0-.14.17-.19.24-.19Z"/>
    <path class="cls-14" d="M328.69,640.35a21.63,21.63,0,0,1,.64-2.67,11.34,11.34,0,0,1,1-2.13,5.06,5.06,0,0,1,1.25-1.36,2.13,2.13,0,0,1,1.46-.38,2,2,0,0,1,1.3.73,4.77,4.77,0,0,1,.8,1.63,8.94,8.94,0,0,1,.31,2.36,15.67,15.67,0,0,1,0,2.74,18.5,18.5,0,0,1-.33,2.36c-.12.85-.24,1.55-.33,2.36a20.7,20.7,0,0,1-.66,2.69,9.9,9.9,0,0,1-1,2.12,4.43,4.43,0,0,1-1.25,1.37,2,2,0,0,1-1.44.35,2.07,2.07,0,0,1-1.32-.7,4.55,4.55,0,0,1-.78-1.63,9.4,9.4,0,0,1-.33-2.36,17.91,17.91,0,0,1,.14-2.74,20,20,0,0,1,.31-2.36C328.58,641.83,328.58,641.08,328.69,640.35Zm4,5a6.5,6.5,0,0,1,.19-1,4.79,4.79,0,0,1,.17-1.16,4.27,4.27,0,0,0,.16-1.13,4.26,4.26,0,0,1,.12-1c0-.4,0-.8,0-1.21a5.14,5.14,0,0,0-.12-1,1.77,1.77,0,0,0-.33-.69.78.78,0,0,0-.54-.3.7.7,0,0,0-.59.16,2.1,2.1,0,0,0-.5.57,4.42,4.42,0,0,0-.4.92,7.42,7.42,0,0,0-.28,1.15,2.26,2.26,0,0,1-.17,1,4.69,4.69,0,0,0-.19,1.13l-.14,1.15a2.48,2.48,0,0,1-.14,1,6.59,6.59,0,0,0,0,2.17.93.93,0,0,0,.85,1c.45.05.8-.19,1.11-.71A6.86,6.86,0,0,0,332.68,645.37Z"/>
    <path class="cls-14" d="M341.49,635.15a2.4,2.4,0,0,1,1.2.52,2.78,2.78,0,0,1,.78,1.21,6.15,6.15,0,0,1,.3,1.91,12.77,12.77,0,0,1-.16,2.62,14.32,14.32,0,0,1-.78,3.16,4.7,4.7,0,0,1-1.23,1.82l.43,6.28a1.31,1.31,0,0,1,0,.28,1.12,1.12,0,0,1-.14.4.24.24,0,0,1-.17.14l-1.46-.19A.31.31,0,0,1,340,653a2,2,0,0,1,0-.49l-.38-5.64h-1l-.8,5.5a1.63,1.63,0,0,1-.16.47.19.19,0,0,1-.24.16l-1.37-.16s-.14,0-.19-.24a2,2,0,0,1,0-.49l2.36-16.52a1.1,1.1,0,0,1,.17-.5s.14-.19.21-.16Zm-2.36,7.63,1.2.16a.91.91,0,0,0,.8-.33,4.59,4.59,0,0,0,.5-3,.84.84,0,0,0-.69-.5l-1.18-.16Z"/>
    <path class="cls-14" d="M344.11,653.8s-.15,0-.17-.24a1,1,0,0,1,0-.49l2.36-16.52a1.48,1.48,0,0,1,.17-.5s.14-.19.23-.16l3.4.42a1.74,1.74,0,0,1,1.13.64,3.09,3.09,0,0,1,.59,1.32A7,7,0,0,1,352,640a13.81,13.81,0,0,1-.14,1.93c-.07.44-.15.87-.26,1.3a5.53,5.53,0,0,1-.31.92,3.46,3.46,0,0,1-.28.62l-.22.35a4.21,4.21,0,0,1,.34,1.68,13.81,13.81,0,0,1-.15,2.22c-.11.7-.26,1.36-.42,2a8.92,8.92,0,0,1-.69,1.73,3.37,3.37,0,0,1-.94,1.18,1.57,1.57,0,0,1-1.2.33Zm2.24-3.78,1.74.24a.53.53,0,0,0,.59-.38,3.68,3.68,0,0,0,.36-2.24.49.49,0,0,0-.43-.52l-1.74-.21Zm3.54-8.23a3.32,3.32,0,0,0,0-1.09.46.46,0,0,0-.43-.47l-1.65-.21-.42,2.92,1.65.21a.51.51,0,0,0,.52-.33,2.71,2.71,0,0,0,.37-1Z"/>
    <path class="cls-14" d="M352.48,654.86s-.14,0-.16-.23a1.06,1.06,0,0,1,0-.5l2.36-16.52a1.25,1.25,0,0,1,.16-.47c0-.15.15-.19.24-.19l1.37.19s.14,0,.19.21a2,2,0,0,1,0,.49l-2.36,16.53a.93.93,0,0,1-.17.47.2.2,0,0,1-.21.19Z"/>
    <path class="cls-14" d="M362.18,637.7a2,2,0,0,1,1.26.71,4.11,4.11,0,0,1,.82,1.61,9.86,9.86,0,0,1,.38,2.36,22,22,0,0,1-.14,2.92,3.43,3.43,0,0,1-.14,1,2,2,0,0,1-.12.85c-.12.26,0,.57-.12.85s0,.62-.17,1a17,17,0,0,1-.68,2.88,11.87,11.87,0,0,1-1,2.17,4.77,4.77,0,0,1-1.23,1.34,2,2,0,0,1-1.39.36l-2.88-.38s-.12,0-.17-.21a1.4,1.4,0,0,1,0-.5L359,638.08a1.28,1.28,0,0,1,.14-.47c0-.14.17-.19.24-.19Zm.36,7.25c.26-2,0-3-1-3.14l-1.09-.14-1.41,9.75,1.13.16c.87,0,1.48-.83,1.82-2.78l.14-1,.14-.92.14-.92c.05-.21.07-.54.12-.9Z"/>
    <path class="cls-14" d="M370.66,638.88a2.06,2.06,0,0,1,1.25.71,4.11,4.11,0,0,1,.82,1.61,8.54,8.54,0,0,1,.36,2.36,16.81,16.81,0,0,1-.14,2.92,2.64,2.64,0,0,1-.12,1,2,2,0,0,0,0,.85l-.14.85a2.34,2.34,0,0,1-.14,1,16.83,16.83,0,0,1-.71,2.88,10.89,10.89,0,0,1-1,2.17,4.77,4.77,0,0,1-1.23,1.34,2.23,2.23,0,0,1-1.42.36l-2.85-.29s-.14,0-.17-.23a1.4,1.4,0,0,1,0-.5l2.36-16.52a1.66,1.66,0,0,1,.17-.47c0-.14.16-.19.23-.19Zm.35,7.25c.24-2,0-3-1-3.14l-1.09-.14-1.42,9.75,1.14.14c.89.12,1.51-.81,1.81-2.76a6.2,6.2,0,0,1,.17-1l.14-.92a2.43,2.43,0,0,1,.12-.92A4.46,4.46,0,0,0,371,646.13Z"/>
    <path class="cls-14" d="M379.3,654.22s.11,0,.16.24a1.06,1.06,0,0,1,0,.5l-.38,2.71a2,2,0,0,1-.16.47.22.22,0,0,1-.24.19l-5-.64s-.14,0-.19-.23a2.09,2.09,0,0,1,0-.5l2.36-16.52a1.28,1.28,0,0,1,.16-.5c0-.11.15-.18.22-.16l4.93.64s.14,0,.19.21a2.26,2.26,0,0,1,0,.52l-.4,2.71a1.43,1.43,0,0,1-.14.47.35.35,0,0,1-.24.19l-3.26-.42-.4,2.76,3,.4s.14,0,.17.24a1.35,1.35,0,0,1,0,.49l-.4,2.72a1.59,1.59,0,0,1-.14.47c0,.14-.17.19-.24.19l-3.05-.4-.4,2.88Z"/>
    <path class="cls-14" d="M385.81,659.13a.33.33,0,0,1-.26-.28,2.41,2.41,0,0,1,0-.38l-1.32-9L383,658.19a.9.9,0,0,1-.17.47.2.2,0,0,1-.21.19l-1.39-.19s-.14,0-.17-.23a1.4,1.4,0,0,1,0-.5l2.36-16.52a1.11,1.11,0,0,1,.17-.47c0-.15.14-.19.23-.19l1.09.14a.35.35,0,0,1,.26.26,2.41,2.41,0,0,1,0,.38l1.16,9.08,1.25-8.66a.88.88,0,0,1,.16-.47.2.2,0,0,1,.21-.19l1.4.17s.14,0,.19.23a2.09,2.09,0,0,1,0,.5l-2.37,16.52a.88.88,0,0,1-.16.47.2.2,0,0,1-.21.19Z"/>
    <path class="cls-14" d="M396,660.43a.29.29,0,0,1-.17-.23,1.4,1.4,0,0,1,0-.5l.38-2.62-3.33-.42s-.14,0-.16-.24a1.06,1.06,0,0,1,0-.5l.4-2.71a4.16,4.16,0,0,1,.28-1.09l4.58-9.27a.88.88,0,0,1,.24-.36.31.31,0,0,1,.23,0l1.59.19s.14,0,.18.24a1.35,1.35,0,0,1,0,.49l-1.41,9.87.89.12s.15,0,.17.21a1.14,1.14,0,0,1,0,.52l-.4,2.71a1.33,1.33,0,0,1-.14.48s-.17.18-.24.18l-.92-.11-.38,2.62a1,1,0,0,1-.16.47.17.17,0,0,1-.21.16Zm.85-7.46.68-4.72-2.24,4.53Z"/>
    <path class="cls-14" d="M406.34,643.2a1.81,1.81,0,0,1,1.28.73,4.45,4.45,0,0,1,.73,1.63,9.91,9.91,0,0,1,.24,2.36,22,22,0,0,1-.17,2.69,18.26,18.26,0,0,1-.31,2.36c-.11.85-.23,1.56-.35,2.25a21.93,21.93,0,0,1-.61,2.64,11.43,11.43,0,0,1-.88,2.15,4.77,4.77,0,0,1-1.18,1.39,1.86,1.86,0,0,1-1.44.38,1.8,1.8,0,0,1-1.3-.74,4.34,4.34,0,0,1-.7-1.62,10.47,10.47,0,0,1-.26-2.36,20.15,20.15,0,0,1,.19-2.69,19.53,19.53,0,0,1,.3-2.36c.12-.9.24-1.56.36-2.36a19.47,19.47,0,0,1,.59-2.62,11,11,0,0,1,.89-2.15,4.73,4.73,0,0,1,1.16-1.39A1.94,1.94,0,0,1,406.34,643.2Zm-.54,11.52c.26-1.44.45-2.88.64-4.3v-1.2a3.7,3.7,0,0,0,0-.94,1.86,1.86,0,0,0-.26-.69.68.68,0,0,0-.5-.28.63.63,0,0,0-.54.14,2.15,2.15,0,0,0-.45.59,6.32,6.32,0,0,0-.33.92,11.74,11.74,0,0,0-.24,1.18c-.23,1.39-.44,2.83-.63,4.3v1.18a3.85,3.85,0,0,0,0,1,1.57,1.57,0,0,0,.26.69.64.64,0,0,0,.49.28.69.69,0,0,0,.57-.14,1.56,1.56,0,0,0,.42-.59,3.74,3.74,0,0,0,.33-.92A8,8,0,0,0,405.8,654.72Z"/>
    <path class="cls-14" d="M416.75,644.78s.12,0,.17.24a2,2,0,0,1,0,.49l-.4,2.72a3.64,3.64,0,0,1-.36.87l-1.72,3a3.52,3.52,0,0,1,1.08,1.88,8.38,8.38,0,0,1,0,3.31,9,9,0,0,1-1.46,4.25,2.68,2.68,0,0,1-2.52,1.18,2.37,2.37,0,0,1-1.28-.62,3.38,3.38,0,0,1-.82-1.29,5.9,5.9,0,0,1-.38-1.7,7.47,7.47,0,0,1,0-1.89.93.93,0,0,1,.12-.4.16.16,0,0,1,.18-.15l1.35.19c.14,0,.24.1.28.29a4.26,4.26,0,0,0,.5,1.13.81.81,0,0,0,.61.31,1.07,1.07,0,0,0,.9-.29,2.28,2.28,0,0,0,.52-1.27,2,2,0,0,0-.14-1.35,1.07,1.07,0,0,0-.78-.52l-.88-.11s-.14,0-.18-.24a1.4,1.4,0,0,1,0-.5l.3-2.19a1.87,1.87,0,0,1,.17-.52l.21-.38,1.51-2.62-2.76-.33a.29.29,0,0,1-.17-.23,1.4,1.4,0,0,1,0-.5l.41-2.74a1.16,1.16,0,0,1,.14-.47.19.19,0,0,1,.23-.16Z"/>
    <path class="cls-14" d="M427.56,646.18s.14,0,.19.21a2.26,2.26,0,0,1,0,.52l-.4,2.71a1.43,1.43,0,0,1-.14.47c0,.12-.17.19-.24.19l-3.16-.42-.52,3.51,2.95.38s.14,0,.19.24a2,2,0,0,1,0,.49l-.4,2.74a1.43,1.43,0,0,1-.14.47s-.17.19-.24.17l-2.95-.38-.8,5.55a2,2,0,0,1-.17.47c0,.14-.14.19-.23.19l-1.4-.19-.16-.21a1.06,1.06,0,0,1,0-.5l2.36-16.52a1.34,1.34,0,0,1,.14-.47c0-.14.16-.19.24-.19Z"/>
    <path class="cls-14" d="M428.51,653.11a15.44,15.44,0,0,1,.66-2.66,8.87,8.87,0,0,1,1-2.13,5,5,0,0,1,1.23-1.37,2.06,2.06,0,0,1,1.46-.37,2,2,0,0,1,1.3.73,4.23,4.23,0,0,1,.8,1.6,10,10,0,0,1,.34,2.36,17.91,17.91,0,0,1-.15,2.74,20.59,20.59,0,0,1-.3,2.36c-.12.88-.24,1.56-.36,2.24a17.32,17.32,0,0,1-.66,2.69,9.31,9.31,0,0,1-1,2.13,4.32,4.32,0,0,1-1.22,1.37,2.07,2.07,0,0,1-2.76-.36,4.34,4.34,0,0,1-.81-1.62,11.18,11.18,0,0,1-.33-2.37,19.63,19.63,0,0,1,.14-2.76,16.63,16.63,0,0,1,.31-2.24C428.27,654.65,428.39,653.85,428.51,653.11Zm4,5a2.39,2.39,0,0,1,.16-1,4.54,4.54,0,0,0,.19-1.16l.14-1.16a2.7,2.7,0,0,1,.12-1,7.75,7.75,0,0,0,0-1.18,3.89,3.89,0,0,0-.12-1,1.71,1.71,0,0,0-.3-.69.76.76,0,0,0-.55-.31.9.9,0,0,0-.61.17,1.53,1.53,0,0,0-.5.57,6.51,6.51,0,0,0-.4.89,8.77,8.77,0,0,1-.26,1.18c-.07.43-.11.62-.19,1a5.13,5.13,0,0,1-.16,1.14,4,4,0,0,0-.17,1.15,4.88,4.88,0,0,1-.11,1,6.59,6.59,0,0,0,0,2.17c.14.59.42.92.87,1a1.12,1.12,0,0,0,1.09-.73,6.75,6.75,0,0,0,.8-2.08Z"/>
    <path class="cls-14" d="M441.27,647.92a2.15,2.15,0,0,1,1.18.52,2.75,2.75,0,0,1,.78,1.18,6.23,6.23,0,0,1,.33,1.91,15.66,15.66,0,0,1-.16,2.65,13.83,13.83,0,0,1-.8,3.16,4.85,4.85,0,0,1-1.21,1.82l.43,6.25v.28a1.17,1.17,0,0,1-.14.41c0,.11-.12.14-.19.14l-1.44-.19c-.15,0-.24,0-.26-.26a1.85,1.85,0,0,1,0-.47l-.38-5.64-1-.15-.8,5.5a1.34,1.34,0,0,1-.15.48c0,.14-.16.18-.23.18l-1.39-.18s-.12,0-.17-.22a2.26,2.26,0,0,1,0-.52L438,648.25a1.34,1.34,0,0,1,.14-.47c0-.14.17-.19.24-.19Zm-2.36,7.63,1.21.14a.9.9,0,0,0,.78-.31,4,4,0,0,0,.44-3,.87.87,0,0,0-.68-.52l-1.2-.14Z"/>
    <path class="cls-14" d="M443.92,666.54s-.14,0-.17-.21a1.35,1.35,0,0,1,0-.49l2.36-16.53a2,2,0,0,1,.17-.47c0-.14.14-.19.23-.19l3.4.45a1.58,1.58,0,0,1,1.13.62,3.17,3.17,0,0,1,.59,1.34,5.88,5.88,0,0,1,.17,1.77,14,14,0,0,1-.14,1.94,11,11,0,0,1-.26,1.27,5.55,5.55,0,0,1-.31,1,4.78,4.78,0,0,1-.28.61l-.21.33a4.51,4.51,0,0,1,.33,1.7,13.36,13.36,0,0,1-.14,2.19,16,16,0,0,1-.43,2.06,8,8,0,0,1-.68,1.72,3.67,3.67,0,0,1-.95,1.16,1.57,1.57,0,0,1-1.2.33Zm2.36-3.75,1.77.21c.19,0,.38,0,.56-.37a3,3,0,0,0,.36-1.09,3.57,3.57,0,0,0,0-1.13.5.5,0,0,0-.45-.52l-1.75-.24Zm3.54-8.26a2.8,2.8,0,0,0,0-1.08.44.44,0,0,0-.43-.45l-1.65-.22-.42,2.93,1.65.21a.48.48,0,0,0,.54-.33,3.48,3.48,0,0,0,.19-1.06Z"/>
    <path class="cls-14" d="M452.27,667.63s-.14,0-.19-.24a2,2,0,0,1,0-.49l2.36-16.52a1.2,1.2,0,0,1,.17-.48.19.19,0,0,1,.21-.16l1.39.16s.15,0,.17.24a1.06,1.06,0,0,1,0,.5L454,667.16a1.16,1.16,0,0,1-.17.47.2.2,0,0,1-.23.19Z"/>
    <path class="cls-14" d="M461.93,650.57a1.91,1.91,0,0,1,1.25.68,4.39,4.39,0,0,1,.82,1.61,9.36,9.36,0,0,1,.36,2.36,15.89,15.89,0,0,1-.15,2.92v1l-.14.88a2.16,2.16,0,0,1-.11.82c-.12.29,0,.62-.15,1a17.81,17.81,0,0,1-.7,2.86,10.16,10.16,0,0,1-1,2.17,4.69,4.69,0,0,1-1.25,1.34,1.88,1.88,0,0,1-1.39.36l-2.86-.36a.28.28,0,0,1-.16-.23,1.06,1.06,0,0,1,0-.5l2.36-16.52a1.26,1.26,0,0,1,.17-.47.2.2,0,0,1,.23-.17Zm.35,7.22c.24-2,0-3-1-3.14l-1.08-.14-1.42,9.77,1.14.14c.89.12,1.51-.83,1.81-2.78a2.1,2.1,0,0,1,.17-1l.14-.92v-.9a10.07,10.07,0,0,1,.26-1Z"/>
    <path class="cls-14" d="M470.4,651.65a1.88,1.88,0,0,1,1.27.69,4.61,4.61,0,0,1,.83,1.6,11,11,0,0,1,.35,2.36,15.11,15.11,0,0,1-.14,2.93l-.14,1a2,2,0,0,1-.12.85c-.12.26,0,.56,0,.85l-.14.94a20.18,20.18,0,0,1-.71,2.88,9.66,9.66,0,0,1-1,2.17,4.6,4.6,0,0,1-1.25,1.35,1.92,1.92,0,0,1-1.39.35l-2.86-.38s-.14,0-.19-.21a2,2,0,0,1,0-.49L467.28,652a.93.93,0,0,1,.17-.48c0-.14.14-.19.23-.19Zm.38,7.22c.23-2,0-3-1-3.14l-1.08-.14-1.42,9.77,1.13.15c.9,0,1.49-.83,1.82-2.79a2.19,2.19,0,0,1,.16-1c.17-.33,0-.62.12-.92l.14-.9c.05-.31.1-.66.15-.95Z"/>
    <path class="cls-14" d="M479.06,666.87l.17.22a1.35,1.35,0,0,1,0,.49l-.38,2.74a2,2,0,0,1-.17.47.2.2,0,0,1-.23.17l-5-.64-.17-.21a2.09,2.09,0,0,1,0-.5l2.36-16.52a1,1,0,0,1,.17-.47.2.2,0,0,1,.21-.19l4.93.64s.15,0,.19.23a1.4,1.4,0,0,1,0,.5l-.4,2.71a1.16,1.16,0,0,1-.14.48c0,.14-.16.18-.24.18l-3.25-.42-.4,2.78,3,.38a.3.3,0,0,1,.16.24,1,1,0,0,1,0,.49l-.4,2.72a1.16,1.16,0,0,1-.14.47c0,.14-.17.19-.24.19l-3-.38-.4,2.86Z"/>
    <path class="cls-14" d="M485.57,671.88c-.11,0-.18,0-.26-.26a2.41,2.41,0,0,1,0-.38l-1.15-9.09-1.28,8.67a1.16,1.16,0,0,1-.14.47c0,.14-.16.19-.23.19l-1.4-.19s-.14,0-.16-.21a1.06,1.06,0,0,1,0-.5l2.36-16.52a1.07,1.07,0,0,1,.14-.47c0-.14.17-.19.24-.19l1.11.14c.11,0,.18.12.23.28a.81.81,0,0,1,0,.38l1.16,9.09,1.25-8.69a2,2,0,0,1,.16-.47.35.35,0,0,1,.24-.19l1.39.19.17.24a1.35,1.35,0,0,1,0,.49L487,671.38a1.43,1.43,0,0,1-.14.47c0,.15-.17.19-.24.19Z"/>
    <g id="freepik--error-403--inject-34">
      <g id="freepik--404--inject-34">
        <path class="cls-6" d="M285.6,197a2.87,2.87,0,0,0-.4-.31l-12.42-7.08V130.71a4,4,0,0,0-1-3,1.35,1.35,0,0,0-.4-.31l-13.26-7.65a1.79,1.79,0,0,0-1.94,0L237.9,130.52a8.53,8.53,0,0,0-2.53,2.1,18,18,0,0,0-2,3.9l-36.63,91.93a25.06,25.06,0,0,0-1.59,9v19.94a3.93,3.93,0,0,0,1,3,1.53,1.53,0,0,0,.4.31l13.26,7.67a1.77,1.77,0,0,0,1.91-.14l25.19-14.54v3.85a4,4,0,0,0,1,3l.37.31,13.29,7.67a1.88,1.88,0,0,0,1.94-.14l16-9.23a6.29,6.29,0,0,0,2.36-2.86,9.62,9.62,0,0,0,1-4.13V233l10.51-6.07a6.2,6.2,0,0,0,2.36-2.85,9.41,9.41,0,0,0,1-4.13V200A4,4,0,0,0,285.6,197Z"/>
        <path class="cls-13" d="M248.45,140.27v.24a17.79,17.79,0,0,0-1.87,3.66l-36.51,92A22.64,22.64,0,0,0,209,240l-13.36-7.72a24,24,0,0,1,1.06-3.73l36.49-92a18.08,18.08,0,0,1,2-3.9h0Z"/>
        <path class="cls-17" d="M209.58,268.26c-1.49-.87-12.56-7.27-13.1-7.55l-.41-.33a4,4,0,0,1-1-3v-19.9a27.14,27.14,0,0,1,.52-5.24l13.27,7.67a26.43,26.43,0,0,0-.5,5.24v19.92a4.1,4.1,0,0,0,1,3Z"/>
        <polygon class="cls-17" points="250.81 181.01 250.81 215.59 239.62 209.14 250.81 181.01"/>
        <polygon class="cls-18" points="250.81 215.59 232.99 225.88 239.62 209.14 250.81 215.59"/>
        <path class="cls-17" d="M251.16,268.19l.24.19-13.1-7.55a.94.94,0,0,1-.4-.31,3.86,3.86,0,0,1-1-3v-3.85L250.19,246v19.16A4.13,4.13,0,0,0,251.16,268.19Z"/>
        <path class="cls-13" d="M285.1,196.61a1.85,1.85,0,0,0-1.75.21l-10.5,6.07V189.53Z"/>
        <path class="cls-19" d="M271.32,127.36a1.87,1.87,0,0,0-1.84.17L251,138.17a9.09,9.09,0,0,0-2.36,2.1l-13.4-7.65a8.67,8.67,0,0,1,2.36-2.07l18.45-10.65a1.79,1.79,0,0,1,1.94,0Z"/>
        <path class="cls-6" d="M253.5,268.36a1.82,1.82,0,0,1-2.36-.17,4.09,4.09,0,0,1-1-3V245.91L211.7,268.12a1.74,1.74,0,0,1-2.36-.16,4.12,4.12,0,0,1-1-3V245a24.71,24.71,0,0,1,1.58-9l36.51-92a17.56,17.56,0,0,1,2-3.87A8.27,8.27,0,0,1,251,138l18.44-10.65a1.78,1.78,0,0,1,2.36.17,4,4,0,0,1,1,3V202.7l10.51-6.07a1.8,1.8,0,0,1,2.36.17,4,4,0,0,1,1,3V220a9.38,9.38,0,0,1-1,4.13,6.23,6.23,0,0,1-2.36,2.86L272.73,233v19.17a9.69,9.69,0,0,1-1,4.13,6.26,6.26,0,0,1-2.36,2.85Zm-2.69-52.78V181L233,225.85Z"/>
        <path class="cls-6" d="M378.3,113.74a81.67,81.67,0,0,0-2.5-18,27.87,27.87,0,0,0-6.46-12.54A16.58,16.58,0,0,0,366,80.7L352.7,73a16.46,16.46,0,0,0-7.58-2.15,29.93,29.93,0,0,0-15.74,5,57.49,57.49,0,0,0-15.74,13.22,77.38,77.38,0,0,0-10.93,17.41,90.88,90.88,0,0,0-6.49,20,128.81,128.81,0,0,0-2.5,20.89q-.24,8.27-.24,17.07c0,5.9,0,11.35.24,16.52a83.06,83.06,0,0,0,2.5,18,27.79,27.79,0,0,0,6.49,12.53,14.52,14.52,0,0,0,3.3,2.59c2.22,1.33,12.23,7.09,13.5,7.82a16.93,16.93,0,0,0,7.39,2,29.93,29.93,0,0,0,15.74-5,57.61,57.61,0,0,0,15.77-13.22,79.12,79.12,0,0,0,10.93-17.42,91.7,91.7,0,0,0,6.46-20,126.38,126.38,0,0,0,2.5-20.88q.24-7.86.24-16.69T378.3,113.74Zm-48.24,66.8a52.7,52.7,0,0,1-.47-6.14q-.58-15.65,0-31.58a62.53,62.53,0,0,1,.85-9.16,42.37,42.37,0,0,1,2.19-8.12,27.47,27.47,0,0,1,3.92-6.86,20.1,20.1,0,0,1,5.31-4.72q.38,2.76.57,6.09.49,15.29,0,31.57a69.1,69.1,0,0,1-.78,9.09,37,37,0,0,1-2.19,8.14,28.27,28.27,0,0,1-4,6.9,20.64,20.64,0,0,1-5.41,4.83Z"/>
        <path class="cls-13" d="M319.16,221.49c-2.2-1.26-11.09-6.38-13.15-7.6a16,16,0,0,1-3.3-2.6,27.79,27.79,0,0,1-6.49-12.53,83.06,83.06,0,0,1-2.5-18c-.15-5.05-.24-10.5-.24-16.52s0-11.59.24-17.07a128.56,128.56,0,0,1,2.5-20.88A91.08,91.08,0,0,1,300.35,112l13.26,7.67a92,92,0,0,0-4.1,14.16A125.81,125.81,0,0,0,307,154.72q-.22,8.21-.26,17.06c0,5.9,0,11.35.26,16.52a81.1,81.1,0,0,0,2.51,18A27.52,27.52,0,0,0,316,218.82,15.71,15.71,0,0,0,319.16,221.49Z"/>
        <path class="cls-19" d="M365.49,80.35a16.84,16.84,0,0,0-7.08-1.87q-6.59-.33-15.77,5A58,58,0,0,0,326.9,96.68,78.66,78.66,0,0,0,316,114.05c-.45,1-.85,1.91-1.25,2.9l-1.11,2.81h0l-13.26-7.67c.3-.85.63-1.67,1-2.5s.89-2.12,1.39-3.19A78.2,78.2,0,0,1,313.61,89a58.27,58.27,0,0,1,15.77-13.22,29.64,29.64,0,0,1,15.74-5A16.34,16.34,0,0,1,352.7,73Z"/>
        <path class="cls-17" d="M355.72,159.34a69.44,69.44,0,0,1-.81,9.11,36.21,36.21,0,0,1-2.17,8.12,29.48,29.48,0,0,1-1.55,3.26l-13.27-7.67a29.32,29.32,0,0,0,1.49-3.16,37.83,37.83,0,0,0,2.22-8.15,69.1,69.1,0,0,0,.78-9.08q.49-16.28,0-31.58a43.21,43.21,0,0,0-.57-6.12l.78-.49a10.25,10.25,0,0,1,6.11-1.84,5.49,5.49,0,0,1,3.92,2.36,14.35,14.35,0,0,1,2.12,5.61,62.17,62.17,0,0,1,.92,8.15Q356.18,143.08,355.72,159.34Z"/>
        <path class="cls-18" d="M351.19,179.83a25.79,25.79,0,0,1-2.36,3.73,21,21,0,0,1-6.12,5.21,10.34,10.34,0,0,1-6.09,1.82,5.5,5.5,0,0,1-4-2.36,13.69,13.69,0,0,1-2.2-5.59c-.14-.66-.23-1.35-.33-2.06a20.19,20.19,0,0,0,5.41-4.72,26.68,26.68,0,0,0,2.36-3.73Z"/>
        <path class="cls-6" d="M342.64,83.44q9.17-5.31,15.77-5a15.85,15.85,0,0,1,10.93,4.72,27.87,27.87,0,0,1,6.46,12.54,81.67,81.67,0,0,1,2.5,18q.24,7.94.24,16.78t-.24,16.69a126.5,126.5,0,0,1-2.5,20.89,91.7,91.7,0,0,1-6.46,20,79.59,79.59,0,0,1-10.93,17.42,57.58,57.58,0,0,1-15.77,13.21,29.84,29.84,0,0,1-15.74,5A15.76,15.76,0,0,1,316,219a27.52,27.52,0,0,1-6.46-12.51,82.29,82.29,0,0,1-2.51-18c-.16-5.05-.23-10.5-.23-16.52s0-11.56.23-17.06A127.59,127.59,0,0,1,309.51,134,91.86,91.86,0,0,1,316,114a79.23,79.23,0,0,1,10.93-17.4A58.08,58.08,0,0,1,342.64,83.44Zm13.08,75.9q.5-16.23,0-31.58a63.46,63.46,0,0,0-.92-8.12,14.52,14.52,0,0,0-2.13-5.61,5.4,5.4,0,0,0-3.92-2.36,10.44,10.44,0,0,0-6.11,1.84,21.15,21.15,0,0,0-6.09,5.21,28,28,0,0,0-3.92,6.82,42.37,42.37,0,0,0-2.19,8.12,62.53,62.53,0,0,0-.85,9.16q-.58,15.93,0,31.58a49.81,49.81,0,0,0,.8,8.17,13.05,13.05,0,0,0,2.2,5.59,5.45,5.45,0,0,0,4,2.36,10.34,10.34,0,0,0,6.09-1.82,21.11,21.11,0,0,0,6.19-5.21,28.16,28.16,0,0,0,4-6.9,37,37,0,0,0,2.2-8.14A75.07,75.07,0,0,0,355.72,159.34Z"/>
        <path class="cls-6" d="M468.44,80.7a15.09,15.09,0,0,0-2.74-2,17,17,0,0,0-1.79-.82,14.88,14.88,0,0,1,1.37.59L455.2,72.61h0L467.71,46c.49-1,1-2.36,1.56-3.7a11.55,11.55,0,0,0,.85-4.18V18.37a4,4,0,0,0-1-3,2.15,2.15,0,0,0-.57-.37h0l-13-7.48a1.88,1.88,0,0,0-1.86.16L396,40.91a5.37,5.37,0,0,0-2,2.36,3.57,3.57,0,0,0-.33.56,9.8,9.8,0,0,0-1,4.11V67.48a3.87,3.87,0,0,0,1,3,3.14,3.14,0,0,0,.5.38C394.68,71,405,77,407,78.18c0,0-.11,0-.14-.15h0a1.77,1.77,0,0,0,2.36.17l8.52-4.93-2.83,6.42c-.62,1.28-1.18,2.6-1.68,3.94a7.46,7.46,0,0,0-.33.94,4.51,4.51,0,0,1-.26,1,.2.2,0,0,1,0,.11,5.8,5.8,0,0,0,0,.59v.19a7.49,7.49,0,0,0-.11,1.42v16a4.08,4.08,0,0,0,.94,3,3.64,3.64,0,0,0,.52.35l12.72,7.44-.19-.15a1.75,1.75,0,0,0,2.22,0l10-5.78h0a18.67,18.67,0,0,1-3.58,8.78,30.52,30.52,0,0,1-9.59,8.5,13.69,13.69,0,0,1-7.38,2.52,11.5,11.5,0,0,1-1.56-.23h0l-5.76-3.33a2.5,2.5,0,0,0-.8-.26,4.73,4.73,0,0,0-2.9.85L392,134.23a5.05,5.05,0,0,0-1.87,2.36,1.13,1.13,0,0,0,0,.26h0a10.61,10.61,0,0,0-.52,1.53,6.66,6.66,0,0,0-.16,1.54A28.44,28.44,0,0,0,392,151.86a16.77,16.77,0,0,0,7.08,7.74c1.94,1.09,9.63,5.62,12.6,7.29-.42-.26-.8-.56-1.18-.85a14.83,14.83,0,0,0,1.7,1.14A18.67,18.67,0,0,0,423.43,169a40.4,40.4,0,0,0,15.22-5.71,69.36,69.36,0,0,0,35.69-62.74Q474.34,86.07,468.44,80.7Z"/>
        <path class="cls-13" d="M394.09,43.46a.49.49,0,0,0,0-.17l-.3.59a9.44,9.44,0,0,0-1,4.11V67.63a3.85,3.85,0,0,0,1,3,1.65,1.65,0,0,0,.47.35l12.81,7.39a.24.24,0,0,0-.14-.14h0a3.88,3.88,0,0,1-1-3V55.54a9.08,9.08,0,0,1,1-4.06,7.42,7.42,0,0,1,.66-1.08,7.56,7.56,0,0,0-.44.66Z"/>
        <path class="cls-13" d="M425.44,95l-13.13-7.57v16.35a4.09,4.09,0,0,0,.95,3,3.15,3.15,0,0,0,.52.35c.49.26,11.4,6.56,12.88,7.44l-.16-.17h0a3.92,3.92,0,0,1-1-2.93v-16A1.59,1.59,0,0,1,425.44,95Z"/>
        <path class="cls-17" d="M426.24,91.2c.57-1.44,1.13-2.73,1.7-3.94L440.71,60,417.77,73.29l-2.86,6.4a34.78,34.78,0,0,0-1.68,3.94,7.18,7.18,0,0,0-.33.92,4.13,4.13,0,0,1-.26.94v.14a2.72,2.72,0,0,1,0,.57.31.31,0,0,1,0,.19,6,6,0,0,0,0,1L425.77,95A11.94,11.94,0,0,1,426.24,91.2Z"/>
        <path class="cls-13" d="M390,136.54v.26h0a7.73,7.73,0,0,0-.52,1.56,7,7,0,0,0-.19,1.51,28.6,28.6,0,0,0,2.6,12,16.45,16.45,0,0,0,7.08,7.71l12.58,7.32a1.21,1.21,0,0,1-.24-.21,16.64,16.64,0,0,1-6.27-7.22,28.3,28.3,0,0,1-2.6-12,7.86,7.86,0,0,1,.78-3.33,7.38,7.38,0,0,1,.63-1l-13.14-7.55A6.88,6.88,0,0,0,390,136.54Z"/>
        <path class="cls-17" d="M416.59,128.28h0l-5.76-3.35a2.94,2.94,0,0,0-.8-.24,5,5,0,0,0-2.91.83l-15.2,8.8a4.19,4.19,0,0,0-1.22,1.26l13.14,7.55a4.51,4.51,0,0,1,1.25-1.25l15.18-8.76c1.67-1,3-1.13,3.85-.45l-7.49-4.36Z"/>
        <path class="cls-18" d="M431.24,136.09a13.62,13.62,0,0,0,7.44-2.52,30.42,30.42,0,0,0,9.56-8.5,19.19,19.19,0,0,0,3.82-11.66c0-4.29-1.3-6.75-3.82-7.27a14.17,14.17,0,0,0-9.56,2.6,18.61,18.61,0,0,1-3.59,8.76,30.51,30.51,0,0,1-9.56,8.49,13.45,13.45,0,0,1-7.41,2.5,9.71,9.71,0,0,1-1.53-.21l7.48,4.34,3,2.11A8.84,8.84,0,0,0,431.24,136.09Z"/>
        <path class="cls-19" d="M455.2,72.56s7.27,4.25,10.08,5.85a1.1,1.1,0,0,0-.33-.12.83.83,0,0,0-.36-.16A18.16,18.16,0,0,0,453.12,77Z"/>
        <path class="cls-19" d="M461.55,11.12,455.6,7.65a1.9,1.9,0,0,0-1.86.17L396,41.07a5.57,5.57,0,0,0-2,2.22v.17l13.1,7.6a7.56,7.56,0,0,1,.44-.66c.14-.25.29-.48.45-.71a4.2,4.2,0,0,1,1.16-1l57.63-33.25a1.93,1.93,0,0,1,1.68-.26Z"/>
        <path class="cls-6" d="M466.83,15.23a1.76,1.76,0,0,1,2.36.16,4,4,0,0,1,1,3V38.05a11.2,11.2,0,0,1-1,4.18c-.54,1.44-1.06,2.67-1.55,3.71L455.13,72.56,453.05,77a17.86,17.86,0,0,1,12.58,1.67,15.82,15.82,0,0,1,2.74,2q5.91,5.41,5.9,19.87a69.36,69.36,0,0,1-35.62,62.76A40.48,40.48,0,0,1,423.29,169,18.67,18.67,0,0,1,412,167.18a16.82,16.82,0,0,1-7.08-7.72,28.91,28.91,0,0,1-2.6-12,7.78,7.78,0,0,1,.78-3.32,4.89,4.89,0,0,1,1.89-2.36L420.2,133c1.7-1,3-1.14,3.87-.48s1.86,1.37,2.95,2.1a8.51,8.51,0,0,0,4.2,1.37,13.8,13.8,0,0,0,7.41-2.5,30.8,30.8,0,0,0,9.58-8.52,18.84,18.84,0,0,0,3.8-11.63c0-4.35-1.25-6.75-3.8-7.27a14.34,14.34,0,0,0-9.58,2.55l-10,5.78a1.78,1.78,0,0,1-2.36-.17,4,4,0,0,1-1-3V95.4a11.9,11.9,0,0,1,.83-4.2c.57-1.44,1.13-2.73,1.7-3.94L440.64,60,409.18,78.2a1.76,1.76,0,0,1-2.36-.17,3.93,3.93,0,0,1-1-3V55.4a9.31,9.31,0,0,1,1-4.08,6.05,6.05,0,0,1,2.36-2.81Z"/>
      </g>
    </g>
    <g id="freepik--Character--inject-34">
      <g id="freepik--character--inject-34-2" data-name="freepik--character--inject-34">
        <path class="cls-20" d="M928,463.5l16.71-.73,10.81,20.48s-6.73,3.5-30.8,3.78Z"/>
        <path class="cls-6" d="M822.28,414.19c6.37,3,9.84,6.47,16.68,12,8.45,6.89,37.6,26.69,43.86,28.32a401.17,401.17,0,0,0,50.41,8.12s-2.72,16.52.8,24.67c-15,.66-53.1,1.93-66.41-1.21-14.16-3.35-29.88-11.33-42-18.34S816.26,420.14,822.28,414.19Z"/>
        <g class="cls-21">
          <path class="cls-22" d="M822.28,414.19c6.37,3,9.84,6.47,16.68,12,8.45,6.89,37.6,26.69,43.86,28.32a401.17,401.17,0,0,0,50.41,8.12s-2.72,16.52.8,24.67c-15,.66-53.1,1.93-66.41-1.21-14.16-3.35-29.88-11.33-42-18.34S816.26,420.14,822.28,414.19Z"/>
        </g>
        <path class="cls-9" d="M825.58,467.91c12.09,7.08,27.71,15,42,18.34,9.62,2.36,32.28,2.24,49.75,1.79a280,280,0,0,1-44.85-7.22,173.09,173.09,0,0,1-27.77-14.63c-7.86-5.59-8.34-15.63-12.35-30.14-5.33-19.26-10-21.86-10-21.86C816.26,420.14,813.59,460.9,825.58,467.91Z"/>
        <path class="cls-6" d="M917.37,488a34.19,34.19,0,0,1,.73-20.51s-4.86,4.72-3.82,20.58Z"/>
        <path class="cls-9" d="M917.37,488a34.19,34.19,0,0,1,.73-20.51s-4.86,4.72-3.82,20.58Z"/>
        <path class="cls-23" d="M951.59,483.61c14.16-.5,19.43-7.67,21.41-20.11s1.63-28.7,1.79-33-1.11-5.81-2.83-6c-.64,0-3.38.59-3.68,5.2-.57,8.4-.78,13.57-2.36,13.5s-1.35-6.28-1.21-14.75c0-5.72,0-10.53-3.3-10.53s-4.22,3.4-4.39,11.12,0,13.45-2,13.61c-1.65,0-1.32-8.09-1.7-13.38s-.35-8.45-3.66-8.38-3.8,4.32-3.68,9.44a203.34,203.34,0,0,1-.54,21.24c-.92,3-4.09-4.46-6.4-7.55-3.8-5.07-8.45-2.76-6.56,1.87a92.12,92.12,0,0,1,5.15,17.46C938.59,469.14,941,483.65,951.59,483.61Z"/>
        <path class="cls-20" d="M951.52,457.9s8.54,8.9,5.48,18.41a12.62,12.62,0,0,0,1.53-12.74A9.67,9.67,0,0,0,951.52,457.9Z"/>
        <path class="cls-4" d="M765.14,904c-.31,2.69-.66,10.24-14.33,12.11s-22.28-2.64-26-9.21-2.81-11.94-3.4-18-5.59-9.32-7.08-12.46c-2.12-4.6,1-11.8,1-11.8Z"/>
        <path class="cls-4" d="M864.83,882.62a8.22,8.22,0,0,1-.9,6.61,28.68,28.68,0,0,1-21.9,5.85A52.75,52.75,0,0,1,818.88,886,30.56,30.56,0,0,0,801,880.85c-6.59-.24-11.38-1.7-11.8-3.42-.88-3-.88-5,.54-4.87Z"/>
        <path class="cls-5" d="M764.22,897.79a77.2,77.2,0,0,0-6.28-7.48,67.56,67.56,0,0,1-14.16-36.25c0-.73-.14-2.15-.88-2.6s-1.48.19-2.36.52h0a14,14,0,0,1-4.22,1.11,77.48,77.48,0,0,1-11.4-.45c-.94.12-1.23,3.05-1.16,6.19-1.72-1.09-2.36-3.26-3.82-4.51-.85-.68-1.2-.71-1.2-1.82v-2.12c-1.23-.36-2.36,4.41-3.31,8-1.18,4.2-2.64,8.94-1,13.21a36.67,36.67,0,0,0,3.85,6.61,27.39,27.39,0,0,1,5,12.09c.19,1.91,0,3.87.31,5.78A16.89,16.89,0,0,0,735.49,910c8.31,2.62,20.82,2.2,28.16-3.61C766.22,904.4,765.35,900,764.22,897.79Z"/>
        <path class="cls-5" d="M859.31,873.72c-1.82-.57-3.61-1.23-5.38-1.93a98.37,98.37,0,0,1-14.33-7.09c-2-1.22-4-2.5-5.92-3.84s-3.9-3-5.83-4.56a20.63,20.63,0,0,1-2.79-3,30.61,30.61,0,0,1-4.1-6.66,2.4,2.4,0,0,0-1-1.34,2,2,0,0,0-1.93.4,9.79,9.79,0,0,1-1.52,1l-1.6.66a18.54,18.54,0,0,1-5.38,1.33c-6.94.61-7.08-.78-7.46,1.46a17.38,17.38,0,0,0,0,2.5c-3.66-.59-6.54-1.79-6.7-3.16l-.43-4.44c-5.45-.75-4.91,5.62-5.57,12.6-.54,6-1.93,11.17-.28,15.53,5.5,4.73,15.25,3.64,20.79,4.56,7.84,1.3,11.52,7.08,22.42,10.88,17.56,6.09,28.68-.94,32-4C866.37,880.8,866.79,876.2,859.31,873.72Z"/>
        <path class="cls-4" d="M726.93,538.91c-2.2,21.24-4.51,53.22-5.41,78.16-1.65,46.88-1,105.48-1,105.48a161,161,0,0,0-5,30.05c-1.11,29.95-.9,104.08-.9,104.08s12.41,12.51,31,2.69c0,0,16.52-101.18,21.05-130.71,4.41-28.15,13-89.68,13-89.68l3.87,85.08a123.84,123.84,0,0,0-2.9,38.38c1,13.71,8.83,88.36,8.83,88.36,7.08,6.71,27.94,3.07,32.5-2.36,0,0,7.29-107,8.09-121.48,1.75-31.29,2.36-150.65,0-168.75S726.93,538.91,726.93,538.91Z"/>
        <path d="M779.58,639,785,602.94a72.66,72.66,0,0,0,26-11s-4.25,9.63-20.82,16.52l-5.38,33.58-1.3,82Z"/>
        <path class="cls-4" d="M752.42,315.14a4.49,4.49,0,0,0-1.28.26,5.85,5.85,0,0,0-3.14-6.61,6.29,6.29,0,0,0-8.14,3.33l8.87,4.08A12.38,12.38,0,0,0,742,322c-2.36,5,.78,15.67,4,28.84a184.5,184.5,0,0,0,7.08,24.4c1.48,3.85,4.17,4,4.17,4V366l-.56-10.88s7.08-9.56,7.76-17.39c1-10.06-1.13-14.16-1.13-14.16Z"/>
        <path class="cls-23" d="M757.14,353.4c-2.62,2.36-4.72-3.62-7-5.93s-9.44-5.43-13,2.15,3.28,18.2,8.69,20.7c7.88,3.66,11.42-4.3,11.42-4.3V398.9c8.31,15,26.65,14.49,35.14,16.52a29,29,0,0,0-.33-14.75V390a39.18,39.18,0,0,0,10.86.59c7.08-1.13,11-7.08,13.17-14.82,3.47-12.48,4.18-33.46-.64-57.7-8-6.21-35.21-5.22-52.06,5.47C764.67,345,759.83,351.11,757.14,353.4Z"/>
        <path class="cls-20" d="M792.11,390s-16-3.17-21.64-6.14a18.63,18.63,0,0,1-7.76-7.62,25,25,0,0,0,4.43,9c4.11,5.22,25,9,25,9Z"/>
        <path class="cls-4" d="M784.82,348.91a3.42,3.42,0,1,1-3.42-3.42,3.42,3.42,0,0,1,3.42,3.42Z"/>
        <path class="cls-4" d="M812,346.41a3.43,3.43,0,1,1-3.43-3.42,3.43,3.43,0,0,1,3.43,3.42Z"/>
        <path class="cls-4" d="M780.2,339.8l-7.09,3.75a4.23,4.23,0,0,1,1.77-5.59,4,4,0,0,1,5.29,1.78Z"/>
        <path class="cls-24" d="M786.59,370.06l12,3.11a6.06,6.06,0,0,1-7.11,4.8l-.32-.08A6.48,6.48,0,0,1,786.59,370.06Z"/>
        <path class="cls-20" d="M787.82,372.58a8.54,8.54,0,0,0-1.23.12,6.43,6.43,0,0,0,4.72,5.12,5.53,5.53,0,0,0,3,0A6.54,6.54,0,0,0,787.82,372.58Z"/>
        <path class="cls-4" d="M814.82,340.46,807.46,337a3.92,3.92,0,0,1,5.12-2.12l.19.09A4.31,4.31,0,0,1,814.82,340.46Z"/>
        <polygon class="cls-20" points="795.44 344.88 797.59 366.85 808.57 361.92 795.44 344.88"/>
        <path class="cls-6" d="M743.16,398.9c-14.58,5.22-25.42,10.31-35.54,19,0,0,10.48,45.48,17,70.52,6,22.82.38,69.32.38,69.32s9.18,13.88,61.36,12.37c29.5-.85,43.9-10.29,43.9-10.29s2.5-51.29,1.37-94.17c-.9-34.51-3.4-42.84-9.27-51.48-4.25-2.88-27.74-11.56-27.74-11.56a61.44,61.44,0,0,0-2,12.86C784,402.11,743.16,398.9,743.16,398.9Z"/>
        <path class="cls-25" d="M743.16,398.9c-14.58,5.22-25.42,10.31-35.54,19,0,0,10.48,45.48,17,70.52,6,22.82.38,69.32.38,69.32s9.18,13.88,61.36,12.37c29.5-.85,43.9-10.29,43.9-10.29s2.5-51.29,1.37-94.17c-.9-34.51-3.4-42.84-9.27-51.48-4.25-2.88-27.74-11.56-27.74-11.56a61.44,61.44,0,0,0-2,12.86C784,402.11,743.16,398.9,743.16,398.9Z"/>
        <path class="cls-9" d="M736.25,516.55c-.61-15.36-3.94-44.48-3.71-66.55l-10.41-15.79-6.06,19.61c2.9,12,6,24.88,8.59,34.6,6,22.82.38,69.32.38,69.32s9.18,13.88,61.36,12.37h1a87.48,87.48,0,0,1-28-7.93C743.12,554.15,736.86,531.94,736.25,516.55Z"/>
        <path class="cls-6" d="M757.37,385v2.52c.47,2.36,5.31,8.15,17.49,13.62a41,41,0,0,1,17.66,14.3s-4.16-6.39-9.28-3-10.31,11.8-13,11.8-11.47-8.42-18.38-15.64c-5.79-6.09-8.74-9.75-8.74-9.75S752.63,385.16,757.37,385Z"/>
        <path class="cls-6" d="M792.54,415.49c3.7-8.87,10.38-1.3,10.81-1.25,1.93.12-4.23-16.19-11.17-20.67v7.08Z"/>
        <path class="cls-26" d="M757.37,385v2.52c.47,2.36,5.31,8.15,17.49,13.62a41,41,0,0,1,17.66,14.3s-4.16-6.39-9.28-3-10.31,11.8-13,11.8-11.47-8.42-18.38-15.64c-5.79-6.09-8.74-9.75-8.74-9.75S752.63,385.16,757.37,385Z"/>
        <path class="cls-26" d="M792.54,415.49c3.7-8.87,10.38-1.3,10.81-1.25,1.93.12-4.23-16.19-11.17-20.67v7.08Z"/>
        <path class="cls-6" d="M802.24,568.71c.61-32.71,1.46-116.73-9.72-153.22,0,0,10.55,77.68,4.83,153.86C799.05,569.16,800.68,569,802.24,568.71Z"/>
        <path class="cls-9" d="M802.24,568.71c.61-32.71,1.46-116.73-9.72-153.22,0,0,10.55,77.68,4.83,153.86C799.05,569.16,800.68,569,802.24,568.71Z"/>
        <path class="cls-6" d="M749,454.74a91.08,91.08,0,0,0,33.25-4l.52,6.42a82.7,82.7,0,0,1-33,3.45Z"/>
        <path class="cls-9" d="M749,454.74a91.08,91.08,0,0,0,33.25-4l.52,6.42a82.7,82.7,0,0,1-33,3.45Z"/>
        <g id="freepik--Shield--inject-34">
          <path class="cls-12" d="M830.7,439.71a.46.46,0,0,0-.16-.47h0a8,8,0,0,1-1-.62h0a.93.93,0,0,0-.52.14,7.43,7.43,0,0,1-7.36.81,5.77,5.77,0,0,1-.83-.81h0a.77.77,0,0,0-.21-.19l-1-.63h0c-.23-.12-.47,0-.63.33-2.2,5-6.71,10-9.63,11.14a1.51,1.51,0,0,0-.59.4,1.24,1.24,0,0,0-.36.83c-.21,6.49,3,17,9.61,20.67a12.67,12.67,0,0,0,1.23.76C828.7,462.7,830.44,447.4,830.7,439.71Z"/>
          <path class="cls-2" d="M817.89,471.19c-6.61-3.7-9.82-14.16-9.61-20.67a1.34,1.34,0,0,1,.14-.52l1,.66a1,1,0,0,0-.12.49C809.06,457.29,812,467,817.89,471.19Z"/>
          <path class="cls-10" d="M830.7,439.71c-.26,7.69-2,23-11.59,32.24-6.75-3.61-10-14.16-9.79-20.8a1.25,1.25,0,0,1,.35-.82,1.81,1.81,0,0,1,.59-.4c2.93-1.18,7.44-6.16,9.63-11.14.17-.36.38-.45.62-.33h0a.76.76,0,0,1,.21.19h0a7.1,7.1,0,0,0,9.23.66.59.59,0,0,1,.52-.17h0A.49.49,0,0,1,830.7,439.71Z"/>
          <path class="cls-27" d="M820.51,438.46c-.24-.12-.45,0-.62.33-2.19,5-6.7,10-9.63,11.14a1.81,1.81,0,0,0-.59.4,1.25,1.25,0,0,0-.35.82c-.21,6.54,3,17.19,9.79,20.8A71.34,71.34,0,0,0,820.51,438.46Z"/>
        </g>
        <path class="cls-4" d="M767.92,328.26s22,10.72,45.6,1.44c24.24-9.56,3-16.33,3-16.33Z"/>
        <path class="cls-5" d="M817.13,281.32c-18.29-4.06-38.28-6.21-62.28,3.63S724.8,309.5,724.8,309.5s23.27,8,42.93,3.65S817.13,281.32,817.13,281.32Z"/>
        <path class="cls-3" d="M738.56,322.9s-12.86-10.45-13.76-13.52A80.8,80.8,0,0,0,752.7,306c15.77-4.72,32.88-20.54,50.53-24.2s24.55,4.72,24.55,4.72a83.66,83.66,0,0,1-11.19,20.42s-6.16,12-26.93,15.93S738.56,322.9,738.56,322.9Z"/>
        <path class="cls-6" d="M738.56,322.9a36.15,36.15,0,0,0,1,4.11,19.85,19.85,0,0,0,1.91,3.47c7.37,1.44,25.07,2.59,48.41-3C804.51,324,811.26,319.93,814,317a7.89,7.89,0,0,0,2.83-6.84l-.28-3.24s-4.86,6.45-28.79,12.42A166.3,166.3,0,0,1,738.56,322.9Z"/>
        <path class="cls-11" d="M738.56,322.9a36.15,36.15,0,0,0,1,4.11,19.85,19.85,0,0,0,1.91,3.47c7.37,1.44,25.07,2.59,48.41-3C804.51,324,811.26,319.93,814,317a7.89,7.89,0,0,0,2.83-6.84l-.28-3.24s-4.86,6.45-28.79,12.42A166.3,166.3,0,0,1,738.56,322.9Z"/>
        <path class="cls-23" d="M751.31,645.16c-2.36-3.44-7.82-6.56-9.85-8.59-3.58-3.63-8.82-11.31-8-12.72s3,.42,7.55.4c7.08,0,9-2.79,8.94-5.38,0-2-4.31-1.65-9.44-2.79-4.5-1.44-9.91-6.51-12.86-10.5s-5.33-14.4-5.33-14.4-15.32.22-26,7.46c0,0,3.05,15.81,6.54,27,3.9,12.58,12.72,26.45,26.15,29.57a32.65,32.65,0,0,0,16.9-.85,12.43,12.43,0,0,0,4.49-2.22,4.72,4.72,0,0,0,1.27-6.55C751.55,645.46,751.43,645.31,751.31,645.16Z"/>
        <path class="cls-6" d="M707.57,417.9s-2.36-.47-6.32,8.64a146.09,146.09,0,0,0-7.72,27.21c-1.58,7.6-9.13,47.51-9.13,64.67s5.12,51.64,11.8,81c8.21.83,22.32-1.29,27-6.68-3.09-29.31-5.68-44.39-5-67.45,4.72-34.22,18.58-70.07,19.17-74.06C738.68,442.49,724.85,415,707.57,417.9Z"/>
        <path class="cls-26" d="M707.57,417.9s-2.36-.47-6.32,8.64a146.09,146.09,0,0,0-7.72,27.21c-1.58,7.6-9.13,47.51-9.13,64.67s5.12,51.64,11.8,81c8.21.83,22.32-1.29,27-6.68-3.09-29.31-5.68-44.39-5-67.45,4.72-34.22,18.58-70.07,19.17-74.06C738.68,442.49,724.85,415,707.57,417.9Z"/>
        <path class="cls-9" d="M696.41,562.18c-4.11-20.06-10.83-59.34-6.23-90.23-2.65,15.17-5.74,35.4-5.74,46.47,0,17.16,5.12,51.64,11.8,81a48.11,48.11,0,0,0,9.82-.18C703.11,589.56,698.93,574.54,696.41,562.18Z"/>
        <path class="cls-6" d="M693.27,585.05c6.7.42,18.62-1.47,23.6-4.72,0,0-8.68,3.84-24,1.65Z"/>
        <path class="cls-9" d="M693.27,585.05c6.7.42,18.62-1.47,23.6-4.72,0,0-8.68,3.84-24,1.65Z"/>
        <g id="freepik--shield--inject-34-2" data-name="freepik--shield--inject-34">
          <path class="cls-12" d="M810.92,292.24v-.35h0l-.75-.47h-.4a5.62,5.62,0,0,1-5.5.59,3.58,3.58,0,0,1-.61-.62h0a.58.58,0,0,0-.17-.14l-.76-.47h0a.39.39,0,0,0-.44.26,18,18,0,0,1-7.2,8.31,1.15,1.15,0,0,0-.45.3,1,1,0,0,0-.26.62c-.17,4.72,2.24,12.67,7.08,15.43a6.86,6.86,0,0,0,.9.57C809.44,309.4,810.74,298,810.92,292.24Z"/>
          <path class="cls-2" d="M801.37,315.75c-5-2.76-7.34-10.6-7.08-15.43a.81.81,0,0,1,0-.38l.77.47a.81.81,0,0,0,0,.38C794.9,305.37,796.93,312.64,801.37,315.75Z"/>
          <path class="cls-10" d="M810.92,292.24c-.18,5.76-1.48,17.16-8.66,24.08-5-2.69-7.46-10.65-7.29-15.53a.85.85,0,0,1,.26-.62,1.4,1.4,0,0,1,.42-.3,17.71,17.71,0,0,0,7.2-8.31c.12-.26.31-.35.47-.26h0a.39.39,0,0,1,.17.14h0a5.17,5.17,0,0,0,6.89.5c.17-.12.29-.14.38,0h0A.32.32,0,0,1,810.92,292.24Z"/>
          <path class="cls-27" d="M803.33,291.3a.44.44,0,0,0-.48.26,17.71,17.71,0,0,1-7.2,8.31,1.4,1.4,0,0,0-.42.3.85.85,0,0,0-.26.62c-.17,4.88,2.36,12.84,7.29,15.53A53.23,53.23,0,0,0,803.33,291.3Z"/>
        </g>
      </g>
    </g>
    <g id="freepik--speech-bubble--inject-34">
      <path class="cls-6" d="M775.69,255.35,762.8,226l10.36-29.9V177.66L741.44,196v18.32L755.08,243a2,2,0,0,0,.92.83h0Z"/>
      <path class="cls-15" d="M775.69,255.35,762.8,226l10.36-29.9V177.66L741.44,196v18.32L755.08,243a2,2,0,0,0,.92.83h0Z"/>
      <path class="cls-6" d="M870.59,78.67a21.09,21.09,0,0,0-9.44-16.52l-7.74-4.46a21,21,0,0,0-19,0L652.37,163a21,21,0,0,0-9.44,16.52v72.55a21.06,21.06,0,0,0,9.44,16.52l7.74,4.46a20.91,20.91,0,0,0,19,0l82.23-47.2L775,254.55a2,2,0,0,0,3.66-.35L793,207.54l68-39.8a21,21,0,0,0,9.44-16.52Z"/>
      <path class="cls-15" d="M642.86,252.05a21.06,21.06,0,0,0,9.44,16.52L660,273a21.2,21.2,0,0,0,17.39.78c-4.46,1.68-7.88-.85-7.88-6.25V194.89a19.3,19.3,0,0,1,2.79-9.44L645.57,170a19.39,19.39,0,0,0-2.78,9.44Z"/>
      <path class="cls-28" d="M870.28,76c-1.11-4-4.72-5.31-9.18-2.78L679.25,178.44a18.38,18.38,0,0,0-6.7,7.08l-26.74-15.44a18.92,18.92,0,0,1,6.68-7.08L834.41,57.74a21.22,21.22,0,0,1,19.05,0l7.76,4.48A21.09,21.09,0,0,1,870.28,76Z"/>
    </g>
    <path class="cls-14" d="M682.74,239.14V200.79a4.94,4.94,0,0,1,.36-2.08,2.58,2.58,0,0,1,1.11-1.2l10.88-6.31c.4-.21.68-.14.87.24a5.41,5.41,0,0,1,.28,2.15v1.89A8.23,8.23,0,0,1,696,198a2,2,0,0,1-.87,1.23l-6.16,3.57v8.89l5.8-3.35c.4-.23.69-.16.88.21a6,6,0,0,1,.26,2.18v1.88a8.9,8.9,0,0,1-.26,2.36,2,2,0,0,1-.88,1.23l-5.8,3.35v16a3.88,3.88,0,0,1-2.36,3.28l-1.58.9C683.52,240.65,682.74,240.44,682.74,239.14Z"/>
    <path class="cls-14" d="M698.72,210.51q0-21.76,10.36-27.78,5.05-2.89,7.7.87c1.74,2.51,2.64,7.51,2.64,15a51.33,51.33,0,0,1-2.64,18,18.29,18.29,0,0,1-7.7,9.75Q698.75,232.25,698.72,210.51Zm12.7,5.29a15.93,15.93,0,0,0,1.3-5,65.64,65.64,0,0,0,.45-8.64,54.18,54.18,0,0,0-.45-8.05,5.93,5.93,0,0,0-1.3-3.49,2.2,2.2,0,0,0-2.36,0,5.94,5.94,0,0,0-2.36,2.55,16.62,16.62,0,0,0-1.35,5,63.22,63.22,0,0,0-.44,8.59,53,53,0,0,0,.44,8.07,6,6,0,0,0,1.35,3.5,2,2,0,0,0,2.36,0,6.23,6.23,0,0,0,2.36-2.65Z"/>
    <path class="cls-14" d="M723.06,215.87v-38.4a4.66,4.66,0,0,1,.37-2.08,2.62,2.62,0,0,1,1.21-1.27l6.53-3.73a5.44,5.44,0,0,1,5.86-.62c1.48,1,2.22,3.66,2.22,8a21.24,21.24,0,0,1-3.76,12.46v.26a2.62,2.62,0,0,1,1.58,1.51,10.59,10.59,0,0,1,1.07,3l2.36,10.34.12.66c0,1.09-.81,2.1-2.36,3.05l-1.37.8c-1.4.8-2.2.73-2.36-.26l-2.1-10.36a2.55,2.55,0,0,0-.81-1.42c-.3-.19-.78,0-1.44.29l-.94.54V212.4a4,4,0,0,1-2.36,3.33l-1.35.78C723.83,217.36,723.06,217.17,723.06,215.87Zm8.3-27.45a4,4,0,0,0,1.47-2.2,12.18,12.18,0,0,0,.61-4.24,6.23,6.23,0,0,0-.61-3.4,1.11,1.11,0,0,0-1.54-.31l-.07,0-2.08,1.2v10.17Z"/>
    <path class="cls-14" d="M743.8,205.13a2.59,2.59,0,0,1-.35-1.65V165.67a4.93,4.93,0,0,1,.35-2,2.58,2.58,0,0,1,1.11-1.2l7.08-4.09c5.55-3.21,8.31-1.36,8.31,5.48A21.1,21.1,0,0,1,756.74,176v.21a3,3,0,0,1,3.16,1.72,11.74,11.74,0,0,1,1.15,5.86,22.12,22.12,0,0,1-2.36,10,16.47,16.47,0,0,1-6.7,7.08l-7.2,4.18C744.41,205.37,744,205.37,743.8,205.13ZM752,175.7a4.36,4.36,0,0,0,1.86-2.36,11.84,11.84,0,0,0,.62-4.3,6.64,6.64,0,0,0-.57-3.4c-.38-.53-1-.53-1.84,0l-2.81,1.63v10Zm.28,17.72a5,5,0,0,0,2.15-2.5,12.41,12.41,0,0,0,.68-4.72,6.3,6.3,0,0,0-.66-3.59c-.45-.54-1.18-.52-2.17,0l-3,1.73V195Z"/>
    <path class="cls-14" d="M764.57,191.89v-39a3.84,3.84,0,0,1,2.36-3.33l1.68-1c1.48-.88,2.24-.62,2.24.7v39a3.85,3.85,0,0,1-2.24,3.33l-1.68.94C765.33,193.47,764.57,193.23,764.57,191.89Z"/>
    <path class="cls-14" d="M775.5,186.91a2.36,2.36,0,0,1-.38-1.65V147.49a4.74,4.74,0,0,1,.38-2.07,2.37,2.37,0,0,1,1.08-1.21l7.53-4.34q5.14-3,7.58.92c1.6,2.6,2.36,7.48,2.36,14.61a52.43,52.43,0,0,1-2.36,17.42,17.63,17.63,0,0,1-7.58,9.68l-7.53,4.31C776,187.07,775.71,187.1,775.5,186.91Zm8.4-12.25a7.25,7.25,0,0,0,3-4.72,48,48,0,0,0,.9-10.83,34.36,34.36,0,0,0-.9-9.8c-.61-1.65-1.6-2.1-3-1.27l-2.52,1.44v26.57Z"/>
    <path class="cls-14" d="M798.3,173.67a2.66,2.66,0,0,1-.36-1.65V134.25a5.06,5.06,0,0,1,.36-2.07,2.65,2.65,0,0,1,1.11-1.21l7.53-4.34q5.12-3,7.55.92t2.36,14.61a51.92,51.92,0,0,1-2.36,17.42,17.49,17.49,0,0,1-7.55,9.67l-7.53,4.32C798.91,173.88,798.53,173.9,798.3,173.67Zm8.42-12.27a7.25,7.25,0,0,0,3-4.73,47.94,47.94,0,0,0,.9-10.83,34.3,34.3,0,0,0-.9-9.79c-.61-1.68-1.62-2.1-3-1.3l-2.52,1.46v26.67Z"/>
    <path class="cls-14" d="M821.12,160.5a2.59,2.59,0,0,1-.35-1.65V121.08a5,5,0,0,1,.35-2,2.81,2.81,0,0,1,1.11-1.23l11.66-6.72a.54.54,0,0,1,.77,0,.52.52,0,0,1,.1.18,5.7,5.7,0,0,1,.29,2.17v1.89a8.58,8.58,0,0,1-.29,2.36,2,2,0,0,1-.87,1.23l-7,4.24V132l6.18-3.56c.4-.22.68-.14.87.23a5.41,5.41,0,0,1,.29,2.15v1.79a8.6,8.6,0,0,1-.29,2.48,2,2,0,0,1-.87,1.23l-6.18,3.56v9.87l7.08-4c.4-.23.68-.16.85.24a6.37,6.37,0,0,1,.26,2.17V150a9.87,9.87,0,0,1-.26,2.36,2,2,0,0,1-.85,1.23l-11.8,6.75C821.73,160.71,821.36,160.73,821.12,160.5Z"/>
    <path class="cls-14" d="M838.63,149.15v-39A3.8,3.8,0,0,1,841,106.9l1-.61a2.31,2.31,0,0,1,1.27-.38c.31,0,.57.33.78.89l7.08,15.75a32.84,32.84,0,0,1,1.35,4l.16-.24c-.21-2-.33-3.52-.33-4.72V102.25A3.83,3.83,0,0,1,854.68,99l1-.54c1.51-.9,2.36-.69,2.36.61v39a3.87,3.87,0,0,1-2.36,3.28l-.76.43a2.46,2.46,0,0,1-1.32.42c-.33,0-.61-.33-.82-.9l-7.56-16.33a25.08,25.08,0,0,1-1.06-3.28l-.19.28a35.19,35.19,0,0,1,.31,4v20a3.83,3.83,0,0,1-2.36,3.28l-.94.54C839.41,150.63,838.63,150.42,838.63,149.15Z"/>
  </g>
</svg>
