<?xml version="1.0" encoding="utf-8"?>
<!-- Generator: Adobe Illustrator 24.0.1, SVG Export Plug-In . SVG Version: 6.00 Build 0)  -->
<svg version="1.1" id="Layer_1" xmlns="http://www.w3.org/2000/svg" xmlns:xlink="http://www.w3.org/1999/xlink" x="0px" y="0px"
	 viewBox="0 0 100 100" style="enable-background:new 0 0 100 100;" xml:space="preserve">
<style type="text/css">
	.st0{fill:#1B5690;}
	.st1{fill:#F28E29;}
	.st2{fill:#E30613;}
	.st3{fill:#2FAC66;}
	.st4{fill:#F9B233;}
	.st5{fill:url(#SVGID_1_);stroke:#432918;stroke-width:0.25;stroke-miterlimit:10;}
	.st6{fill:url(#SVGID_2_);}
	.st7{fill:#F5AEBF;}
	.st8{fill:#FFFFFF;}
	.st9{fill:url(#SVGID_3_);}
	.st10{fill:#B3DCDA;}
	.st11{fill:url(#SVGID_4_);stroke:#432918;stroke-width:0.25;stroke-miterlimit:10;}
	.st12{fill:url(#SVGID_5_);}
	.st13{fill:url(#SVGID_6_);}
	.st14{fill:url(#SVGID_7_);stroke:#432918;stroke-width:0.25;stroke-miterlimit:10;}
	.st15{fill:url(#SVGID_8_);}
	.st16{fill:url(#SVGID_9_);}
	.st17{fill:url(#SVGID_10_);}
	.st18{fill:url(#SVGID_11_);}
	.st19{fill:url(#SVGID_12_);stroke:#432918;stroke-width:0.25;stroke-miterlimit:10;}
	.st20{fill:url(#SVGID_13_);}
	.st21{fill:url(#SVGID_14_);}
	.st22{fill:url(#SVGID_15_);}
	.st23{fill:url(#SVGID_16_);stroke:#432918;stroke-width:0.25;stroke-miterlimit:10;}
</style>
<g>
	<path class="st1" d="M41,42.8c1.8,0,3.5-1.2,4.2-3c0.7-1.8,0.4-4-0.9-5.4L42.2,32c-0.3-0.3-0.7-0.5-1.1-0.5s-0.8,0.2-1.1,0.5
		l-4.4,4.6l-4.4,4.6c-0.4,0.4-0.6,1-0.5,1.6c0.1,0.6,0.5,1.1,1.1,1.2c0.5,0.2,1.1,0,1.5-0.4l3.3-3.5l0.4,0.5l-2,6
		c-0.2,0.6-0.1,1.2,0.3,1.6c0.4,0.5,0.9,0.7,1.5,0.6c0.5-0.1,1-0.5,1.2-1.1l1.7-5.1C40.1,42.7,40.5,42.8,41,42.8z M41,35.5l1.1,1.2
		c0.6,0.7,0.6,1.7,0,2.4c-0.6,0.6-1.6,0.6-2.2,0l-1.1-1.2L41,35.5z"/>
	<path class="st1" d="M33.7,34.4c1.1,0,2.2-0.5,3-1.4c1.8-1.9,1.9-5.1,0.1-7.1l-2.1-2.4c-0.6-0.7-1.5-0.7-2.2,0l-8.8,9.2
		c-0.6,0.6-0.6,1.7,0,2.4l2.1,2.4c0.8,1,2,1.5,3.2,1.5h0.1C31.6,39,33.5,37,33.7,34.4L33.7,34.4z M33.6,27.1l1.1,1.2
		c0.6,0.7,0.6,1.7,0,2.4c-0.3,0.3-0.7,0.5-1.1,0.5c-0.4,0-0.8-0.2-1.1-0.5l-1.1-1.2L33.6,27.1z M30.2,35.3c-0.3,0.3-0.7,0.5-1.1,0.5
		c-0.4,0-0.8-0.2-1.1-0.5L27,34l2.2-2.3l1.1,1.2C30.8,33.6,30.8,34.6,30.2,35.3L30.2,35.3z"/>
	<path class="st1" d="M52.8,44c-0.4-0.5-1.1-0.6-1.7-0.4l-12,5.6c-0.8,0.4-1.1,1.4-0.8,2.2c0.3,0.8,1.2,1.2,2,0.9l2-1l3.3,3.7
		l-1,2.2c-0.4,0.8,0,1.8,0.7,2.2c0.2,0.1,0.4,0.2,0.7,0.2c0.6,0,1.1-0.4,1.4-0.9l5.6-12.8C53.3,45.2,53.2,44.5,52.8,44z M45.3,49.9
		l3.2-1.5l-1.5,3.5L45.3,49.9z"/>
	<path class="st1" d="M64.5,57.1c-0.6-0.7-1.5-0.7-2.2,0l-5,5.2l2.2-9.6c0.2-0.7-0.1-1.5-0.7-1.9c-0.6-0.4-1.3-0.3-1.8,0.2l-8.8,9.2
		c-0.6,0.6-0.6,1.7,0,2.3c0.6,0.6,1.5,0.7,2.1,0.1l5-5.2l-2.2,9.6c-0.2,0.7,0.1,1.5,0.7,1.9c0.6,0.4,1.3,0.3,1.8-0.2l8.8-9.2
		C65,58.9,65.1,57.8,64.5,57.1z"/>
	<path class="st1" d="M67.7,60.7c-0.3-0.3-0.7-0.5-1.1-0.5c-0.4,0-0.8,0.2-1.1,0.5l-8.8,9.2c-0.6,0.6-0.6,1.7,0,2.4l1.1,1.2
		c1.9,2.2,4.7,3.1,7.4,2.4c2.7-0.7,4.8-2.9,5.6-5.9c0.7-2.9,0-6-2-8.1L67.7,60.7z M66.4,71.3c-1.8,1.9-4.7,1.9-6.5-0.1l6.6-6.9
		C68.3,66.2,68.2,69.4,66.4,71.3z"/>
	<path class="st1" d="M87.3,59.3l1.7-1.9l-2.2-2.4L85.2,57v-2.6h-3.1V57l-1.7-1.9l-2.2,2.4l1.7,1.9h-2.4v3.3H80l-1.7,1.9l2.2,2.4
		l1.7-1.9v2.6h3.1v-2.6l1.7,1.9l2.2-2.4l-1.7-1.9h2.4v-3.3L87.3,59.3L87.3,59.3z"/>
	<path class="st0" d="M83.7,48.5c-2.7,0-5.2,1-7.3,2.9L37.2,7.1c-0.3-0.4-0.7-0.5-1.2-0.5L10.7,8.4L8,5.4c-0.6-0.7-1.5-0.7-2.2,0
		S5.2,7,5.8,7.7l2.7,3L4.9,36.9c-0.1,0.5,0.1,1,0.4,1.4l49.9,56.4c0.6,0.7,1.5,0.7,2.2,0l21.4-22.4c4.3,2.2,9.3,1.4,12.8-2.1
		c3.5-3.5,4.6-9,2.9-13.7C92.6,51.6,88.4,48.5,83.7,48.5z M11.1,13.7l2.3,2.6c-0.7,1.5-0.7,3.4,0.2,4.8c0.8,1.5,2.3,2.4,3.8,2.4h0.1
		c2.5,0,4.6-2.2,4.6-5c0-2.8-2-5-4.6-5c-0.7,0-1.4,0.1-2,0.5l-2.2-2.4l22-1.5l0.6,0.6L9.6,38.4L8,36.5L11.1,13.7z M16.5,17.3
		c0.3-0.3,0.7-0.5,1.1-0.5h0c0.6,0,1.2,0.4,1.4,1.1c0.2,0.6,0.1,1.3-0.4,1.8c-0.3,0.3-0.7,0.5-1.1,0.5c-0.6,0-1.2-0.4-1.4-1.1
		C15.9,18.5,16,17.8,16.5,17.3L16.5,17.3z M56.3,91.1l-6.8-7.6h14L56.3,91.1z M66.7,80.2L66.7,80.2l-20.1,0L11.7,40.8L38.2,13
		l36.1,40.8c-3.4,5.2-2.6,12.4,1.8,16.6L66.7,80.2z M83.7,70.2c-4.6,0-8.4-4.1-8.4-9.2s3.8-9.2,8.4-9.2c4.6,0,8.4,4.1,8.4,9.2
		C92.1,66.1,88.3,70.2,83.7,70.2z"/>
</g>
<g>
	
		<radialGradient id="SVGID_1_" cx="-82.8759" cy="233.1967" r="2.8254" gradientTransform="matrix(9.3792 0 0 -9.3792 828.0333 2228.4814)" gradientUnits="userSpaceOnUse">
		<stop  offset="2.060000e-02" style="stop-color:#87CBC5"/>
		<stop  offset="1" style="stop-color:#37B39A"/>
	</radialGradient>
	<circle style="fill:url(#SVGID_1_);" cx="50.7" cy="41.3" r="26.5"/>
	<g>
		<path class="st8" d="M42.1,52.3l-7.8-8.9c-1.1-1.3-1-3.3,0.3-4.4c1.3-1.1,3.3-1,4.4,0.3l5.7,6.5l18-15.8c1.3-1.1,3.3-1,4.4,0.3
			c1.1,1.3,1,3.3-0.3,4.4L46.5,52.6C45.2,53.7,43.2,53.6,42.1,52.3L42.1,52.3z"/>
	</g>
</g>
</svg>
