<?xml version="1.0" encoding="utf-8"?>
<!-- Generator: Adobe Illustrator 24.0.1, SVG Export Plug-In . SVG Version: 6.00 Build 0)  -->
<svg version="1.1" id="Layer_1" xmlns="http://www.w3.org/2000/svg" xmlns:xlink="http://www.w3.org/1999/xlink" x="0px" y="0px"
	 viewBox="0 0 100 100" style="enable-background:new 0 0 100 100;" xml:space="preserve">
<style type="text/css">
	.st0{fill:#1B5690;}
	.st1{fill:#F28E29;}
	.st2{fill:#E30613;}
	.st3{fill:#2FAC66;}
	.st4{fill:#F9B233;}
	.st5{fill:url(#SVGID_1_);stroke:#432918;stroke-width:0.25;stroke-miterlimit:10;}
	.st6{fill:url(#SVGID_2_);}
	.st7{fill:#F5AEBF;}
	.st8{fill:#FFFFFF;}
	.st9{fill:url(#SVGID_3_);}
	.st10{fill:url(#SVGID_4_);}
	.st11{fill:#B3DCDA;}
	.st12{fill:url(#SVGID_5_);stroke:#432918;stroke-width:0.25;stroke-miterlimit:10;}
	.st13{fill:url(#SVGID_6_);}
	.st14{fill:url(#SVGID_7_);}
	.st15{fill:url(#SVGID_8_);stroke:#432918;stroke-width:0.25;stroke-miterlimit:10;}
	.st16{fill:url(#SVGID_9_);}
	.st17{fill:url(#SVGID_10_);}
	.st18{fill:url(#SVGID_11_);}
	.st19{fill:url(#SVGID_12_);stroke:#432918;stroke-width:0.25;stroke-miterlimit:10;}
	.st20{fill:url(#SVGID_13_);}
	.st21{fill:url(#SVGID_14_);}
	.st22{fill:url(#SVGID_15_);}
	.st23{fill:url(#SVGID_16_);stroke:#432918;stroke-width:0.25;stroke-miterlimit:10;}
</style>
<g>
	<path class="st1" d="M41.2,43c1.8,0,3.4-1.2,4.1-3s0.4-3.9-0.9-5.3l-2.1-2.3c-0.3-0.3-0.7-0.5-1-0.5c-0.4,0-0.8,0.2-1.1,0.4
		L36,36.9l-4.3,4.5c-0.4,0.4-0.6,1-0.4,1.6c0.1,0.6,0.5,1,1,1.2c0.5,0.2,1.1,0,1.5-0.4l3.2-3.4l0.4,0.4l-1.9,5.9
		c-0.2,0.5-0.1,1.2,0.3,1.6c0.4,0.4,0.9,0.6,1.4,0.5c0.5-0.1,1-0.5,1.1-1.1l1.6-5C40.3,42.9,40.8,43,41.2,43z M41.3,35.9l1,1.2
		c0.6,0.6,0.6,1.7,0,2.3c-0.6,0.6-1.5,0.6-2.1,0l-1-1.2L41.3,35.9z"/>
	<path class="st1" d="M34.2,34.8c1.1,0,2.2-0.5,3-1.3c1.8-1.9,1.8-4.9,0.1-6.9l-2.1-2.3c-0.6-0.6-1.5-0.7-2.1,0l-8.6,9
		c-0.6,0.6-0.6,1.6,0,2.3l2.1,2.3c0.8,0.9,1.9,1.5,3.1,1.5h0.1C32.1,39.4,34,37.4,34.2,34.8L34.2,34.8z M34.1,27.7l1,1.2
		c0.6,0.6,0.6,1.7,0,2.3c-0.3,0.3-0.7,0.5-1.1,0.4c-0.4,0-0.8-0.2-1-0.5l-1-1.2L34.1,27.7z M30.8,35.7c-0.3,0.3-0.7,0.5-1.1,0.4
		c-0.4,0-0.8-0.2-1-0.5l-1-1.2l2.1-2.2l1,1.2C31.4,34,31.4,35,30.8,35.7L30.8,35.7z"/>
	<path class="st1" d="M52.7,44.1c-0.4-0.5-1.1-0.6-1.7-0.4l-11.7,5.5c-0.7,0.4-1.1,1.3-0.8,2.1c0.3,0.8,1.2,1.2,2,0.8l2-0.9l3.2,3.6
		L44.8,57c-0.4,0.8,0,1.8,0.7,2.2c0.2,0.1,0.4,0.2,0.6,0.2c0.6,0,1.1-0.4,1.3-0.9L53,46C53.3,45.3,53.1,44.6,52.7,44.1z M45.5,49.9
		l3.1-1.5l-1.5,3.4L45.5,49.9z"/>
	<path class="st1" d="M64.1,56.9c-0.6-0.6-1.5-0.7-2.1,0L57.1,62l2.2-9.3c0.2-0.7-0.1-1.4-0.7-1.8c-0.6-0.4-1.3-0.3-1.8,0.2l-8.6,9
		c-0.6,0.6-0.6,1.6,0,2.3c0.6,0.6,1.5,0.7,2.1,0.1l4.8-5.1L53,66.7c-0.2,0.7,0.1,1.4,0.7,1.8c0.6,0.4,1.3,0.3,1.8-0.2l8.6-9
		C64.6,58.6,64.6,57.6,64.1,56.9z"/>
	<path class="st1" d="M67.2,60.4c-0.3-0.3-0.7-0.5-1-0.5c-0.4,0-0.8,0.2-1.1,0.4l-8.6,9c-0.6,0.6-0.6,1.6,0,2.3l1,1.2
		c1.8,2.1,4.6,3.1,7.2,2.4c2.6-0.7,4.7-2.9,5.4-5.7c0.7-2.8,0-5.8-1.9-7.9L67.2,60.4z M65.9,70.7c-1.8,1.9-4.6,1.8-6.3-0.1l6.4-6.7
		C67.8,65.8,67.7,68.9,65.9,70.7z"/>
	<path class="st1" d="M86.3,59.1l1.7-1.8L85.9,55l-1.7,1.8v-2.6h-3v2.6L79.5,55l-2.1,2.3l1.7,1.8h-2.4v3.2h2.4l-1.7,1.8l2.1,2.3
		l1.7-1.8v2.6h3v-2.6l1.7,1.8l2.1-2.3l-1.7-1.8h2.4v-3.2L86.3,59.1L86.3,59.1z"/>
	<path class="st0" d="M82.7,48.6c-2.6,0-5.1,1-7.1,2.8l-38.1-43c-0.3-0.3-0.7-0.5-1.2-0.5L11.8,9.6l-2.6-3C8.6,6,7.7,5.9,7.1,6.6
		S6.5,8.2,7,8.9l2.6,2.9L6.1,37.3c-0.1,0.5,0.1,1,0.4,1.4L55,93.4c0.6,0.6,1.5,0.7,2.1,0l20.8-21.8c4.1,2.2,9.1,1.4,12.4-2.1
		c3.4-3.4,4.5-8.7,2.8-13.3C91.4,51.6,87.3,48.6,82.7,48.6z M12.2,14.7l2.2,2.5c-0.7,1.5-0.6,3.3,0.2,4.7c0.8,1.4,2.2,2.3,3.7,2.3
		h0.1c2.5,0,4.5-2.1,4.5-4.8c0-2.7-2-4.9-4.4-4.9c-0.7,0-1.3,0.1-1.9,0.4l-2.1-2.3l21.4-1.5l0.6,0.6L10.7,38.7l-1.6-1.8L12.2,14.7z
		 M17.4,18.2c0.3-0.3,0.7-0.4,1-0.4h0c0.6,0,1.1,0.4,1.4,1c0.2,0.6,0.1,1.3-0.4,1.8c-0.3,0.3-0.7,0.5-1.1,0.4c-0.6,0-1.1-0.4-1.4-1
		C16.8,19.4,17,18.7,17.4,18.2L17.4,18.2z M56.1,90l-6.6-7.4h13.6L56.1,90z M66.2,79.4L66.2,79.4l-19.6,0L12.8,41l25.7-26.9
		l35.1,39.6c-3.3,5.1-2.5,12,1.8,16.1L66.2,79.4z M82.7,69.6c-4.5,0-8.2-4-8.2-8.9s3.7-8.9,8.2-8.9c4.5,0,8.2,4,8.2,8.9
		C90.9,65.6,87.2,69.6,82.7,69.6z"/>
</g>
<g>
	
		<radialGradient id="SVGID_1_" cx="-453.7354" cy="-115.4311" r="363.4469" gradientTransform="matrix(7.349429e-02 0 0 -7.349429e-02 81.907 35.7565)" gradientUnits="userSpaceOnUse">
		<stop  offset="0" style="stop-color:#F0859D"/>
		<stop  offset="0.9788" style="stop-color:#E83C5F"/>
	</radialGradient>
	<circle style="fill:url(#SVGID_1_);" cx="48.6" cy="44.2" r="26.7"/>
	<path class="st8" d="M54.1,44.2l10-10c1.5-1.5,1.5-4,0-5.5c-1.5-1.5-4-1.5-5.5,0l-10,10l-10-10c-1.5-1.5-4-1.5-5.5,0
		c-1.5,1.5-1.5,4,0,5.5l10,10l-10,10c-1.5,1.5-1.5,4,0,5.5c0.8,0.8,1.8,1.1,2.8,1.1c1,0,2-0.4,2.8-1.1l10-10l10,10
		c0.8,0.8,1.8,1.1,2.8,1.1s2-0.4,2.8-1.1c1.5-1.5,1.5-4,0-5.5L54.1,44.2z"/>
</g>
</svg>
