<?xml version="1.0" encoding="utf-8"?>
<!-- Generator: Adobe Illustrator 24.0.1, SVG Export Plug-In . SVG Version: 6.00 Build 0)  -->
<svg version="1.1" id="Layer_1" xmlns="http://www.w3.org/2000/svg" xmlns:xlink="http://www.w3.org/1999/xlink" x="0px" y="0px"
	 viewBox="0 0 100 100" style="enable-background:new 0 0 100 100;" xml:space="preserve">
<style type="text/css">
	.st0{fill:#1B5690;}
	.st1{fill:#F28E29;}
	.st2{fill:#E30613;}
	.st3{fill:#F3F5FB;}
	.st4{fill:#F9B233;}
	.st5{fill:url(#SVGID_1_);stroke:#432918;stroke-width:0.25;stroke-miterlimit:10;}
	.st6{fill:url(#SVGID_2_);}
	.st7{fill:#F5AEBF;}
	.st8{fill:#FFFFFF;}
	.st9{fill:url(#SVGID_3_);stroke:#432918;stroke-width:0.25;stroke-miterlimit:10;}
	.st10{fill:url(#SVGID_4_);}
	.st11{fill:url(#SVGID_5_);}
	.st12{fill:url(#SVGID_6_);stroke:#432918;stroke-width:0.25;stroke-miterlimit:10;}
	.st13{fill:url(#SVGID_7_);}
	.st14{fill:url(#SVGID_8_);}
	.st15{fill:url(#SVGID_9_);stroke:#432918;stroke-width:0.25;stroke-miterlimit:10;}
	.st16{fill:url(#SVGID_10_);}
	.st17{fill:url(#SVGID_11_);}
	.st18{fill:url(#SVGID_12_);}
	.st19{fill:#B3DCDA;}
	.st20{fill:url(#SVGID_13_);stroke:#432918;stroke-width:0.25;stroke-miterlimit:10;}
	.st21{fill:url(#SVGID_14_);}
	.st22{fill:url(#SVGID_15_);}
	.st23{fill:none;stroke:#F28E29;stroke-miterlimit:10;}
	.st24{fill:none;stroke:#1B5690;stroke-miterlimit:10;}
	.st25{fill:#020203;}
	.st26{fill:#F9B259;}
	.st27{fill:#1F2D53;}
	.st28{fill:url(#SVGID_16_);}
	.st29{fill:url(#SVGID_17_);}
	.st30{fill:url(#SVGID_18_);stroke:#432918;stroke-width:0.25;stroke-miterlimit:10;}
</style>
<g>
	<path class="st1" d="M51.9,55.7c1.7-1,2.9-2.8,2.9-4.9c0-2.1-1.2-4-3.1-5l-17-8.5c-2.2-1.1-4.6-1.7-7-1.8c2.7-2.4,4.5-5.8,4.5-9.7
		c0-7.1-5.8-12.9-12.9-12.9S6.5,18.7,6.5,25.8c0,4.1,1.9,7.7,4.8,10.1C4.8,37.3,0,43.1,0,50v16.1c0,4.4,3.6,8.1,8.1,8.1v19.4
		c0,3.6,2.9,6.5,6.5,6.5c1.9,0,3.7-0.9,4.8-2.2c1.2,1.4,2.9,2.2,4.8,2.2c3.6,0,6.5-2.9,6.5-6.5v-45L46.9,56c0.6,0.3,1.2,0.4,1.8,0.5
		L56,81.1c-1.7,0.8-2.8,2.4-2.8,4.4c0,1.9,1.1,3.6,2.8,4.4c-0.7,1-1.2,2.3-1.2,3.7c0,3.6,2.9,6.5,6.5,6.5c3.6,0,6.5-2.9,6.5-6.5
		c0-1.2-0.3-2.3-0.9-3.2h17.9c-0.6,1-0.9,2-0.9,3.2c0,3.6,2.9,6.5,6.5,6.5s6.5-2.9,6.5-6.5s-2.9-6.5-6.5-6.5H58.1
		c-0.9,0-1.6-0.7-1.6-1.6s0.7-1.6,1.6-1.6h38.4l3.5-15.8l0-3.6H54.5L51.9,55.7z M9.7,25.8c0-5.3,4.3-9.7,9.7-9.7s9.7,4.3,9.7,9.7
		s-4.3,9.7-9.7,9.7S9.7,31.1,9.7,25.8z M31,45.2h-3.6v48.4c0,1.8-1.4,3.2-3.2,3.2c-1.8,0-3.2-1.4-3.2-3.2V62.9h-3.2v30.6
		c0,1.8-1.4,3.2-3.2,3.2s-3.2-1.4-3.2-3.2V46.8H8.1V71c-2.7,0-4.8-2.2-4.8-4.8V50c0-6.2,5.1-11.3,11.3-11.3h12.3
		c2.2,0,4.5,0.5,6.5,1.5l17,8.5c0.8,0.4,1.3,1.2,1.3,2.1c0,1.3-1.1,2.4-2.4,2.4c-0.3,0-0.7-0.1-1-0.2L31,45.2z M64.5,93.5
		c0,1.8-1.4,3.2-3.2,3.2c-1.8,0-3.2-1.4-3.2-3.2c0-1.8,1.4-3.2,3.2-3.2C63.1,90.3,64.5,91.8,64.5,93.5z M93.5,93.5
		c0,1.8-1.4,3.2-3.2,3.2c-1.8,0-3.2-1.4-3.2-3.2c0-1.8,1.4-3.2,3.2-3.2C92.1,90.3,93.5,91.8,93.5,93.5z M96.7,67.7l-2.9,12.9H59.3
		l-3.8-12.9H96.7z"/>
	<path class="st0" d="M75.8,41.9c9.8,0,17.7-8,17.7-17.7s-8-17.7-17.7-17.7s-17.7,8-17.7,17.7S66,41.9,75.8,41.9z M75.8,9.7
		c8,0,14.5,6.5,14.5,14.5s-6.5,14.5-14.5,14.5s-14.5-6.5-14.5-14.5S67.8,9.7,75.8,9.7z"/>
	<path class="st1" d="M75.8,29c-0.9,0-1.6-0.7-1.6-1.6H71c0,2.1,1.4,3.9,3.2,4.5v3.5h3.2v-3.2h3.2v-4.8c0-2.7-2.2-4.8-4.8-4.8
		c-0.9,0-1.6-0.7-1.6-1.6v-1.6h1.6c0.9,0,1.6,0.7,1.6,1.6h3.2c0-2.1-1.4-3.9-3.2-4.5v-3.5h-3.2v3.2H71V21c0,2.7,2.2,4.8,4.8,4.8
		c0.9,0,1.6,0.7,1.6,1.6V29H75.8z"/>
	<path class="st0" d="M83.9,22.6h3.2v3.2h-3.2V22.6z"/>
	<path class="st0" d="M64.5,22.6h3.2v3.2h-3.2V22.6z"/>
	<path class="st0" d="M64.5,45.6v18.3l11.3-5.6l11.3,5.6V45.6c7.7-4.1,12.9-12.1,12.9-21.4C100,10.9,89.1,0,75.8,0
		S51.6,10.9,51.6,24.2C51.6,33.5,56.9,41.5,64.5,45.6z M67.7,47c2,0.7,4.2,1.2,6.5,1.3v7.1l-6.5,3.2V47z M83.9,58.7l-6.5-3.2v-7.1
		c2.3-0.2,4.4-0.6,6.5-1.3V58.7z M75.8,3.2c11.6,0,21,9.4,21,21s-9.4,21-21,21s-21-9.4-21-21S64.2,3.2,75.8,3.2z"/>
	<path class="st0" d="M83.9,71h3.2v6.5h-3.2V71z"/>
	<path class="st0" d="M74.2,71h3.2v6.5h-3.2V71z"/>
	<path class="st0" d="M64.5,71h3.2v6.5h-3.2V71z"/>
</g>
<g>
	
		<radialGradient id="SVGID_1_" cx="-110.3644" cy="239.916" r="2.8254" gradientTransform="matrix(7.9635 0 0 -7.9635 954.9446 1934.507)" gradientUnits="userSpaceOnUse">
		<stop  offset="2.060000e-02" style="stop-color:#87CBC5"/>
		<stop  offset="1" style="stop-color:#37B39A"/>
	</radialGradient>
	<circle style="fill:url(#SVGID_1_);" cx="76.1" cy="23.9" r="22.5"/>
	<g>
		<path class="st8" d="M68.7,33.3l-6.6-7.5c-1-1.1-0.9-2.8,0.3-3.8c1.1-1,2.8-0.9,3.8,0.3l4.8,5.5l15.3-13.4c1.1-1,2.8-0.9,3.8,0.2
			c1,1.1,0.9,2.8-0.2,3.8L72.5,33.6C71.4,34.5,69.7,34.4,68.7,33.3L68.7,33.3z"/>
	</g>
</g>
</svg>
