<?xml version="1.0" encoding="utf-8"?>
<!-- Generator: Adobe Illustrator 24.0.1, SVG Export Plug-In . SVG Version: 6.00 Build 0)  -->
<svg version="1.1" id="Layer_1" xmlns="http://www.w3.org/2000/svg" xmlns:xlink="http://www.w3.org/1999/xlink" x="0px" y="0px"
	 viewBox="0 0 100 100" style="enable-background:new 0 0 100 100;" xml:space="preserve">
<style type="text/css">
	.st0{fill:#F3F5FB;}
	.st1{fill:#1B5690;}
	.st2{fill:#F28E29;}
	.st3{fill:#E30613;}
	.st4{fill:#F9B233;}
	.st5{fill:url(#SVGID_1_);stroke:#432918;stroke-width:0.25;stroke-miterlimit:10;}
	.st6{fill:url(#SVGID_2_);}
	.st7{fill:#F5AEBF;}
	.st8{fill:#FFFFFF;}
	.st9{fill:url(#SVGID_3_);stroke:#432918;stroke-width:0.25;stroke-miterlimit:10;}
	.st10{fill:url(#SVGID_4_);}
	.st11{fill:url(#SVGID_5_);}
	.st12{fill:url(#SVGID_6_);stroke:#432918;stroke-width:0.25;stroke-miterlimit:10;}
	.st13{fill:url(#SVGID_7_);}
	.st14{fill:url(#SVGID_8_);}
	.st15{fill:url(#SVGID_9_);stroke:#432918;stroke-width:0.25;stroke-miterlimit:10;}
	.st16{fill:url(#SVGID_10_);}
	.st17{fill:url(#SVGID_11_);}
	.st18{fill:url(#SVGID_12_);}
	.st19{fill:#B3DCDA;}
	.st20{fill:url(#SVGID_13_);stroke:#432918;stroke-width:0.25;stroke-miterlimit:10;}
	.st21{fill:url(#SVGID_14_);}
	.st22{fill:url(#SVGID_15_);}
	.st23{fill:none;stroke:#F28E29;stroke-miterlimit:10;}
	.st24{fill:none;stroke:#1B5690;stroke-miterlimit:10;}
	.st25{fill:#020203;}
	.st26{fill:#F9B259;}
	.st27{fill:#1F2D53;}
	.st28{fill:url(#SVGID_16_);}
	.st29{fill:url(#SVGID_17_);}
	.st30{fill:url(#SVGID_18_);stroke:#432918;stroke-width:0.25;stroke-miterlimit:10;}
</style>
<rect class="st0" width="100" height="100"/>
<g>
	<path class="st2" d="M51.4,54.3c1.3-0.7,2.1-2.1,2.1-3.6c0-1.6-0.9-3-2.3-3.7l-12.6-6.3c-1.6-0.8-3.4-1.2-5.2-1.3
		c2-1.8,3.3-4.3,3.3-7.2c0-5.3-4.3-9.6-9.6-9.6s-9.6,4.3-9.6,9.6c0,3,1.4,5.7,3.6,7.5c-4.8,1.1-8.4,5.4-8.4,10.5v12c0,3.3,2.7,6,6,6
		v14.4c0,2.6,2.1,4.8,4.8,4.8c1.4,0,2.7-0.6,3.6-1.7c0.9,1,2.2,1.7,3.6,1.7c2.6,0,4.8-2.1,4.8-4.8V48.9l12.1,5.5
		c0.4,0.2,0.9,0.3,1.4,0.3l5.4,18.3c-1.2,0.6-2.1,1.8-2.1,3.3c0,1.4,0.9,2.7,2.1,3.2c-0.5,0.8-0.9,1.7-0.9,2.7
		c0,2.6,2.1,4.8,4.8,4.8c2.6,0,4.8-2.1,4.8-4.8c0-0.9-0.3-1.7-0.7-2.4h13.3c-0.4,0.7-0.7,1.5-0.7,2.4c0,2.6,2.1,4.8,4.8,4.8
		s4.8-2.1,4.8-4.8c0-2.6-2.1-4.8-4.8-4.8H56c-0.7,0-1.2-0.5-1.2-1.2s0.5-1.2,1.2-1.2h28.5l2.6-11.7l0-2.7H53.4L51.4,54.3z M20.1,32
		c0-4,3.2-7.2,7.2-7.2s7.2,3.2,7.2,7.2s-3.2,7.2-7.2,7.2S20.1,36,20.1,32z M35.9,46.4h-2.7v35.9c0,1.3-1.1,2.4-2.4,2.4
		c-1.3,0-2.4-1.1-2.4-2.4V59.6h-2.4v22.7c0,1.3-1.1,2.4-2.4,2.4s-2.4-1.1-2.4-2.4V47.6h-2.4v18c-2,0-3.6-1.6-3.6-3.6V50
		c0-4.6,3.8-8.4,8.4-8.4h9.1c1.7,0,3.3,0.4,4.8,1.1l12.6,6.3c0.6,0.3,1,0.9,1,1.6c0,1-0.8,1.8-1.8,1.8c-0.3,0-0.5-0.1-0.7-0.2
		L35.9,46.4z M60.8,82.3c0,1.3-1.1,2.4-2.4,2.4c-1.3,0-2.4-1.1-2.4-2.4c0-1.3,1.1-2.4,2.4-2.4C59.7,79.9,60.8,81,60.8,82.3z
		 M82.3,82.3c0,1.3-1.1,2.4-2.4,2.4c-1.3,0-2.4-1.1-2.4-2.4c0-1.3,1.1-2.4,2.4-2.4C81.2,79.9,82.3,81,82.3,82.3z M84.7,63.2
		l-2.1,9.6H56.9l-2.8-9.6H84.7z"/>
	<path class="st1" d="M69.1,44c7.3,0,13.2-5.9,13.2-13.2s-5.9-13.2-13.2-13.2S56,23.6,56,30.9S61.9,44,69.1,44z M69.1,20.1
		c5.9,0,10.8,4.8,10.8,10.8s-4.8,10.8-10.8,10.8s-10.8-4.8-10.8-10.8S63.2,20.1,69.1,20.1z"/>
	<path class="st2" d="M69.1,34.4c-0.7,0-1.2-0.5-1.2-1.2h-2.4c0,1.6,1,2.9,2.4,3.4v2.6h2.4v-2.4h2.4v-3.6c0-2-1.6-3.6-3.6-3.6
		c-0.7,0-1.2-0.5-1.2-1.2v-1.2h1.2c0.7,0,1.2,0.5,1.2,1.2h2.4c0-1.6-1-2.9-2.4-3.4v-2.6H68v2.4h-2.4v3.6c0,2,1.6,3.6,3.6,3.6
		c0.7,0,1.2,0.5,1.2,1.2v1.2H69.1z"/>
	<path class="st1" d="M75.1,29.7h2.4V32h-2.4V29.7z"/>
	<path class="st1" d="M60.8,29.7h2.4V32h-2.4V29.7z"/>
	<path class="st1" d="M60.8,46.7v13.6l8.4-4.2l8.4,4.2V46.7c5.7-3,9.6-9,9.6-15.9c0-9.9-8.1-18-18-18s-18,8.1-18,18
		C51.2,37.7,55.1,43.7,60.8,46.7z M63.2,47.8c1.5,0.5,3.1,0.9,4.8,1V54l-4.8,2.4V47.8z M75.1,56.4L70.3,54v-5.3
		c1.7-0.1,3.3-0.4,4.8-1V56.4z M69.1,15.3c8.6,0,15.6,7,15.6,15.6s-7,15.6-15.6,15.6s-15.6-7-15.6-15.6S60.6,15.3,69.1,15.3z"/>
	<path class="st1" d="M75.1,65.6h2.4v4.8h-2.4V65.6z"/>
	<path class="st1" d="M68,65.6h2.4v4.8H68V65.6z"/>
	<path class="st1" d="M60.8,65.6h2.4v4.8h-2.4V65.6z"/>
</g>
</svg>
