<?xml version="1.0" encoding="utf-8"?>
<!-- Generator: Adobe Illustrator 24.0.1, SVG Export Plug-In . SVG Version: 6.00 Build 0)  -->
<svg version="1.1" id="Layer_1" xmlns="http://www.w3.org/2000/svg" xmlns:xlink="http://www.w3.org/1999/xlink" x="0px" y="0px"
	 viewBox="0 0 100 100" style="enable-background:new 0 0 100 100;" xml:space="preserve">
<style type="text/css">
	.st0{fill:#1B5690;}
	.st1{fill:#F28E29;}
	.st2{fill:#E30613;}
	.st3{fill:#2FAC66;}
	.st4{fill:#F9B233;}
	.st5{fill:url(#SVGID_1_);stroke:#432918;stroke-width:0.25;stroke-miterlimit:10;}
	.st6{fill:url(#SVGID_2_);}
	.st7{fill:#F5AEBF;}
	.st8{fill:#FFFFFF;}
	.st9{fill:url(#SVGID_3_);stroke:#432918;stroke-width:0.25;stroke-miterlimit:10;}
	.st10{fill:url(#SVGID_4_);stroke:#432918;stroke-width:0.25;stroke-miterlimit:10;}
	.st11{fill:url(#SVGID_5_);}
	.st12{fill:url(#SVGID_6_);}
	.st13{fill:url(#SVGID_7_);stroke:#432918;stroke-width:0.25;stroke-miterlimit:10;}
	.st14{fill:url(#SVGID_8_);}
	.st15{fill:url(#SVGID_9_);}
	.st16{fill:url(#SVGID_10_);}
	.st17{fill:url(#SVGID_11_);}
	.st18{fill:url(#SVGID_12_);stroke:#432918;stroke-width:0.25;stroke-miterlimit:10;}
	.st19{fill:url(#SVGID_13_);}
	.st20{fill:url(#SVGID_14_);}
	.st21{fill:url(#SVGID_15_);}
	.st22{fill:#B3DCDA;}
	.st23{fill:url(#SVGID_16_);stroke:#432918;stroke-width:0.25;stroke-miterlimit:10;}
</style>
<g>
	<path class="st1" d="M40.6,42.5c1.9,0,3.7-1.3,4.4-3.2c0.8-1.9,0.4-4.2-1-5.7l-2.2-2.5c-0.3-0.3-0.7-0.5-1.1-0.5
		c-0.4,0-0.8,0.2-1.1,0.5l-4.6,4.8l-4.6,4.8c-0.4,0.4-0.6,1.1-0.5,1.7c0.1,0.6,0.6,1.1,1.1,1.3c0.6,0.2,1.2,0,1.6-0.5l3.5-3.6
		l0.4,0.5l-2.1,6.3c-0.2,0.6-0.1,1.2,0.3,1.7c0.4,0.5,1,0.7,1.5,0.6c0.6-0.1,1-0.5,1.2-1.2l1.8-5.4C39.6,42.4,40.1,42.5,40.6,42.5z
		 M40.6,34.8l1.1,1.3c0.6,0.7,0.6,1.8,0,2.5c-0.6,0.7-1.7,0.7-2.3,0l-1.1-1.3L40.6,34.8z"/>
	<path class="st1" d="M33,33.7c1.2,0,2.3-0.5,3.2-1.4c1.9-2,2-5.3,0.1-7.4L34,22.4c-0.6-0.7-1.6-0.7-2.3,0L22.6,32
		c-0.6,0.7-0.7,1.8,0,2.5l2.2,2.5c0.9,1,2.1,1.6,3.4,1.6h0.1C30.7,38.5,32.8,36.4,33,33.7L33,33.7z M32.8,26l1.1,1.3
		c0.6,0.7,0.6,1.8,0,2.5c-0.3,0.3-0.7,0.5-1.1,0.5c-0.4,0-0.8-0.2-1.1-0.5l-1.1-1.3L32.8,26z M29.3,34.6c-0.3,0.3-0.7,0.5-1.1,0.5
		c-0.4,0-0.8-0.2-1.1-0.5l-1.1-1.3l2.3-2.4l1.1,1.3C30,32.8,29.9,33.9,29.3,34.6L29.3,34.6z"/>
	<path class="st1" d="M52.9,43.7c-0.5-0.5-1.2-0.7-1.8-0.4l-12.5,5.9c-0.8,0.4-1.2,1.4-0.8,2.3c0.3,0.9,1.3,1.3,2.1,0.9l2.1-1
		l3.5,3.9l-1,2.3c-0.4,0.9,0,1.9,0.8,2.3c0.2,0.1,0.4,0.2,0.7,0.2c0.6,0,1.2-0.4,1.4-1l5.9-13.4C53.5,45,53.4,44.2,52.9,43.7z
		 M45.1,49.9l3.4-1.6l-1.6,3.6L45.1,49.9z"/>
	<path class="st1" d="M65.1,57.5c-0.6-0.7-1.6-0.7-2.3,0l-5.2,5.4l2.3-10c0.2-0.8-0.1-1.5-0.8-1.9c-0.6-0.4-1.4-0.3-1.9,0.3
		l-9.2,9.7c-0.6,0.7-0.6,1.7,0,2.4c0.6,0.7,1.6,0.7,2.2,0.1l5.2-5.4l-2.3,10c-0.2,0.8,0.1,1.5,0.7,1.9c0.6,0.4,1.4,0.3,1.9-0.3
		l9.2-9.7C65.7,59.3,65.8,58.2,65.1,57.5z"/>
	<path class="st1" d="M68.5,61.2c-0.3-0.3-0.7-0.5-1.1-0.5c-0.4,0-0.8,0.2-1.1,0.5L57,70.8c-0.6,0.7-0.7,1.8,0,2.5l1.1,1.3
		c2,2.3,4.9,3.3,7.7,2.5c2.8-0.7,5-3.1,5.8-6.1c0.8-3,0-6.3-2-8.5L68.5,61.2z M67.2,72.3c-1.9,2-4.9,1.9-6.8-0.1l6.9-7.3
		C69.1,67,69.1,70.3,67.2,72.3z"/>
	<path class="st1" d="M89.1,59.8l1.8-2l-2.3-2.5l-1.8,2v-2.8h-3.2v2.8l-1.8-2l-2.3,2.5l1.8,2h-2.5v3.5h2.5l-1.8,2l2.3,2.5l1.8-2v2.8
		h3.2v-2.8l1.8,2l2.3-2.5l-1.8-2h2.5v-3.5L89.1,59.8L89.1,59.8z"/>
	<path class="st0" d="M85.2,48.5c-2.8,0-5.5,1-7.6,3l-41-46.3c-0.3-0.4-0.8-0.6-1.3-0.5L8.9,6.5L6.1,3.3c-0.6-0.7-1.6-0.7-2.3,0
		C3.2,3.9,3.1,5,3.8,5.7l2.8,3.1L2.8,36.3c-0.1,0.5,0.1,1.1,0.4,1.5l52.2,59c0.6,0.7,1.6,0.7,2.3,0L80,73.3
		c4.5,2.3,9.8,1.5,13.4-2.2c3.6-3.7,4.8-9.4,3-14.4C94.6,51.7,90.1,48.5,85.2,48.5z M9.3,12l2.4,2.7c-0.7,1.6-0.7,3.5,0.2,5
		s2.4,2.5,4,2.5H16c2.6,0,4.8-2.3,4.8-5.2s-2.1-5.2-4.8-5.3c-0.7,0-1.4,0.2-2.1,0.5l-2.3-2.5l23-1.6l0.6,0.7l-27.7,29l-1.7-1.9
		L9.3,12z M14.9,15.8c0.3-0.3,0.7-0.5,1.1-0.5h0c0.6,0,1.2,0.5,1.5,1.1s0.1,1.4-0.4,1.9c-0.3,0.3-0.7,0.5-1.1,0.5
		c-0.6,0-1.2-0.5-1.5-1.1S14.4,16.3,14.9,15.8L14.9,15.8z M56.6,93l-7.1-8h14.7L56.6,93z M67.5,81.6L67.5,81.6l-21.1,0L10,40.3
		l27.7-29L75.4,54c-3.5,5.4-2.7,12.9,1.9,17.3L67.5,81.6z M85.2,71.1c-4.9,0-8.8-4.3-8.8-9.6c0-5.3,3.9-9.6,8.8-9.6
		c4.9,0,8.8,4.3,8.8,9.6C94,66.8,90,71.1,85.2,71.1z"/>
</g>
<g>
	<linearGradient id="SVGID_1_" gradientUnits="userSpaceOnUse" x1="16.5635" y1="37.8907" x2="79.5635" y2="37.8907">
		<stop  offset="0" style="stop-color:#FFEF26"/>
		<stop  offset="5.948725e-02" style="stop-color:#FFE000"/>
		<stop  offset="0.1303" style="stop-color:#FFD300"/>
		<stop  offset="0.2032" style="stop-color:#FECB00"/>
		<stop  offset="0.2809" style="stop-color:#FDC800"/>
		<stop  offset="0.6685" style="stop-color:#F18F34"/>
		<stop  offset="0.8876" style="stop-color:#E95F32"/>
		<stop  offset="1" style="stop-color:#E3312D"/>
	</linearGradient>
	<circle class="st5" cx="48.1" cy="37.9" r="31.5"/>
	<g>
		<path class="st8" d="M49.6,13.4l5,15.2c0.2,0.6,0.8,1,1.5,1h16.4c1.5,0,2.2,1.8,1,2.6l-13.4,9.6c-0.5,0.4-0.7,1-0.5,1.6L64.6,59
			c0.5,1.4-1.2,2.5-2.5,1.6L49,51.2c-0.6-0.4-1.3-0.4-1.9,0L34,60.6c-1.2,0.9-2.9-0.2-2.5-1.6l5.1-15.4c0.2-0.6,0-1.2-0.5-1.6
			l-13.4-9.6c-1.2-0.9-0.5-2.6,1-2.6H40c0.7,0,1.3-0.4,1.5-1l5-15.2C47,12,49.1,12,49.6,13.4z"/>
	</g>
</g>
</svg>
