<?xml version="1.0" encoding="utf-8"?>
<!-- Generator: Adobe Illustrator 24.0.1, SVG Export Plug-In . SVG Version: 6.00 Build 0)  -->
<svg version="1.1" id="Layer_1" xmlns="http://www.w3.org/2000/svg" xmlns:xlink="http://www.w3.org/1999/xlink" x="0px" y="0px"
	 viewBox="0 0 100 100" style="enable-background:new 0 0 100 100;" xml:space="preserve">
<style type="text/css">
	.st0{fill:#F3F5FB;}
	.st1{fill:#1B5690;}
	.st2{fill:#F28E29;}
	.st3{fill:#E30613;}
	.st4{fill:#F9B233;}
	.st5{fill:url(#SVGID_1_);stroke:#432918;stroke-width:0.25;stroke-miterlimit:10;}
	.st6{fill:url(#SVGID_2_);}
	.st7{fill:#F5AEBF;}
	.st8{fill:#FFFFFF;}
	.st9{fill:url(#SVGID_3_);stroke:#432918;stroke-width:0.25;stroke-miterlimit:10;}
	.st10{fill:url(#SVGID_4_);}
	.st11{fill:url(#SVGID_5_);}
	.st12{fill:url(#SVGID_6_);stroke:#432918;stroke-width:0.25;stroke-miterlimit:10;}
	.st13{fill:url(#SVGID_7_);}
	.st14{fill:url(#SVGID_8_);}
	.st15{fill:url(#SVGID_9_);stroke:#432918;stroke-width:0.25;stroke-miterlimit:10;}
	.st16{fill:url(#SVGID_10_);}
	.st17{fill:url(#SVGID_11_);}
	.st18{fill:url(#SVGID_12_);}
	.st19{fill:#B3DCDA;}
	.st20{fill:url(#SVGID_13_);stroke:#432918;stroke-width:0.25;stroke-miterlimit:10;}
	.st21{fill:url(#SVGID_14_);}
	.st22{fill:url(#SVGID_15_);}
	.st23{fill:none;stroke:#F28E29;stroke-miterlimit:10;}
	.st24{fill:none;stroke:#1B5690;stroke-miterlimit:10;}
	.st25{fill:#020203;}
	.st26{fill:#F9B259;}
	.st27{fill:#1F2D53;}
	.st28{fill:#1E5792;}
	.st29{fill:#F18E29;}
	.st30{fill:url(#SVGID_16_);}
	.st31{fill:url(#SVGID_17_);}
	.st32{fill:url(#SVGID_18_);stroke:#432918;stroke-width:0.25;stroke-miterlimit:10;}
</style>
<g>
	<path class="st2" d="M36.3,55.3c0.3,0.1,0.6,0.2,0.9,0.2c0.4,0,0.8-0.1,1.1-0.3c0.6-0.4,0.9-1.1,0.8-1.7l-1.4-9.9
		c2.2-3,3.4-6.6,3.6-10.3c0.1-4.1-1.1-8-3.5-11.3c-2.9-4.1-7.4-6.8-12.4-7.6c-5-0.9-10.1,0.3-14.3,3.1C2.2,23.4,0.2,35,6.3,43.4
		c2.4,3.3,5.8,5.8,9.8,7c3.6,1.1,7.5,1.2,11.1,0.2L36.3,55.3z M9.3,41.3C4.4,34.6,6.1,25.2,13,20.4c3.4-2.3,7.5-3.2,11.5-2.5
		c4.1,0.7,7.6,2.9,10,6.2c3.9,5.4,3.7,12.7-0.4,17.9c-0.3,0.4-0.4,0.9-0.4,1.4l1,7.1l-6.5-3.3c-0.3-0.1-0.6-0.2-0.9-0.2
		c-0.2,0-0.4,0-0.6,0.1C20.3,49,13.2,46.8,9.3,41.3L9.3,41.3z"/>
	<path class="st1" d="M21.5,21.2c-3.1,0-5.7,2.5-5.7,5.5v0.7c0,1,0.8,1.8,1.9,1.8s1.9-0.8,1.9-1.8v-0.7c0-1,0.9-1.9,1.9-1.9
		c1.1,0,1.9,0.9,1.9,1.9v0.7c0,0.3-0.6,1-1,1.4c-0.9,1-2,2.3-2,4v2.3c0,1,0.8,1.8,1.9,1.8c1,0,1.9-0.8,1.9-1.8v-2.3
		c0-0.4,0.6-1.1,1.1-1.7c0.8-1,1.9-2.2,1.9-3.8v-0.7C27.2,23.7,24.7,21.2,21.5,21.2z"/>
	<path class="st1" d="M22.4,40.3c-1,0-1.9,0.8-1.9,1.8v0c0,1,0.8,1.8,1.9,1.8s1.9-0.8,1.9-1.8C24.2,41.1,23.4,40.3,22.4,40.3z"/>
	<path class="st1" d="M96.8,79.4c-2.1-9.2-6.6-20-23.1-22.9v-6.8c3.7-3.6,5.7-7.7,5.7-11.2v-4.4c1.5-0.8,3.3-2.1,4.7-4.6
		c1.9-3.5,2.6-8.6,2.2-15.6c0-0.6-0.4-1.1-0.9-1.4c-0.5-0.3-1.2-0.4-1.7-0.1c-6.6,2.8-13,2-18.7,1.2c-3.5-0.4-6.4-0.8-9.1-0.3
		c-3,0.5-5.2,2.1-6.6,4.8c-5.2,3.1-5.2,9.2-5.2,15.1v5.4c0,3.5,2.1,7.6,5.8,11.2v6.7c-16.5,2.9-21,13.7-23.1,22.9
		c-0.5,2-0.8,4.6,0.7,6.4c1.4,1.7,4,2,6,2H45c1,0,1.9-0.8,1.9-1.8s-0.8-1.8-1.9-1.8H33.7c-2.2,0-2.9-0.4-3.1-0.6
		c-0.2-0.2-0.5-1,0.1-3.4c1.6-7,4.5-14.4,13.4-18.2l8,12c0.3,0.5,0.8,0.8,1.4,0.8c0.1,0,0.1,0,0.2,0c0.5,0,1-0.2,1.4-0.6l6.9-7.3
		l6.9,7.3c0.4,0.4,0.9,0.6,1.4,0.6c0.1,0,0.1,0,0.2,0c0.6,0,1.1-0.3,1.4-0.8l8-12c8.9,3.8,11.8,11.1,13.4,18.2
		c0.5,2.3,0.3,3.1,0.1,3.4c-0.2,0.2-0.8,0.6-3.1,0.6H62.9c-1,0-1.9,0.8-1.9,1.8c0,1,0.8,1.8,1.9,1.8h27.3c2,0,4.5-0.2,6-2
		C97.7,84,97.3,81.5,96.8,79.4L96.8,79.4z M51.8,20.9c0.4-0.2,0.6-0.5,0.8-0.9c1.8-4,5.2-3.7,12.1-2.9c5.2,0.6,11.4,1.4,18.1-0.6
		c0.1,5-0.6,8.8-1.9,11.3c-1.1,2-2.5,2.8-3.7,3.4c-9.9-0.2-16-1.6-20.9-4.8c-0.3-0.2-0.7-0.3-1-0.3c-0.5,0-1,0.2-1.4,0.6
		c-1.9,2-3.5,3-5.9,3.8C48.2,25.7,48.7,22.5,51.8,20.9L51.8,20.9z M48,38.5v-4.1c2.7-0.9,5-1.9,7.5-4.2c5,2.9,11.1,4.3,20.2,4.6v3.7
		c0,2.7-1.9,6.1-5.2,9.1c-3,2.8-6.5,4.7-8.7,4.7c-2.2,0-5.8-1.9-8.7-4.7C50,44.6,48,41.2,48,38.5L48,38.5z M53.9,70.1l-6.2-9.3
		c1.2-0.3,2.5-0.6,3.9-0.8l7.5,4.7L53.9,70.1z M53.8,57.1v-4.2c2.8,1.9,5.7,3.1,8.1,3.1c2.4,0,5.3-1.1,8.1-3.1v4.2l-8.1,5L53.8,57.1
		z M70,70.1l-5.2-5.5l7.5-4.7c1.4,0.2,2.7,0.5,3.9,0.8L70,70.1z"/>
	<path class="st2" d="M54,84.2c-1,0-1.9,0.8-1.9,1.8c0,1,0.8,1.8,1.9,1.8h0c1,0,1.9-0.8,1.9-1.8C55.8,85,55,84.2,54,84.2z"/>
</g>
<g>
	
		<radialGradient id="SVGID_1_" cx="-110.1835" cy="240.0969" r="2.8254" gradientTransform="matrix(7.9635 0 0 -7.9635 954.9446 1934.507)" gradientUnits="userSpaceOnUse">
		<stop  offset="2.060000e-02" style="stop-color:#87CBC5"/>
		<stop  offset="1" style="stop-color:#37B39A"/>
	</radialGradient>
	<circle style="fill:url(#SVGID_1_);" cx="77.5" cy="22.5" r="22.5"/>
	<g>
		<path class="st8" d="M70.1,31.9l-6.6-7.5c-1-1.1-0.9-2.8,0.3-3.8c1.1-1,2.8-0.9,3.8,0.3l4.8,5.5l15.3-13.4c1.1-1,2.8-0.9,3.8,0.2
			c1,1.1,0.9,2.8-0.2,3.8L73.9,32.1C72.8,33.1,71.1,33,70.1,31.9L70.1,31.9z"/>
	</g>
</g>
</svg>
