<?xml version="1.0" encoding="utf-8"?>
<!-- Generator: Adobe Illustrator 24.0.1, SVG Export Plug-In . SVG Version: 6.00 Build 0)  -->
<svg version="1.1" id="Layer_1" xmlns="http://www.w3.org/2000/svg" xmlns:xlink="http://www.w3.org/1999/xlink" x="0px" y="0px"
	 viewBox="0 0 100 100" style="enable-background:new 0 0 100 100;" xml:space="preserve">
<style type="text/css">
	.st0{fill:#F3F5FB;}
	.st1{fill:#1B5690;}
	.st2{fill:#F28E29;}
	.st3{fill:#E30613;}
	.st4{fill:#F9B233;}
	.st5{fill:url(#SVGID_1_);stroke:#432918;stroke-width:0.25;stroke-miterlimit:10;}
	.st6{fill:url(#SVGID_2_);}
	.st7{fill:#F5AEBF;}
	.st8{fill:#FFFFFF;}
	.st9{fill:url(#SVGID_3_);stroke:#432918;stroke-width:0.25;stroke-miterlimit:10;}
	.st10{fill:url(#SVGID_4_);}
	.st11{fill:url(#SVGID_5_);}
	.st12{fill:url(#SVGID_6_);stroke:#432918;stroke-width:0.25;stroke-miterlimit:10;}
	.st13{fill:url(#SVGID_7_);}
	.st14{fill:url(#SVGID_8_);}
	.st15{fill:url(#SVGID_9_);stroke:#432918;stroke-width:0.25;stroke-miterlimit:10;}
	.st16{fill:url(#SVGID_10_);}
	.st17{fill:url(#SVGID_11_);}
	.st18{fill:url(#SVGID_12_);}
	.st19{fill:#B3DCDA;}
	.st20{fill:url(#SVGID_13_);stroke:#432918;stroke-width:0.25;stroke-miterlimit:10;}
	.st21{fill:url(#SVGID_14_);}
	.st22{fill:url(#SVGID_15_);}
	.st23{fill:none;stroke:#F28E29;stroke-miterlimit:10;}
	.st24{fill:none;stroke:#1B5690;stroke-miterlimit:10;}
	.st25{fill:#020203;}
	.st26{fill:#F9B259;}
	.st27{fill:#1F2D53;}
	.st28{fill:#1E5792;}
	.st29{fill:#F18E29;}
	.st30{fill:url(#SVGID_16_);}
	.st31{fill:url(#SVGID_17_);}
	.st32{fill:url(#SVGID_18_);stroke:#432918;stroke-width:0.25;stroke-miterlimit:10;}
</style>
<rect class="st0" width="100" height="100"/>
<g>
	<path class="st2" d="M39.4,54.1c0.2,0.1,0.4,0.2,0.7,0.2c0.3,0,0.6-0.1,0.8-0.3c0.4-0.3,0.7-0.8,0.6-1.3L40.4,45
		c1.7-2.3,2.7-5.1,2.7-7.9c0.1-3.1-0.8-6.2-2.7-8.7c-2.3-3.1-5.7-5.2-9.6-5.9c-3.9-0.7-7.8,0.2-11,2.4c-6.7,4.6-8.3,13.6-3.6,20
		c1.9,2.6,4.5,4.4,7.5,5.4c2.8,0.9,5.8,0.9,8.6,0.1L39.4,54.1z M18.6,43.3c-3.8-5.2-2.5-12.5,2.9-16.2c2.6-1.8,5.8-2.5,8.9-1.9
		c3.1,0.5,5.9,2.2,7.7,4.7c3,4.1,2.9,9.8-0.3,13.8c-0.2,0.3-0.3,0.7-0.3,1.1l0.8,5.5l-5.1-2.6c-0.2-0.1-0.4-0.2-0.7-0.2
		c-0.2,0-0.3,0-0.5,0.1C27.1,49.3,21.6,47.5,18.6,43.3L18.6,43.3z"/>
	<path class="st1" d="M28.1,27.8c-2.4,0-4.4,1.9-4.4,4.2v0.6c0,0.8,0.6,1.4,1.4,1.4c0.8,0,1.4-0.6,1.4-1.4V32c0-0.8,0.7-1.5,1.5-1.5
		s1.5,0.7,1.5,1.5v0.6c0,0.2-0.5,0.8-0.8,1.1c-0.7,0.8-1.5,1.8-1.5,3.1v1.7c0,0.8,0.6,1.4,1.4,1.4s1.4-0.6,1.4-1.4v-1.7
		c0-0.3,0.5-0.9,0.9-1.3c0.6-0.7,1.4-1.7,1.4-2.9V32C32.4,29.7,30.5,27.8,28.1,27.8z"/>
	<path class="st1" d="M28.7,42.5c-0.8,0-1.4,0.6-1.4,1.4v0c0,0.8,0.6,1.4,1.4,1.4c0.8,0,1.4-0.6,1.4-1.4
		C30.1,43.1,29.5,42.5,28.7,42.5z"/>
	<path class="st1" d="M86.1,72.7C84.5,65.6,81,57.3,68.3,55v-5.2c2.8-2.8,4.4-5.9,4.4-8.6v-3.4c1.1-0.6,2.5-1.6,3.6-3.6
		c1.5-2.7,2-6.6,1.7-12c0-0.5-0.3-0.9-0.7-1.1c-0.4-0.2-0.9-0.3-1.3-0.1c-5.1,2.1-10.1,1.5-14.4,1c-2.7-0.3-5-0.6-7-0.3
		c-2.3,0.4-4,1.6-5.1,3.7c-4,2.4-4,7.1-4,11.6v4.2c0,2.7,1.6,5.9,4.5,8.7V55c-12.7,2.3-16.2,10.6-17.8,17.7
		c-0.4,1.6-0.6,3.6,0.5,4.9c1.1,1.3,3,1.5,4.6,1.5h8.8c0.8,0,1.4-0.6,1.4-1.4s-0.6-1.4-1.4-1.4h-8.8c-1.7,0-2.2-0.3-2.4-0.5
		c-0.2-0.2-0.4-0.8,0.1-2.6c1.2-5.4,3.5-11.1,10.3-14l6.2,9.3c0.2,0.4,0.6,0.6,1.1,0.6c0,0,0.1,0,0.1,0c0.4,0,0.8-0.2,1.1-0.5
		l5.3-5.7l5.3,5.7c0.3,0.3,0.7,0.5,1.1,0.5c0,0,0.1,0,0.1,0c0.4,0,0.8-0.3,1.1-0.6l6.2-9.3c6.8,2.9,9.1,8.6,10.3,14
		c0.4,1.8,0.2,2.4,0.1,2.6c-0.1,0.2-0.6,0.5-2.4,0.5H59.9c-0.8,0-1.4,0.6-1.4,1.4c0,0.8,0.6,1.4,1.4,1.4H81c1.6,0,3.5-0.2,4.6-1.5
		C86.8,76.3,86.5,74.3,86.1,72.7L86.1,72.7z M51.4,27.6c0.3-0.1,0.5-0.4,0.6-0.7c1.4-3.1,4-2.9,9.3-2.2c4,0.5,8.8,1.1,14-0.5
		c0.1,3.9-0.4,6.8-1.5,8.7C73,34.4,72,35.1,71,35.6c-7.7-0.1-12.3-1.2-16.1-3.7c-0.2-0.2-0.5-0.2-0.8-0.2c-0.4,0-0.8,0.2-1,0.4
		c-1.5,1.5-2.7,2.3-4.5,3C48.6,31.3,49,28.8,51.4,27.6L51.4,27.6z M48.5,41.2V38c2.1-0.7,3.9-1.5,5.8-3.2c3.9,2.3,8.6,3.3,15.6,3.5
		v2.8c0,2.1-1.5,4.7-4,7c-2.3,2.1-5,3.6-6.7,3.6c-1.7,0-4.4-1.4-6.7-3.6C50,45.9,48.5,43.2,48.5,41.2L48.5,41.2z M53,65.5l-4.8-7.2
		c0.9-0.3,1.9-0.5,3-0.6l5.8,3.6L53,65.5z M53,55.4v-3.2c2.2,1.5,4.4,2.4,6.2,2.4c1.8,0,4.1-0.9,6.3-2.4v3.3l-6.3,3.9L53,55.4z
		 M65.4,65.5l-4-4.2l5.8-3.6c1.1,0.2,2.1,0.4,3,0.6L65.4,65.5z"/>
	<path class="st2" d="M53.1,76.4c-0.8,0-1.4,0.6-1.4,1.4c0,0.8,0.6,1.4,1.4,1.4h0c0.8,0,1.4-0.6,1.4-1.4S53.8,76.4,53.1,76.4z"/>
</g>
</svg>
