<?xml version="1.0" encoding="utf-8"?>
<!-- Generator: Adobe Illustrator 24.0.1, SVG Export Plug-In . SVG Version: 6.00 Build 0)  -->
<svg version="1.1" id="Layer_1" xmlns="http://www.w3.org/2000/svg" xmlns:xlink="http://www.w3.org/1999/xlink" x="0px" y="0px"
	 viewBox="0 0 100 100" style="enable-background:new 0 0 100 100;" xml:space="preserve">
<style type="text/css">
	.st0{fill:#1B5690;}
	.st1{fill:#F28E29;}
	.st2{fill:#E30613;}
	.st3{fill:#2FAC66;}
	.st4{fill:#F9B233;}
	.st5{fill:url(#SVGID_1_);stroke:#432918;stroke-width:0.25;stroke-miterlimit:10;}
	.st6{fill:url(#SVGID_2_);}
	.st7{fill:#F5AEBF;}
	.st8{fill:#FFFFFF;}
	.st9{fill:url(#SVGID_3_);stroke:#432918;stroke-width:0.25;stroke-miterlimit:10;}
	.st10{fill:url(#SVGID_4_);}
	.st11{fill:url(#SVGID_5_);}
	.st12{fill:url(#SVGID_6_);stroke:#432918;stroke-width:0.25;stroke-miterlimit:10;}
	.st13{fill:url(#SVGID_7_);}
	.st14{fill:url(#SVGID_8_);}
	.st15{fill:url(#SVGID_9_);stroke:#432918;stroke-width:0.25;stroke-miterlimit:10;}
	.st16{fill:url(#SVGID_10_);}
	.st17{fill:url(#SVGID_11_);}
	.st18{fill:url(#SVGID_12_);}
	.st19{fill:#B3DCDA;}
	.st20{fill:url(#SVGID_13_);stroke:#432918;stroke-width:0.25;stroke-miterlimit:10;}
	.st21{fill:url(#SVGID_14_);}
	.st22{fill:url(#SVGID_15_);}
	.st23{fill:none;stroke:#F28E29;stroke-miterlimit:10;}
	.st24{fill:none;stroke:#1B5690;stroke-miterlimit:10;}
	.st25{fill:url(#SVGID_16_);stroke:#432918;stroke-width:0.25;stroke-miterlimit:10;}
	.st26{fill:url(#SVGID_17_);}
	.st27{fill:url(#SVGID_18_);}
</style>
<g>
	<path class="st1" d="M22,100H78c6.6,0,12-4.8,12-10.7V10.7C90,4.8,84.6,0,78,0H22c-6.6,0-12,4.8-12,10.7v78.6
		C10,95.2,15.4,100,22,100z M13.7,20h72.6v69.3c0,4.1-3.7,7.4-8.2,7.4H22c-4.5,0-8.2-3.3-8.2-7.4L13.7,20L13.7,20z"/>
	<ellipse class="st0" cx="27.7" cy="33.2" rx="4.5" ry="4"/>
	<rect x="36" y="31.7" class="st0" width="39.1" height="3.3"/>
	<ellipse class="st0" cx="27.7" cy="46.5" rx="4.5" ry="4"/>
	<rect x="36" y="45" class="st0" width="39.1" height="3.3"/>
	<ellipse class="st0" cx="27.7" cy="59.9" rx="4.5" ry="4"/>
	<rect x="36" y="58.3" class="st0" width="39.1" height="3.3"/>
</g>
<g>
	<linearGradient id="SVGID_1_" gradientUnits="userSpaceOnUse" x1="100" y1="13.2871" x2="145" y2="13.2871">
		<stop  offset="0" style="stop-color:#FFEF26"/>
		<stop  offset="5.948725e-02" style="stop-color:#FFE000"/>
		<stop  offset="0.1303" style="stop-color:#FFD300"/>
		<stop  offset="0.2032" style="stop-color:#FECB00"/>
		<stop  offset="0.2809" style="stop-color:#FDC800"/>
		<stop  offset="0.6685" style="stop-color:#F18F34"/>
		<stop  offset="0.8876" style="stop-color:#E95F32"/>
		<stop  offset="1" style="stop-color:#E3312D"/>
	</linearGradient>
	<circle class="st5" cx="122.5" cy="13.3" r="22.5"/>
</g>
<g>
	
		<radialGradient id="SVGID_2_" cx="-83.5461" cy="-891.501" r="102.1702" gradientTransform="matrix(0.2202 0 0 -0.2202 140.8986 -137.9938)" gradientUnits="userSpaceOnUse">
		<stop  offset="0" style="stop-color:#F0859D"/>
		<stop  offset="0.9788" style="stop-color:#E83C5F"/>
	</radialGradient>
	<circle class="st6" cx="122.5" cy="58.3" r="22.5"/>
</g>
<g>
	
		<radialGradient id="SVGID_3_" cx="-110.1835" cy="240.0969" r="2.8254" gradientTransform="matrix(7.9635 0 0 -7.9635 954.9446 1934.507)" gradientUnits="userSpaceOnUse">
		<stop  offset="2.060000e-02" style="stop-color:#87CBC5"/>
		<stop  offset="1" style="stop-color:#37B39A"/>
	</radialGradient>
	<circle style="fill:url(#SVGID_3_);" cx="77.5" cy="22.5" r="22.5"/>
	<g>
		<path class="st8" d="M70.1,31.9l-6.6-7.5c-1-1.1-0.9-2.8,0.3-3.8c1.1-1,2.8-0.9,3.8,0.3l4.8,5.5l15.3-13.4c1.1-1,2.8-0.9,3.8,0.2
			c1,1.1,0.9,2.8-0.2,3.8L73.9,32.1C72.8,33.1,71.1,33,70.1,31.9L70.1,31.9z"/>
	</g>
</g>
</svg>
