<svg id="Layer_1" data-name="Layer 1" xmlns="http://www.w3.org/2000/svg" width="100" height="100" viewBox="0 0 100 100">
  <defs>
    <style>
      .cls-1 {
        fill: #efeff0;
      }

      .cls-2 {
        fill: #13548c;
      }

      .cls-3 {
        fill: #fc8e1f;
      }
    </style>
  </defs>
  <title>Icons</title>
  <path class="cls-1" d="M0,53.78v-8.4a4.32,4.32,0,0,0,.27-.84,51,51,0,0,1,5.53-18A50,50,0,0,1,99.37,41.93c.21,1.23.45,2.46.67,3.69v8.16a3,3,0,0,0-.21.64A45.43,45.43,0,0,1,95.7,70.34Q82.94,97,53.5,99.89c-1.24,0-2.47,0-3.7,0-.86,0-1.71.14-2.56.22h-.72a2.86,2.86,0,0,0-.61-.24c-1.66-.24-3.33-.4-5-.69C21,95.7,4.54,79.46.91,59.64.56,57.69.28,55.73,0,53.78Z"/>
  <g>
    <path class="cls-2" d="M70,81H30a9.5,9.5,0,0,1-9.49-9.49V55.72h4V71.51A5.49,5.49,0,0,0,30,77H70a5.49,5.49,0,0,0,5.49-5.49V46.6h4V71.51A9.5,9.5,0,0,1,70,81Z"/>
    <path class="cls-3" d="M76.62,48.6a13.89,13.89,0,0,1-9.43-3.9,10.45,10.45,0,0,1-8.32,3.9A12,12,0,0,1,50,44.7a12,12,0,0,1-8.87,3.9,10.45,10.45,0,0,1-8.32-3.9,13.89,13.89,0,0,1-9.43,3.9A9.11,9.11,0,0,1,15.76,45a8.7,8.7,0,0,1-.92-8l4.47-12.91A7.62,7.62,0,0,1,26.51,19h47a7.62,7.62,0,0,1,7.2,5.13L85.16,37a8.7,8.7,0,0,1-.92,8A9.11,9.11,0,0,1,76.62,48.6ZM66.16,36.4l2.34,3.65a10.08,10.08,0,0,0,8.12,4.55A5.11,5.11,0,0,0,81,42.7a4.68,4.68,0,0,0,.4-4.35L76.91,25.44A3.62,3.62,0,0,0,73.49,23h-47a3.62,3.62,0,0,0-3.42,2.44L18.62,38.35A4.68,4.68,0,0,0,19,42.7a5.11,5.11,0,0,0,4.36,1.9,10.08,10.08,0,0,0,8.12-4.55l2.34-3.65,1.25,4.15a6,6,0,0,0,6,4.05,7.88,7.88,0,0,0,7.06-4.32L50,36.44l1.81,3.84a7.88,7.88,0,0,0,7.06,4.32,6,6,0,0,0,6-4.05Z"/>
    <path class="cls-2" d="M60.09,81h-20V64.47a9.63,9.63,0,0,1,9.62-9.63h.78a9.63,9.63,0,0,1,9.62,9.63Zm-16-4h12V64.47a5.63,5.63,0,0,0-5.62-5.63h-.78a5.63,5.63,0,0,0-5.62,5.63Z"/>
  </g>
</svg>
