<svg id="Layer_1" data-name="Layer 1" xmlns="http://www.w3.org/2000/svg" width="100" height="100" viewBox="0 0 100 100">
  <defs>
    <style>
      .cls-1 {
        fill: #fff;
      }

      .cls-2 {
        fill: #13548c;
      }

      .cls-3 {
        fill: #fc8e1f;
      }
    </style>
  </defs>
  <title>Icons</title>
  <path class="cls-1" d="M0,53.78v-8.4a4.32,4.32,0,0,0,.27-.84,51,51,0,0,1,5.53-18A50,50,0,0,1,99.37,41.93c.21,1.23.45,2.46.67,3.69v8.16a3,3,0,0,0-.21.64A45.43,45.43,0,0,1,95.7,70.34Q82.94,97,53.5,99.89c-1.24,0-2.47,0-3.7,0-.86,0-1.71.14-2.56.22h-.72a2.86,2.86,0,0,0-.61-.24c-1.66-.24-3.33-.4-5-.69C21,95.7,4.54,79.46.91,59.64.56,57.69.28,55.73,0,53.78Z"/>
  <path class="cls-2" d="M57.06,76.25c-.71,1.06-1.14,2.42-1.93,2.68a4.44,4.44,0,0,1-3.59-.35,40.74,40.74,0,0,1-5.21-5.37c-2.61-3-5-6.27-9.45-6.73-3.06-.32-5.9,0-8.44,1.87q-3.47,2.58-7,5.11a10.59,10.59,0,0,1-2.12,1.3c-1.69.7-3.53,1.19-4.78-.61s-.24-3.45,1.14-4.66c3.57-3.11,7.27-6.07,10.84-9.18,5-4.34,5.32-8.23,1.29-13.52-2.14-2.81-4.31-5.59-6.47-8.38-1.71-2.21-1.82-4.43-.25-5.72s3.67-1,5.53,1.22c2.23,2.62,4.35,5.33,6.63,7.9C37,46,39.87,46.3,44.39,43c2.69-2,5.32-4,8-6.05,2.35-1.78,4.61-1.82,5.92-.11s.74,4-1.49,5.81c-3,2.5-6.06,4.9-9.06,7.39a7.87,7.87,0,0,0-1.4,11.17C49.08,64.84,52,68.31,54.77,72A31.72,31.72,0,0,1,57.06,76.25Z"/>
  <path class="cls-2" d="M54.51,51.76a12.8,12.8,0,0,1,1.64-1.94c2.42-2,5-3.86,7.38-5.91,3.21-2.76,3.47-5.29,1.08-8.76-1.27-1.83-2.58-3.63-3.87-5.45-1-1.43-2.53-3-.58-4.57s3.12.26,4.23,1.66c1.38,1.75,2.7,3.55,4.18,5.21,2.22,2.48,4.07,2.73,6.86.93,1.95-1.25,3.82-2.62,5.69-4,1.45-1.05,3.06-2,4.36-.15s-.16,3.07-1.53,4.13c-1.61,1.25-3.26,2.46-4.88,3.7-4.13,3.17-4.49,5.77-1.41,9.88,1.5,2,3,4,4.47,6,.43.6,1,1.27,1.06,1.92,0,1-.06,2.47-.69,2.92a3,3,0,0,1-2.88-.47,51.49,51.49,0,0,1-4.35-5.06c-3.19-3.87-7.41-4.53-11.55-1.79-1.86,1.23-3.61,2.64-5.55,3.7S54.38,54,54.51,51.76Z"/>
  <path class="cls-3" d="M33.16,32.9a6.77,6.77,0,1,1,13.54.21A6.67,6.67,0,0,1,40,39.78,6.74,6.74,0,0,1,33.16,32.9Z"/>
  <path class="cls-3" d="M77.7,25.62a4.81,4.81,0,0,1-4.58,4.7,4.73,4.73,0,1,1,.08-9.46A4.76,4.76,0,0,1,77.7,25.62Z"/>
</svg>
