<svg id="Layer_1" data-name="Layer 1" xmlns="http://www.w3.org/2000/svg" width="100" height="100" viewBox="0 0 100 100">
  <defs>
    <style>
      .cls-1 {
        fill: #fff;
      }

      .cls-2 {
        fill: #13548c;
      }

      .cls-3 {
        fill: #fc8e1f;
      }
    </style>
  </defs>
  <title>Icons</title>
  <path class="cls-1" d="M0,53.78v-8.4a4.32,4.32,0,0,0,.27-.84,51,51,0,0,1,5.53-18A50,50,0,0,1,99.37,41.93c.21,1.23.45,2.46.67,3.69v8.16a3,3,0,0,0-.21.64A45.43,45.43,0,0,1,95.7,70.34Q82.94,97,53.5,99.89c-1.24,0-2.47,0-3.7,0-.86,0-1.71.14-2.56.22h-.72a2.86,2.86,0,0,0-.61-.24c-1.66-.24-3.33-.4-5-.69C21,95.7,4.54,79.46.91,59.64.56,57.69.28,55.73,0,53.78Z"/>
  <g>
    <path class="cls-2" d="M64.86,30.82A14.86,14.86,0,1,0,48,45.53V67.59a2,2,0,0,0,4,0V45.53A14.87,14.87,0,0,0,64.86,30.82ZM50,41.68A10.86,10.86,0,1,1,60.86,30.82,10.87,10.87,0,0,1,50,41.68Z"/>
    <path class="cls-3" d="M50,84C34.34,84,22.07,77.1,22.07,68.23c0-3.68,2.1-7.11,6.08-9.92a2,2,0,0,1,2.31,3.27c-2,1.41-4.39,3.71-4.39,6.65C26.07,74.63,37,80,50,80s23.93-5.41,23.93-11.81c0-2.91-2.29-5.17-4.22-6.56l-.15-.1a2,2,0,0,1,2.32-3.26l.16.11c3.86,2.78,5.89,6.17,5.89,9.81C77.93,77.1,65.66,84,50,84Z"/>
  </g>
</svg>
