<svg id="Layer_1" data-name="Layer 1" xmlns="http://www.w3.org/2000/svg" width="100" height="100" viewBox="0 0 100 100">
  <defs>
    <style>
      .cls-1 {
        fill: #efeff0;
      }

      .cls-2 {
        fill: #fc8e1f;
      }

      .cls-3 {
        fill: #13548c;
      }
    </style>
  </defs>
  <title>Icons</title>
  <path class="cls-1" d="M0,53.78v-8.4a4.32,4.32,0,0,0,.27-.84,51,51,0,0,1,5.53-18A50,50,0,0,1,99.37,41.93c.21,1.23.45,2.46.67,3.69v8.16a3,3,0,0,0-.21.64A45.43,45.43,0,0,1,95.7,70.34Q82.94,97,53.5,99.89c-1.24,0-2.47,0-3.7,0-.86,0-1.71.14-2.56.22h-.72a2.86,2.86,0,0,0-.61-.24c-1.66-.24-3.33-.4-5-.69C21,95.7,4.54,79.46.91,59.64.56,57.69.28,55.73,0,53.78Z"/>
  <g>
    <polygon class="cls-2" points="56.3 48.19 49.09 62.66 42.8 50 28.4 78.9 14 78.9 42.8 21.1 56.3 48.19"/>
    <polygon class="cls-3" points="71.6 50 86 78.9 71.6 78.9 64.4 64.45 57.2 78.9 42.8 78.9 49.99 64.47 57.2 50 71.6 21.1 86 21.1 71.6 50"/>
  </g>
</svg>
