<svg id="Layer_1" data-name="Layer 1" xmlns="http://www.w3.org/2000/svg" width="100" height="100" viewBox="0 0 100 100">
  <defs>
    <style>
      .cls-1 {
        fill: #fff;
      }

      .cls-2 {
        fill: #13548c;
      }

      .cls-3 {
        fill: #fc8e1f;
      }
    </style>
  </defs>
  <title>Icons</title>
  <path class="cls-1" d="M0,53.78v-8.4a4.32,4.32,0,0,0,.27-.84,51,51,0,0,1,5.53-18A50,50,0,0,1,99.37,41.93c.21,1.23.45,2.46.67,3.69v8.16a3,3,0,0,0-.21.64A45.43,45.43,0,0,1,95.7,70.34Q82.94,97,53.5,99.89c-1.24,0-2.47,0-3.7,0-.86,0-1.71.14-2.56.22h-.72a2.86,2.86,0,0,0-.61-.24c-1.66-.24-3.33-.4-5-.69C21,95.7,4.54,79.46.91,59.64.56,57.69.28,55.73,0,53.78Z"/>
  <g>
    <path class="cls-2" d="M87.13,37H33.67V21.31H87.13Zm-49.6-3.86H83.27V25.17H37.53Z"/>
    <path class="cls-3" d="M23.82,37.26H18.17A5.31,5.31,0,0,1,12.87,32V26.3a5.31,5.31,0,0,1,5.3-5.3h5.65a5.31,5.31,0,0,1,5.31,5.3V32A5.31,5.31,0,0,1,23.82,37.26Zm-5.65-12.4a1.45,1.45,0,0,0-1.44,1.44V32a1.45,1.45,0,0,0,1.44,1.45h5.65A1.45,1.45,0,0,0,25.27,32V26.3a1.45,1.45,0,0,0-1.45-1.44Z"/>
    <path class="cls-3" d="M23.82,58.13H18.17a5.31,5.31,0,0,1-5.3-5.31V47.18a5.31,5.31,0,0,1,5.3-5.31h5.65a5.31,5.31,0,0,1,5.31,5.31v5.64A5.31,5.31,0,0,1,23.82,58.13Zm-5.65-12.4a1.45,1.45,0,0,0-1.44,1.45v5.64a1.45,1.45,0,0,0,1.44,1.45h5.65a1.45,1.45,0,0,0,1.45-1.45V47.18a1.45,1.45,0,0,0-1.45-1.45Z"/>
    <path class="cls-3" d="M23.82,79H18.17a5.31,5.31,0,0,1-5.3-5.3V68.05a5.31,5.31,0,0,1,5.3-5.31h5.65a5.31,5.31,0,0,1,5.31,5.31V73.7A5.31,5.31,0,0,1,23.82,79ZM18.17,66.6a1.45,1.45,0,0,0-1.44,1.45V73.7a1.45,1.45,0,0,0,1.44,1.44h5.65a1.45,1.45,0,0,0,1.45-1.44V68.05a1.45,1.45,0,0,0-1.45-1.45Z"/>
    <path class="cls-2" d="M87.13,78.69H33.67V63.05H87.13Zm-49.6-3.86H83.27V66.91H37.53Z"/>
    <path class="cls-2" d="M87.13,57.82H33.67V42.18H87.13ZM37.53,54H83.27V46H37.53Z"/>
  </g>
</svg>
