<svg id="Layer_1" data-name="Layer 1" xmlns="http://www.w3.org/2000/svg" width="100" height="100" viewBox="0 0 100 100">
  <defs>
    <style>
      .cls-1 {
        fill: #fff;
      }

      .cls-2 {
        fill: #fc8e1f;
      }

      .cls-3 {
        fill: #13548c;
      }
    </style>
  </defs>
  <title>Icons</title>
  <path class="cls-1" d="M0,53.78v-8.4a4.32,4.32,0,0,0,.27-.84,51,51,0,0,1,5.53-18A50,50,0,0,1,99.37,41.93c.21,1.23.45,2.46.67,3.69v8.16a3,3,0,0,0-.21.64A45.43,45.43,0,0,1,95.7,70.34Q82.94,97,53.5,99.89c-1.24,0-2.47,0-3.7,0-.86,0-1.71.14-2.56.22h-.72a2.86,2.86,0,0,0-.61-.24c-1.66-.24-3.33-.4-5-.69C21,95.7,4.54,79.46.91,59.64.56,57.69.28,55.73,0,53.78Z"/>
  <g>
    <path class="cls-2" d="M45.45,44.2a17.28,17.28,0,0,0-6.25-4.6,12,12,0,1,0-15.41-.52A17.25,17.25,0,0,0,12,55.41a2,2,0,0,0,4,0A13.26,13.26,0,0,1,29.26,42.17h3.09A13.24,13.24,0,0,1,42.41,46.8a2,2,0,0,0,3-2.6Zm-13.65-22a8,8,0,1,1-8,8A8,8,0,0,1,31.8,22.16Z"/>
    <path class="cls-3" d="M68.37,58.93a15,15,0,1,0-18.29-.08,21.84,21.84,0,0,0-15.91,21,2,2,0,0,0,4,0A17.83,17.83,0,0,1,56,62h6.19A17.83,17.83,0,0,1,80,79.84a2,2,0,0,0,4,0A21.85,21.85,0,0,0,68.37,58.93ZM48.28,47a11,11,0,1,1,11,11A11,11,0,0,1,48.28,47Z"/>
  </g>
</svg>
