<svg id="Layer_1" data-name="Layer 1" xmlns="http://www.w3.org/2000/svg" width="100" height="100" viewBox="0 0 100 100">
  <defs>
    <style>
      .cls-1 {
        fill: #efeff0;
      }

      .cls-2 {
        fill: #fc8e1f;
      }

      .cls-3 {
        fill: #13548c;
      }
    </style>
  </defs>
  <title>Icons</title>
  <path class="cls-1" d="M0,53.78v-8.4a4.32,4.32,0,0,0,.27-.84,51,51,0,0,1,5.53-18A50,50,0,0,1,99.37,41.93c.21,1.23.45,2.46.67,3.69v8.16a3,3,0,0,0-.21.64A45.43,45.43,0,0,1,95.7,70.34Q82.94,97,53.5,99.89c-1.24,0-2.47,0-3.7,0-.86,0-1.71.14-2.56.22h-.72a2.86,2.86,0,0,0-.61-.24c-1.66-.24-3.33-.4-5-.69C21,95.7,4.54,79.46.91,59.64.56,57.69.28,55.73,0,53.78Z"/>
  <g>
    <path class="cls-2" d="M55.12,27.37H31.69c-.93,0-.93,0-.93.93V36a1.76,1.76,0,0,1-1,1.71,1.59,1.59,0,0,1-1.69-.1,1.75,1.75,0,0,1-.75-1.6c0-3.7,0-7.4,0-11.09,0-1.07,0-2.15,0-3.22A4.66,4.66,0,0,1,32,17c3.16,0,6.33,0,9.49,0,12.14,0,24.28,0,36.42,0A5.15,5.15,0,0,1,83,22c-.08,15.28,0,30.57,0,45.85a4.76,4.76,0,0,1-3.5,4.74,4.24,4.24,0,0,1-1.12.13c-4.72,0-9.43,0-14.14,0-1.23,0-2-.63-2-1.68s.77-1.72,2-1.72H78.18c1.27,0,1.38-.11,1.38-1.39V28.36c0-1,0-1-1-1ZM30.77,23.92H79.53c0-1,0-1.89,0-2.81,0-.24-.4-.51-.68-.65a2,2,0,0,0-.77,0H31.78c-.52,0-1,.11-1,.74C30.75,22.07,30.77,23,30.77,23.92Z"/>
    <path class="cls-3" d="M44.68,65.21,52,67.7c.47.17.93.36,1.38.56a9,9,0,0,1,4.29,11.86,3,3,0,0,1-1.6,1.4,18.08,18.08,0,0,1-4.75,1.14c-5.46.23-10.93.34-16.4.37-3.49,0-7-.16-10.47-.35A27.22,27.22,0,0,1,20.62,82a4.18,4.18,0,0,1-3.5-3.88,10.91,10.91,0,0,1,1.12-6.65,6.34,6.34,0,0,1,3.49-3c2.36-.92,4.77-1.73,7.17-2.59a12.52,12.52,0,0,1,1.35-.44.62.62,0,0,0,.53-.84c-.36-1.33-.75-2.64-1.14-4a.29.29,0,0,0-.12-.16c-1.43-.72-1.35-2.12-1.54-3.4-.12-.77-.22-1.54-.28-2.32,0-.36-.05-.86.16-1.07.43-.45.32-.86.26-1.36a10.27,10.27,0,0,1,.41-5.49,7.82,7.82,0,0,1,4.31-4.34,11.72,11.72,0,0,1,10.7.48,7.35,7.35,0,0,1,3.88,6.27,28.4,28.4,0,0,1-.21,3.55,3.06,3.06,0,0,0,.18.69,6.28,6.28,0,0,1,.26,1.26,14.92,14.92,0,0,1-.15,1.76c-.1.87-.17,1.74-.32,2.6a1.44,1.44,0,0,1-.52.91c-1.11.6-1.14,1.8-1.55,2.75A10.21,10.21,0,0,0,44.68,65.21ZM34.25,49.59c-.81-.28-1.21.21-1.44.83a15,15,0,0,0-.6,2.18,3.56,3.56,0,0,1-1.36,2.71c-.38.24-.25,1.67.16,1.82a1.65,1.65,0,0,1,1.08,1.45A6.61,6.61,0,0,0,32.73,61a10.18,10.18,0,0,0,2.41,2.49c2.14,1.57,3,1.55,5.21.05,1.65-1.13,3-2.51,3-4.71a1.37,1.37,0,0,1,.15-.69,2.92,2.92,0,0,1,.73-.9c.45-.34.67-1.67.2-2a3.34,3.34,0,0,1-1.24-2.4,12.39,12.39,0,0,0-.43-2c-.44-1.23-.6-1.29-1.87-1.21a6,6,0,0,0-.84.09,10,10,0,0,1-3.82.16C35.61,49.76,34.93,49.69,34.25,49.59ZM29.52,68.87c-1.58.55-3,1-4.49,1.57a11.43,11.43,0,0,0-2.34,1,5.77,5.77,0,0,0-1.87,1.77,6.59,6.59,0,0,0-.74,4.08c.17,1.61.51,2,2.2,2.1,2.86.24,5.74.38,8.61.56a6.47,6.47,0,0,0,.71,0A39.59,39.59,0,0,0,29.52,68.87ZM44,79.87c1.64,0,3.23.07,4.81,0,1.75-.11,3.5-.33,5.24-.57a1.37,1.37,0,0,0,.91-.63,5.73,5.73,0,0,0-3-7.58c-1.79-.75-3.65-1.34-5.48-2A3.43,3.43,0,0,0,46,69C45,71.13,43.74,78,44,79.87Zm-10.08-14a17.52,17.52,0,0,1-1.14,1.64.82.82,0,0,0-.18.88q.87,3.57,1.64,7.15c.21,1,.28,2,.42,3.07.35-1.36.5-2.73.8-4.06a4,4,0,0,0-.6-3.68,1.27,1.27,0,0,1,1.06-2,35.32,35.32,0,0,1,3.71,0,1.33,1.33,0,0,1,1.11,2,3.55,3.55,0,0,1-.51.77,1.88,1.88,0,0,0-.39,1.66c.25,1.43.46,2.87.7,4.3.07.44.17.88.26,1.33A55.05,55.05,0,0,1,43,68.16a.46.46,0,0,0,0-.38c-.42-.59-.86-1.17-1.36-1.84A5.83,5.83,0,0,1,33.89,65.91Zm10.6-17.55a4.77,4.77,0,0,0-2.37-3.16A9.5,9.5,0,0,0,36,44.29a6.68,6.68,0,0,0-3.4,1.37,4.09,4.09,0,0,0-1.59,2.48,3.45,3.45,0,0,1,3.58-1.2,16.7,16.7,0,0,0,5.51.08C41.68,46.71,43.31,46.56,44.49,48.36ZM38.15,80l-.36-2.12h-.15L37.31,80Z"/>
    <path class="cls-3" d="M65.66,55.29V48.21a3.29,3.29,0,0,1,3.25-3.28c1.31,0,2.62,0,3.92,0A3.36,3.36,0,0,1,76,48.09q0,7.21,0,14.43a3.38,3.38,0,0,1-3.27,3.24c-1.29,0-2.57,0-3.86,0a3.34,3.34,0,0,1-3.23-3.4Zm3.42,7.06c1,0,2,0,2.91,0,.51,0,.66-.19.65-.67,0-1.12,0-2.24,0-3.36,0-3.07,0-6.14,0-9.21,0-.26-.18-.74-.29-.74-1.07-.06-2.16,0-3.25,0Z"/>
    <path class="cls-3" d="M68.58,34.35h-2.8a1.7,1.7,0,1,1,0-3.39c2.83,0,5.67,0,8.5,0A1.74,1.74,0,0,1,76,33.12q-1.09,4-2.22,8a1.67,1.67,0,0,1-2.28,1.19,1.64,1.64,0,0,1-1-2c.24-1,.53-2,.79-3a5.36,5.36,0,0,0,.1-.59l-.74.48-9.5,6.47c-1.18.8-1.79.74-2.82-.27-1.22-1.21-2.45-2.4-3.65-3.63a.64.64,0,0,0-1-.1,5,5,0,0,1-1,.61,1.68,1.68,0,0,1-2.2-.55,1.65,1.65,0,0,1,.35-2.25c.92-.66,1.89-1.28,2.87-1.85a1.84,1.84,0,0,1,2.2.52c1.23,1.26,2.48,2.5,3.72,3.75.23.24.42.4.78.16,2.66-1.84,5.34-3.66,8-5.48A2.45,2.45,0,0,0,68.58,34.35Z"/>
    <path class="cls-3" d="M58.65,62.28V51.81c-1.08,0-2.14,0-3.19,0-.13,0-.34.41-.34.64,0,1.59,0,3.19,0,4.79a1.69,1.69,0,0,1-3.38-.1c0-1.88-.05-3.77,0-5.65A3.35,3.35,0,0,1,55,48.41c1.31,0,2.62,0,3.92,0a3.34,3.34,0,0,1,3.18,3.23q0,5.38,0,10.79a3.4,3.4,0,0,1-3.87,3.32,1.69,1.69,0,0,1-1.53-1.61,1.65,1.65,0,0,1,1.45-1.74Z"/>
  </g>
</svg>
